G04 EAGLE Gerber RS-274X export*
G75*
%MOMM*%
%FSLAX34Y34*%
%LPD*%
%INBottom Copper*%
%IPPOS*%
%AMOC8*
5,1,8,0,0,1.08239X$1,22.5*%
G01*
G04 Define Apertures*
%ADD10R,1.428000X1.428000*%
%ADD11C,1.428000*%
%ADD12C,3.316000*%
%ADD13C,1.508000*%
%ADD14C,2.100000*%
%ADD15C,1.650000*%
%ADD16R,1.524000X1.524000*%
%ADD17P,1.64956X8X202.5*%
%ADD18C,0.756400*%
%ADD19C,0.381000*%
G36*
X1288523Y177316D02*
X1287780Y177165D01*
X267970Y177165D01*
X267283Y177293D01*
X266645Y177702D01*
X266216Y178327D01*
X266065Y179070D01*
X266065Y894080D01*
X266193Y894767D01*
X266602Y895405D01*
X267227Y895834D01*
X267970Y895985D01*
X1287780Y895985D01*
X1288467Y895857D01*
X1289105Y895448D01*
X1289534Y894823D01*
X1289685Y894080D01*
X1289685Y179070D01*
X1289557Y178383D01*
X1289148Y177745D01*
X1288523Y177316D01*
G37*
%LPC*%
G36*
X1064654Y852810D02*
X1068946Y852810D01*
X1072912Y854453D01*
X1075947Y857488D01*
X1077590Y861454D01*
X1077590Y865746D01*
X1075947Y869712D01*
X1072912Y872747D01*
X1068946Y874390D01*
X1064654Y874390D01*
X1060688Y872747D01*
X1057653Y869712D01*
X1056010Y865746D01*
X1056010Y861454D01*
X1057653Y857488D01*
X1060688Y854453D01*
X1064654Y852810D01*
G37*
G36*
X302654Y852810D02*
X306946Y852810D01*
X310912Y854453D01*
X313947Y857488D01*
X315590Y861454D01*
X315590Y865746D01*
X313947Y869712D01*
X310912Y872747D01*
X306946Y874390D01*
X302654Y874390D01*
X298688Y872747D01*
X295653Y869712D01*
X294010Y865746D01*
X294010Y861454D01*
X295653Y857488D01*
X298688Y854453D01*
X302654Y852810D01*
G37*
G36*
X1064654Y827410D02*
X1068946Y827410D01*
X1072912Y829053D01*
X1075947Y832088D01*
X1077590Y836054D01*
X1077590Y840346D01*
X1075947Y844312D01*
X1072912Y847347D01*
X1068946Y848990D01*
X1064654Y848990D01*
X1060688Y847347D01*
X1057653Y844312D01*
X1056010Y840346D01*
X1056010Y836054D01*
X1057653Y832088D01*
X1060688Y829053D01*
X1064654Y827410D01*
G37*
G36*
X302654Y827410D02*
X306946Y827410D01*
X310912Y829053D01*
X313947Y832088D01*
X315590Y836054D01*
X315590Y840346D01*
X313947Y844312D01*
X310912Y847347D01*
X306946Y848990D01*
X302654Y848990D01*
X298688Y847347D01*
X295653Y844312D01*
X294010Y840346D01*
X294010Y836054D01*
X295653Y832088D01*
X298688Y829053D01*
X302654Y827410D01*
G37*
G36*
X1064654Y802010D02*
X1068946Y802010D01*
X1072912Y803653D01*
X1075947Y806688D01*
X1077590Y810654D01*
X1077590Y814946D01*
X1075947Y818912D01*
X1072912Y821947D01*
X1068946Y823590D01*
X1064654Y823590D01*
X1060688Y821947D01*
X1057653Y818912D01*
X1056010Y814946D01*
X1056010Y810654D01*
X1057653Y806688D01*
X1060688Y803653D01*
X1064654Y802010D01*
G37*
G36*
X302654Y802010D02*
X306946Y802010D01*
X310912Y803653D01*
X313947Y806688D01*
X315590Y810654D01*
X315590Y814946D01*
X313947Y818912D01*
X310912Y821947D01*
X306946Y823590D01*
X302654Y823590D01*
X298688Y821947D01*
X295653Y818912D01*
X294010Y814946D01*
X294010Y810654D01*
X295653Y806688D01*
X298688Y803653D01*
X302654Y802010D01*
G37*
G36*
X1064654Y776610D02*
X1068946Y776610D01*
X1072912Y778253D01*
X1075947Y781288D01*
X1077590Y785254D01*
X1077590Y789546D01*
X1075947Y793512D01*
X1072912Y796547D01*
X1068946Y798190D01*
X1064654Y798190D01*
X1060688Y796547D01*
X1057653Y793512D01*
X1056010Y789546D01*
X1056010Y785254D01*
X1057653Y781288D01*
X1060688Y778253D01*
X1064654Y776610D01*
G37*
G36*
X302654Y776610D02*
X306946Y776610D01*
X310912Y778253D01*
X313947Y781288D01*
X315590Y785254D01*
X315590Y789546D01*
X313947Y793512D01*
X310912Y796547D01*
X306946Y798190D01*
X302654Y798190D01*
X298688Y796547D01*
X295653Y793512D01*
X294010Y789546D01*
X294010Y785254D01*
X295653Y781288D01*
X298688Y778253D01*
X302654Y776610D01*
G37*
G36*
X1064654Y751210D02*
X1068946Y751210D01*
X1072912Y752853D01*
X1075947Y755888D01*
X1077590Y759854D01*
X1077590Y764146D01*
X1075947Y768112D01*
X1072912Y771147D01*
X1068946Y772790D01*
X1064654Y772790D01*
X1060688Y771147D01*
X1057653Y768112D01*
X1056010Y764146D01*
X1056010Y759854D01*
X1057653Y755888D01*
X1060688Y752853D01*
X1064654Y751210D01*
G37*
G36*
X302654Y751210D02*
X306946Y751210D01*
X310912Y752853D01*
X313947Y755888D01*
X315590Y759854D01*
X315590Y764146D01*
X313947Y768112D01*
X310912Y771147D01*
X306946Y772790D01*
X302654Y772790D01*
X298688Y771147D01*
X295653Y768112D01*
X294010Y764146D01*
X294010Y759854D01*
X295653Y755888D01*
X298688Y752853D01*
X302654Y751210D01*
G37*
G36*
X889192Y749040D02*
X897608Y749040D01*
X903560Y754992D01*
X903560Y763408D01*
X897608Y769360D01*
X889192Y769360D01*
X883240Y763408D01*
X883240Y754992D01*
X889192Y749040D01*
G37*
G36*
X863792Y749040D02*
X872208Y749040D01*
X878160Y754992D01*
X878160Y763408D01*
X872208Y769360D01*
X863792Y769360D01*
X857840Y763408D01*
X857840Y754992D01*
X863792Y749040D01*
G37*
G36*
X838392Y749040D02*
X846808Y749040D01*
X852760Y754992D01*
X852760Y763408D01*
X846808Y769360D01*
X838392Y769360D01*
X832440Y763408D01*
X832440Y754992D01*
X838392Y749040D01*
G37*
G36*
X812992Y749040D02*
X821408Y749040D01*
X827360Y754992D01*
X827360Y763408D01*
X821408Y769360D01*
X812992Y769360D01*
X807040Y763408D01*
X807040Y754992D01*
X812992Y749040D01*
G37*
G36*
X787592Y749040D02*
X796008Y749040D01*
X801960Y754992D01*
X801960Y763408D01*
X796008Y769360D01*
X787592Y769360D01*
X781640Y763408D01*
X781640Y754992D01*
X787592Y749040D01*
G37*
G36*
X762192Y749040D02*
X770608Y749040D01*
X776560Y754992D01*
X776560Y763408D01*
X770608Y769360D01*
X762192Y769360D01*
X756240Y763408D01*
X756240Y754992D01*
X762192Y749040D01*
G37*
G36*
X736792Y749040D02*
X745208Y749040D01*
X751160Y754992D01*
X751160Y763408D01*
X745208Y769360D01*
X736792Y769360D01*
X730840Y763408D01*
X730840Y754992D01*
X736792Y749040D01*
G37*
G36*
X711392Y749040D02*
X719808Y749040D01*
X725760Y754992D01*
X725760Y763408D01*
X719808Y769360D01*
X711392Y769360D01*
X705440Y763408D01*
X705440Y754992D01*
X711392Y749040D01*
G37*
G36*
X685992Y749040D02*
X694408Y749040D01*
X700360Y754992D01*
X700360Y763408D01*
X694408Y769360D01*
X685992Y769360D01*
X680040Y763408D01*
X680040Y754992D01*
X685992Y749040D01*
G37*
G36*
X660592Y749040D02*
X669008Y749040D01*
X674960Y754992D01*
X674960Y763408D01*
X669008Y769360D01*
X660592Y769360D01*
X654640Y763408D01*
X654640Y754992D01*
X660592Y749040D01*
G37*
G36*
X635192Y749040D02*
X643608Y749040D01*
X649560Y754992D01*
X649560Y763408D01*
X643608Y769360D01*
X635192Y769360D01*
X629240Y763408D01*
X629240Y754992D01*
X635192Y749040D01*
G37*
G36*
X609792Y749040D02*
X618208Y749040D01*
X624160Y754992D01*
X624160Y763408D01*
X618208Y769360D01*
X609792Y769360D01*
X603840Y763408D01*
X603840Y754992D01*
X609792Y749040D01*
G37*
G36*
X584392Y749040D02*
X592808Y749040D01*
X598760Y754992D01*
X598760Y763408D01*
X592808Y769360D01*
X584392Y769360D01*
X578440Y763408D01*
X578440Y754992D01*
X584392Y749040D01*
G37*
G36*
X558992Y749040D02*
X567408Y749040D01*
X573360Y754992D01*
X573360Y763408D01*
X567408Y769360D01*
X558992Y769360D01*
X553040Y763408D01*
X553040Y754992D01*
X558992Y749040D01*
G37*
G36*
X533592Y749040D02*
X542008Y749040D01*
X547960Y754992D01*
X547960Y763408D01*
X542008Y769360D01*
X533592Y769360D01*
X527640Y763408D01*
X527640Y754992D01*
X533592Y749040D01*
G37*
G36*
X508192Y749040D02*
X516608Y749040D01*
X522560Y754992D01*
X522560Y763408D01*
X516608Y769360D01*
X508192Y769360D01*
X502240Y763408D01*
X502240Y754992D01*
X508192Y749040D01*
G37*
G36*
X482792Y749040D02*
X491208Y749040D01*
X497160Y754992D01*
X497160Y763408D01*
X491208Y769360D01*
X482792Y769360D01*
X476840Y763408D01*
X476840Y754992D01*
X482792Y749040D01*
G37*
G36*
X457392Y749040D02*
X465808Y749040D01*
X471760Y754992D01*
X471760Y763408D01*
X465808Y769360D01*
X457392Y769360D01*
X451440Y763408D01*
X451440Y754992D01*
X457392Y749040D01*
G37*
G36*
X1234656Y723160D02*
X1239844Y723160D01*
X1244637Y725145D01*
X1248305Y728813D01*
X1250290Y733606D01*
X1250290Y738794D01*
X1248305Y743587D01*
X1244637Y747255D01*
X1239844Y749240D01*
X1234656Y749240D01*
X1229863Y747255D01*
X1226195Y743587D01*
X1224210Y738794D01*
X1224210Y733606D01*
X1226195Y728813D01*
X1229863Y725145D01*
X1234656Y723160D01*
G37*
G36*
X1109656Y723160D02*
X1114844Y723160D01*
X1119637Y725145D01*
X1123305Y728813D01*
X1125290Y733606D01*
X1125290Y738794D01*
X1123305Y743587D01*
X1119637Y747255D01*
X1114844Y749240D01*
X1109656Y749240D01*
X1104863Y747255D01*
X1101195Y743587D01*
X1099210Y738794D01*
X1099210Y733606D01*
X1101195Y728813D01*
X1104863Y725145D01*
X1109656Y723160D01*
G37*
G36*
X1064654Y725810D02*
X1068946Y725810D01*
X1072912Y727453D01*
X1075947Y730488D01*
X1077590Y734454D01*
X1077590Y738746D01*
X1075947Y742712D01*
X1072912Y745747D01*
X1068946Y747390D01*
X1064654Y747390D01*
X1060688Y745747D01*
X1057653Y742712D01*
X1056010Y738746D01*
X1056010Y734454D01*
X1057653Y730488D01*
X1060688Y727453D01*
X1064654Y725810D01*
G37*
G36*
X302654Y725810D02*
X306946Y725810D01*
X310912Y727453D01*
X313947Y730488D01*
X315590Y734454D01*
X315590Y738746D01*
X313947Y742712D01*
X310912Y745747D01*
X306946Y747390D01*
X302654Y747390D01*
X298688Y745747D01*
X295653Y742712D01*
X294010Y738746D01*
X294010Y734454D01*
X295653Y730488D01*
X298688Y727453D01*
X302654Y725810D01*
G37*
G36*
X838392Y723640D02*
X846808Y723640D01*
X852760Y729592D01*
X852760Y738008D01*
X846808Y743960D01*
X838392Y743960D01*
X832440Y738008D01*
X832440Y729592D01*
X838392Y723640D01*
G37*
G36*
X812992Y723640D02*
X821408Y723640D01*
X827360Y729592D01*
X827360Y738008D01*
X821408Y743960D01*
X812992Y743960D01*
X807040Y738008D01*
X807040Y729592D01*
X812992Y723640D01*
G37*
G36*
X787592Y723640D02*
X796008Y723640D01*
X801960Y729592D01*
X801960Y738008D01*
X796008Y743960D01*
X787592Y743960D01*
X781640Y738008D01*
X781640Y729592D01*
X787592Y723640D01*
G37*
G36*
X762192Y723640D02*
X770608Y723640D01*
X776560Y729592D01*
X776560Y738008D01*
X770608Y743960D01*
X762192Y743960D01*
X756240Y738008D01*
X756240Y729592D01*
X762192Y723640D01*
G37*
G36*
X609792Y495040D02*
X618208Y495040D01*
X624160Y500992D01*
X624160Y508285D01*
X624299Y509000D01*
X624718Y509632D01*
X625988Y510902D01*
X626536Y511284D01*
X627274Y511459D01*
X628022Y511332D01*
X628660Y510923D01*
X629089Y510298D01*
X629240Y509555D01*
X629240Y505962D01*
X638638Y505962D01*
X638638Y515360D01*
X635045Y515360D01*
X634387Y515477D01*
X633742Y515876D01*
X633303Y516494D01*
X633141Y517235D01*
X633280Y517980D01*
X633698Y518612D01*
X744768Y629682D01*
X745445Y631316D01*
X745445Y723088D01*
X745584Y723803D01*
X746003Y724435D01*
X751160Y729592D01*
X751160Y738008D01*
X745208Y743960D01*
X736792Y743960D01*
X730840Y738008D01*
X730840Y729592D01*
X735997Y724435D01*
X736404Y723831D01*
X736555Y723088D01*
X736555Y634830D01*
X736416Y634115D01*
X735997Y633483D01*
X618432Y515918D01*
X617828Y515511D01*
X617085Y515360D01*
X609792Y515360D01*
X603840Y509408D01*
X603840Y500992D01*
X609792Y495040D01*
G37*
G36*
X863792Y723640D02*
X872208Y723640D01*
X878160Y729592D01*
X878160Y738008D01*
X872208Y743960D01*
X863792Y743960D01*
X857840Y738008D01*
X857840Y729592D01*
X863792Y723640D01*
G37*
G36*
X705440Y734562D02*
X714838Y734562D01*
X714838Y743960D01*
X711392Y743960D01*
X705440Y738008D01*
X705440Y734562D01*
G37*
G36*
X685992Y723640D02*
X694408Y723640D01*
X700360Y729592D01*
X700360Y738008D01*
X694408Y743960D01*
X685992Y743960D01*
X680040Y738008D01*
X680040Y729592D01*
X685992Y723640D01*
G37*
G36*
X660592Y723640D02*
X669008Y723640D01*
X674960Y729592D01*
X674960Y738008D01*
X669008Y743960D01*
X660592Y743960D01*
X654640Y738008D01*
X654640Y729592D01*
X660592Y723640D01*
G37*
G36*
X629240Y734562D02*
X638638Y734562D01*
X638638Y743960D01*
X635192Y743960D01*
X629240Y738008D01*
X629240Y734562D01*
G37*
G36*
X884728Y723640D02*
X902072Y723640D01*
X903560Y725128D01*
X903560Y742472D01*
X902072Y743960D01*
X884728Y743960D01*
X883240Y742472D01*
X883240Y725128D01*
X884728Y723640D01*
G37*
G36*
X716362Y734562D02*
X725760Y734562D01*
X725760Y738008D01*
X719808Y743960D01*
X716362Y743960D01*
X716362Y734562D01*
G37*
G36*
X640162Y734562D02*
X649560Y734562D01*
X649560Y738008D01*
X643608Y743960D01*
X640162Y743960D01*
X640162Y734562D01*
G37*
G36*
X584392Y723640D02*
X592808Y723640D01*
X598760Y729592D01*
X598760Y738008D01*
X592808Y743960D01*
X584392Y743960D01*
X578440Y738008D01*
X578440Y729592D01*
X584392Y723640D01*
G37*
G36*
X558992Y723640D02*
X567408Y723640D01*
X573360Y729592D01*
X573360Y738008D01*
X567408Y743960D01*
X558992Y743960D01*
X553040Y738008D01*
X553040Y729592D01*
X558992Y723640D01*
G37*
G36*
X302654Y395610D02*
X306946Y395610D01*
X310912Y397253D01*
X313947Y400288D01*
X315590Y404254D01*
X315590Y408546D01*
X315387Y409037D01*
X315242Y409736D01*
X315381Y410481D01*
X315800Y411113D01*
X617768Y713082D01*
X618445Y714716D01*
X618445Y714920D01*
X618562Y715578D01*
X618961Y716223D01*
X619579Y716662D01*
X620320Y716824D01*
X621065Y716685D01*
X621697Y716267D01*
X655932Y682032D01*
X657566Y681355D01*
X661465Y681355D01*
X662180Y681216D01*
X662812Y680797D01*
X663169Y680441D01*
X665493Y679478D01*
X668007Y679478D01*
X670331Y680441D01*
X672109Y682219D01*
X673072Y684543D01*
X673072Y687057D01*
X672109Y689381D01*
X670331Y691159D01*
X668007Y692122D01*
X665493Y692122D01*
X663169Y691159D01*
X662812Y690803D01*
X662208Y690396D01*
X661465Y690245D01*
X661080Y690245D01*
X660365Y690384D01*
X659733Y690803D01*
X623899Y726637D01*
X623504Y727213D01*
X623342Y727954D01*
X623481Y728699D01*
X623899Y729331D01*
X624160Y729592D01*
X624160Y738008D01*
X618208Y743960D01*
X609792Y743960D01*
X603840Y738008D01*
X603840Y729592D01*
X608997Y724435D01*
X609404Y723831D01*
X609555Y723088D01*
X609555Y718230D01*
X609416Y717515D01*
X608997Y716883D01*
X317994Y425880D01*
X317459Y425504D01*
X316723Y425324D01*
X315974Y425445D01*
X315332Y425848D01*
X314899Y426470D01*
X314742Y427212D01*
X314887Y427956D01*
X315590Y429654D01*
X315590Y433946D01*
X313947Y437912D01*
X310912Y440947D01*
X306946Y442590D01*
X302654Y442590D01*
X298688Y440947D01*
X295653Y437912D01*
X294010Y433946D01*
X294010Y429654D01*
X295653Y425688D01*
X298688Y422653D01*
X302654Y421010D01*
X306946Y421010D01*
X308644Y421713D01*
X309282Y421856D01*
X310031Y421741D01*
X310676Y421342D01*
X311115Y420724D01*
X311278Y419984D01*
X311139Y419238D01*
X310720Y418606D01*
X309513Y417400D01*
X308923Y416998D01*
X308182Y416842D01*
X307437Y416987D01*
X306946Y417190D01*
X302654Y417190D01*
X298688Y415547D01*
X295653Y412512D01*
X294010Y408546D01*
X294010Y404254D01*
X295653Y400288D01*
X298688Y397253D01*
X302654Y395610D01*
G37*
G36*
X533592Y723640D02*
X542008Y723640D01*
X547960Y729592D01*
X547960Y738008D01*
X542008Y743960D01*
X533592Y743960D01*
X527640Y738008D01*
X527640Y729592D01*
X533592Y723640D01*
G37*
G36*
X508192Y723640D02*
X516608Y723640D01*
X522560Y729592D01*
X522560Y738008D01*
X516608Y743960D01*
X508192Y743960D01*
X502240Y738008D01*
X502240Y729592D01*
X508192Y723640D01*
G37*
G36*
X457392Y723640D02*
X465808Y723640D01*
X471760Y729592D01*
X471760Y738008D01*
X465808Y743960D01*
X457392Y743960D01*
X451440Y738008D01*
X451440Y729592D01*
X457392Y723640D01*
G37*
G36*
X482792Y723640D02*
X491208Y723640D01*
X497160Y729592D01*
X497160Y738008D01*
X491208Y743960D01*
X482792Y743960D01*
X476840Y738008D01*
X476840Y729592D01*
X482792Y723640D01*
G37*
G36*
X711392Y723640D02*
X714838Y723640D01*
X714838Y733038D01*
X705440Y733038D01*
X705440Y729592D01*
X711392Y723640D01*
G37*
G36*
X716362Y723640D02*
X719808Y723640D01*
X725760Y729592D01*
X725760Y733038D01*
X716362Y733038D01*
X716362Y723640D01*
G37*
G36*
X640162Y723640D02*
X643608Y723640D01*
X649560Y729592D01*
X649560Y733038D01*
X640162Y733038D01*
X640162Y723640D01*
G37*
G36*
X635192Y723640D02*
X638638Y723640D01*
X638638Y733038D01*
X629240Y733038D01*
X629240Y729592D01*
X635192Y723640D01*
G37*
G36*
X1275093Y525657D02*
X1277607Y525657D01*
X1279931Y526620D01*
X1281709Y528398D01*
X1282672Y530722D01*
X1282672Y533237D01*
X1281709Y535560D01*
X1281353Y535917D01*
X1280946Y536521D01*
X1280795Y537264D01*
X1280795Y699565D01*
X1280934Y700280D01*
X1281353Y700912D01*
X1281709Y701269D01*
X1282672Y703593D01*
X1282672Y706107D01*
X1281709Y708431D01*
X1279931Y710209D01*
X1277607Y711172D01*
X1275093Y711172D01*
X1272769Y710209D01*
X1272412Y709853D01*
X1271808Y709446D01*
X1271065Y709295D01*
X1079495Y709295D01*
X1078808Y709423D01*
X1078170Y709832D01*
X1077741Y710457D01*
X1077590Y711200D01*
X1077590Y713346D01*
X1075947Y717312D01*
X1072912Y720347D01*
X1068946Y721990D01*
X1064654Y721990D01*
X1060688Y720347D01*
X1057653Y717312D01*
X1056010Y713346D01*
X1056010Y709054D01*
X1057449Y705579D01*
X1057593Y704911D01*
X1057466Y704163D01*
X1057058Y703525D01*
X1056432Y703096D01*
X1055689Y702945D01*
X1040335Y702945D01*
X1039620Y703084D01*
X1038988Y703503D01*
X1038631Y703859D01*
X1036307Y704822D01*
X1033793Y704822D01*
X1031469Y703859D01*
X1029691Y702081D01*
X1028728Y699757D01*
X1028728Y697243D01*
X1029691Y694919D01*
X1031469Y693141D01*
X1033793Y692178D01*
X1036307Y692178D01*
X1038631Y693141D01*
X1038988Y693497D01*
X1039592Y693904D01*
X1040335Y694055D01*
X1055689Y694055D01*
X1056362Y693932D01*
X1057004Y693529D01*
X1057437Y692907D01*
X1057594Y692165D01*
X1057449Y691421D01*
X1056010Y687946D01*
X1056010Y683654D01*
X1057653Y679688D01*
X1060688Y676653D01*
X1064654Y675010D01*
X1068946Y675010D01*
X1072912Y676653D01*
X1075947Y679688D01*
X1077590Y683654D01*
X1077590Y687946D01*
X1075947Y691912D01*
X1074478Y693381D01*
X1074083Y693957D01*
X1073920Y694698D01*
X1074059Y695443D01*
X1074478Y696075D01*
X1078250Y699847D01*
X1078854Y700254D01*
X1079597Y700405D01*
X1103415Y700405D01*
X1104073Y700288D01*
X1104718Y699889D01*
X1105157Y699271D01*
X1105319Y698530D01*
X1105180Y697785D01*
X1104762Y697153D01*
X1101195Y693587D01*
X1099210Y688794D01*
X1099210Y686962D01*
X1125290Y686962D01*
X1125290Y688794D01*
X1123305Y693587D01*
X1119738Y697153D01*
X1119356Y697701D01*
X1119181Y698439D01*
X1119309Y699187D01*
X1119717Y699825D01*
X1120342Y700254D01*
X1121085Y700405D01*
X1228415Y700405D01*
X1229073Y700288D01*
X1229718Y699889D01*
X1230157Y699271D01*
X1230319Y698530D01*
X1230180Y697785D01*
X1229762Y697153D01*
X1226195Y693587D01*
X1224210Y688794D01*
X1224210Y686962D01*
X1250290Y686962D01*
X1250290Y688794D01*
X1248305Y693587D01*
X1244738Y697153D01*
X1244356Y697701D01*
X1244181Y698439D01*
X1244309Y699187D01*
X1244717Y699825D01*
X1245342Y700254D01*
X1246085Y700405D01*
X1270000Y700405D01*
X1270687Y700277D01*
X1271325Y699868D01*
X1271754Y699243D01*
X1271905Y698500D01*
X1271905Y537264D01*
X1271766Y536549D01*
X1271347Y535917D01*
X1270991Y535560D01*
X1270028Y533237D01*
X1270028Y530722D01*
X1270991Y528398D01*
X1272769Y526620D01*
X1275093Y525657D01*
G37*
G36*
X302654Y700410D02*
X306946Y700410D01*
X310912Y702053D01*
X313947Y705088D01*
X315590Y709054D01*
X315590Y713346D01*
X313947Y717312D01*
X310912Y720347D01*
X306946Y721990D01*
X302654Y721990D01*
X298688Y720347D01*
X295653Y717312D01*
X294010Y713346D01*
X294010Y709054D01*
X295653Y705088D01*
X298688Y702053D01*
X302654Y700410D01*
G37*
G36*
X302654Y675010D02*
X306946Y675010D01*
X310912Y676653D01*
X313947Y679688D01*
X315590Y683654D01*
X315590Y687946D01*
X313947Y691912D01*
X310912Y694947D01*
X306946Y696590D01*
X302654Y696590D01*
X298688Y694947D01*
X295653Y691912D01*
X294010Y687946D01*
X294010Y683654D01*
X295653Y679688D01*
X298688Y676653D01*
X302654Y675010D01*
G37*
G36*
X1238012Y673160D02*
X1239844Y673160D01*
X1244637Y675145D01*
X1248305Y678813D01*
X1250290Y683606D01*
X1250290Y685438D01*
X1238012Y685438D01*
X1238012Y673160D01*
G37*
G36*
X1234656Y673160D02*
X1236488Y673160D01*
X1236488Y685438D01*
X1224210Y685438D01*
X1224210Y683606D01*
X1226195Y678813D01*
X1229863Y675145D01*
X1234656Y673160D01*
G37*
G36*
X1113012Y673160D02*
X1114844Y673160D01*
X1119637Y675145D01*
X1123305Y678813D01*
X1125290Y683606D01*
X1125290Y685438D01*
X1113012Y685438D01*
X1113012Y673160D01*
G37*
G36*
X1109656Y673160D02*
X1111488Y673160D01*
X1111488Y685438D01*
X1099210Y685438D01*
X1099210Y683606D01*
X1101195Y678813D01*
X1104863Y675145D01*
X1109656Y673160D01*
G37*
G36*
X1064654Y649610D02*
X1068946Y649610D01*
X1072912Y651253D01*
X1075947Y654288D01*
X1077590Y658254D01*
X1077590Y662546D01*
X1075947Y666512D01*
X1072912Y669547D01*
X1068946Y671190D01*
X1064654Y671190D01*
X1060688Y669547D01*
X1057653Y666512D01*
X1056010Y662546D01*
X1056010Y658254D01*
X1057653Y654288D01*
X1060688Y651253D01*
X1064654Y649610D01*
G37*
G36*
X302654Y649610D02*
X306946Y649610D01*
X310912Y651253D01*
X313947Y654288D01*
X315590Y658254D01*
X315590Y662546D01*
X313947Y666512D01*
X310912Y669547D01*
X306946Y671190D01*
X302654Y671190D01*
X298688Y669547D01*
X295653Y666512D01*
X294010Y662546D01*
X294010Y658254D01*
X295653Y654288D01*
X298688Y651253D01*
X302654Y649610D01*
G37*
G36*
X1064654Y624210D02*
X1068946Y624210D01*
X1072912Y625853D01*
X1075947Y628888D01*
X1077590Y632854D01*
X1077590Y637146D01*
X1075947Y641112D01*
X1072912Y644147D01*
X1068946Y645790D01*
X1064654Y645790D01*
X1060688Y644147D01*
X1057653Y641112D01*
X1056010Y637146D01*
X1056010Y632854D01*
X1057653Y628888D01*
X1060688Y625853D01*
X1064654Y624210D01*
G37*
G36*
X302654Y624210D02*
X306946Y624210D01*
X310912Y625853D01*
X313947Y628888D01*
X315590Y632854D01*
X315590Y637146D01*
X313947Y641112D01*
X310912Y644147D01*
X306946Y645790D01*
X302654Y645790D01*
X298688Y644147D01*
X295653Y641112D01*
X294010Y637146D01*
X294010Y632854D01*
X295653Y628888D01*
X298688Y625853D01*
X302654Y624210D01*
G37*
G36*
X1064654Y598810D02*
X1068946Y598810D01*
X1072912Y600453D01*
X1075947Y603488D01*
X1077590Y607454D01*
X1077590Y611746D01*
X1075947Y615712D01*
X1072912Y618747D01*
X1068946Y620390D01*
X1064654Y620390D01*
X1060688Y618747D01*
X1057653Y615712D01*
X1056010Y611746D01*
X1056010Y607454D01*
X1057653Y603488D01*
X1060688Y600453D01*
X1064654Y598810D01*
G37*
G36*
X302654Y598810D02*
X306946Y598810D01*
X310912Y600453D01*
X313947Y603488D01*
X315590Y607454D01*
X315590Y611746D01*
X313947Y615712D01*
X310912Y618747D01*
X306946Y620390D01*
X302654Y620390D01*
X298688Y618747D01*
X295653Y615712D01*
X294010Y611746D01*
X294010Y607454D01*
X295653Y603488D01*
X298688Y600453D01*
X302654Y598810D01*
G37*
G36*
X1064654Y573410D02*
X1068946Y573410D01*
X1072912Y575053D01*
X1075947Y578088D01*
X1077590Y582054D01*
X1077590Y586346D01*
X1075947Y590312D01*
X1072912Y593347D01*
X1068946Y594990D01*
X1064654Y594990D01*
X1060688Y593347D01*
X1057653Y590312D01*
X1056010Y586346D01*
X1056010Y582054D01*
X1057653Y578088D01*
X1060688Y575053D01*
X1064654Y573410D01*
G37*
G36*
X302654Y573410D02*
X306946Y573410D01*
X310912Y575053D01*
X313947Y578088D01*
X315590Y582054D01*
X315590Y586346D01*
X313947Y590312D01*
X310912Y593347D01*
X306946Y594990D01*
X302654Y594990D01*
X298688Y593347D01*
X295653Y590312D01*
X294010Y586346D01*
X294010Y582054D01*
X295653Y578088D01*
X298688Y575053D01*
X302654Y573410D01*
G37*
G36*
X1239634Y558060D02*
X1244822Y558060D01*
X1249615Y560045D01*
X1253283Y563713D01*
X1255268Y568506D01*
X1255268Y573694D01*
X1253283Y578487D01*
X1249615Y582155D01*
X1244822Y584140D01*
X1239634Y584140D01*
X1234841Y582155D01*
X1231173Y578487D01*
X1229188Y573694D01*
X1229188Y568506D01*
X1231173Y563713D01*
X1234841Y560045D01*
X1239634Y558060D01*
G37*
G36*
X1114634Y558060D02*
X1119822Y558060D01*
X1124615Y560045D01*
X1128283Y563713D01*
X1130268Y568506D01*
X1130268Y573694D01*
X1128283Y578487D01*
X1124615Y582155D01*
X1119822Y584140D01*
X1114634Y584140D01*
X1109841Y582155D01*
X1106173Y578487D01*
X1104188Y573694D01*
X1104188Y568506D01*
X1106173Y563713D01*
X1109841Y560045D01*
X1114634Y558060D01*
G37*
G36*
X302654Y548010D02*
X306946Y548010D01*
X310912Y549653D01*
X313947Y552688D01*
X315590Y556654D01*
X315590Y560946D01*
X313947Y564912D01*
X310912Y567947D01*
X306946Y569590D01*
X302654Y569590D01*
X298688Y567947D01*
X295653Y564912D01*
X294010Y560946D01*
X294010Y556654D01*
X295653Y552688D01*
X298688Y549653D01*
X302654Y548010D01*
G37*
G36*
X1064654Y548010D02*
X1068946Y548010D01*
X1072912Y549653D01*
X1075947Y552688D01*
X1077590Y556654D01*
X1077590Y560946D01*
X1075947Y564912D01*
X1072912Y567947D01*
X1068946Y569590D01*
X1064654Y569590D01*
X1060688Y567947D01*
X1057653Y564912D01*
X1056010Y560946D01*
X1056010Y556654D01*
X1057653Y552688D01*
X1060688Y549653D01*
X1064654Y548010D01*
G37*
G36*
X302654Y522610D02*
X306946Y522610D01*
X310912Y524253D01*
X313947Y527288D01*
X315590Y531254D01*
X315590Y535546D01*
X313947Y539512D01*
X310912Y542547D01*
X306946Y544190D01*
X302654Y544190D01*
X298688Y542547D01*
X295653Y539512D01*
X294010Y535546D01*
X294010Y531254D01*
X295653Y527288D01*
X298688Y524253D01*
X302654Y522610D01*
G37*
G36*
X1064654Y522610D02*
X1068946Y522610D01*
X1072912Y524253D01*
X1075947Y527288D01*
X1077590Y531254D01*
X1077590Y535546D01*
X1075947Y539512D01*
X1072912Y542547D01*
X1068946Y544190D01*
X1064654Y544190D01*
X1060688Y542547D01*
X1057653Y539512D01*
X1056010Y535546D01*
X1056010Y531254D01*
X1057653Y527288D01*
X1060688Y524253D01*
X1064654Y522610D01*
G37*
G36*
X1104188Y521862D02*
X1116466Y521862D01*
X1116466Y534140D01*
X1114634Y534140D01*
X1109841Y532155D01*
X1106173Y528487D01*
X1104188Y523694D01*
X1104188Y521862D01*
G37*
G36*
X1229188Y521862D02*
X1241466Y521862D01*
X1241466Y534140D01*
X1239634Y534140D01*
X1234841Y532155D01*
X1231173Y528487D01*
X1229188Y523694D01*
X1229188Y521862D01*
G37*
G36*
X1242990Y521862D02*
X1255268Y521862D01*
X1255268Y523694D01*
X1253283Y528487D01*
X1249615Y532155D01*
X1244822Y534140D01*
X1242990Y534140D01*
X1242990Y521862D01*
G37*
G36*
X1117990Y521862D02*
X1130268Y521862D01*
X1130268Y523694D01*
X1128283Y528487D01*
X1124615Y532155D01*
X1119822Y534140D01*
X1117990Y534140D01*
X1117990Y521862D01*
G37*
G36*
X1114634Y508060D02*
X1116466Y508060D01*
X1116466Y520338D01*
X1104188Y520338D01*
X1104188Y518506D01*
X1106173Y513713D01*
X1109841Y510045D01*
X1114634Y508060D01*
G37*
G36*
X1117990Y508060D02*
X1119822Y508060D01*
X1124615Y510045D01*
X1128283Y513713D01*
X1130268Y518506D01*
X1130268Y520338D01*
X1117990Y520338D01*
X1117990Y508060D01*
G37*
G36*
X1242990Y508060D02*
X1244822Y508060D01*
X1249615Y510045D01*
X1253283Y513713D01*
X1255268Y518506D01*
X1255268Y520338D01*
X1242990Y520338D01*
X1242990Y508060D01*
G37*
G36*
X1239634Y508060D02*
X1241466Y508060D01*
X1241466Y520338D01*
X1229188Y520338D01*
X1229188Y518506D01*
X1231173Y513713D01*
X1234841Y510045D01*
X1239634Y508060D01*
G37*
G36*
X1064654Y497210D02*
X1068946Y497210D01*
X1072912Y498853D01*
X1075947Y501888D01*
X1077590Y505854D01*
X1077590Y510146D01*
X1075947Y514112D01*
X1072912Y517147D01*
X1068946Y518790D01*
X1064654Y518790D01*
X1060688Y517147D01*
X1057653Y514112D01*
X1056010Y510146D01*
X1056010Y505854D01*
X1057653Y501888D01*
X1060688Y498853D01*
X1064654Y497210D01*
G37*
G36*
X302654Y497210D02*
X306946Y497210D01*
X310912Y498853D01*
X313947Y501888D01*
X315590Y505854D01*
X315590Y510146D01*
X313947Y514112D01*
X310912Y517147D01*
X306946Y518790D01*
X302654Y518790D01*
X298688Y517147D01*
X295653Y514112D01*
X294010Y510146D01*
X294010Y505854D01*
X295653Y501888D01*
X298688Y498853D01*
X302654Y497210D01*
G37*
G36*
X558992Y495040D02*
X567408Y495040D01*
X573360Y500992D01*
X573360Y509408D01*
X567408Y515360D01*
X558992Y515360D01*
X553040Y509408D01*
X553040Y500992D01*
X558992Y495040D01*
G37*
G36*
X584392Y495040D02*
X592808Y495040D01*
X598760Y500992D01*
X598760Y509408D01*
X592808Y515360D01*
X584392Y515360D01*
X578440Y509408D01*
X578440Y500992D01*
X584392Y495040D01*
G37*
G36*
X416695Y307420D02*
X420705Y307420D01*
X424410Y308955D01*
X427245Y311790D01*
X427282Y311879D01*
X427674Y312475D01*
X428299Y312904D01*
X429042Y313055D01*
X521285Y313055D01*
X522919Y313732D01*
X681062Y471875D01*
X681639Y472270D01*
X682379Y472433D01*
X683124Y472294D01*
X683756Y471875D01*
X685992Y469640D01*
X694408Y469640D01*
X700360Y475592D01*
X700360Y484008D01*
X694062Y490307D01*
X693666Y490883D01*
X693504Y491624D01*
X693643Y492369D01*
X693916Y492781D01*
X694665Y494589D01*
X694784Y495203D01*
X695203Y495835D01*
X696015Y496647D01*
X696619Y497054D01*
X697362Y497205D01*
X700894Y497205D01*
X701609Y497066D01*
X702241Y496647D01*
X708697Y490191D01*
X708786Y490134D01*
X709224Y489515D01*
X709387Y488775D01*
X709248Y488030D01*
X708829Y487398D01*
X705440Y484008D01*
X705440Y475592D01*
X711392Y469640D01*
X719808Y469640D01*
X725760Y475592D01*
X725760Y484008D01*
X723314Y486454D01*
X722932Y487002D01*
X722757Y487740D01*
X722885Y488488D01*
X723293Y489126D01*
X723918Y489555D01*
X724661Y489706D01*
X731939Y489706D01*
X732597Y489589D01*
X733242Y489190D01*
X733681Y488572D01*
X733843Y487831D01*
X733704Y487086D01*
X733286Y486454D01*
X730840Y484008D01*
X730840Y475592D01*
X736792Y469640D01*
X745208Y469640D01*
X751160Y475592D01*
X751160Y484008D01*
X748714Y486454D01*
X748332Y487002D01*
X748157Y487740D01*
X748285Y488488D01*
X748693Y489126D01*
X749318Y489555D01*
X750061Y489706D01*
X757339Y489706D01*
X757997Y489589D01*
X758642Y489190D01*
X759081Y488572D01*
X759243Y487831D01*
X759104Y487086D01*
X758686Y486454D01*
X756240Y484008D01*
X756240Y475592D01*
X762192Y469640D01*
X770608Y469640D01*
X776560Y475592D01*
X776560Y484008D01*
X774114Y486454D01*
X773732Y487002D01*
X773557Y487740D01*
X773685Y488488D01*
X774093Y489126D01*
X774718Y489555D01*
X775461Y489706D01*
X782739Y489706D01*
X783397Y489589D01*
X784042Y489190D01*
X784481Y488572D01*
X784643Y487831D01*
X784504Y487086D01*
X784086Y486454D01*
X781640Y484008D01*
X781640Y475592D01*
X787592Y469640D01*
X796008Y469640D01*
X801960Y475592D01*
X801960Y484008D01*
X799514Y486454D01*
X799132Y487002D01*
X798957Y487740D01*
X799085Y488488D01*
X799493Y489126D01*
X800118Y489555D01*
X800861Y489706D01*
X808139Y489706D01*
X808797Y489589D01*
X809442Y489190D01*
X809881Y488572D01*
X810043Y487831D01*
X809904Y487086D01*
X809486Y486454D01*
X807040Y484008D01*
X807040Y475592D01*
X812992Y469640D01*
X821408Y469640D01*
X827360Y475592D01*
X827360Y484008D01*
X824914Y486454D01*
X824532Y487002D01*
X824357Y487740D01*
X824485Y488488D01*
X824893Y489126D01*
X825518Y489555D01*
X826261Y489706D01*
X833539Y489706D01*
X834197Y489589D01*
X834842Y489190D01*
X835281Y488572D01*
X835443Y487831D01*
X835304Y487086D01*
X834886Y486454D01*
X832440Y484008D01*
X832440Y475592D01*
X838392Y469640D01*
X846808Y469640D01*
X852760Y475592D01*
X852760Y484008D01*
X850314Y486454D01*
X849932Y487002D01*
X849757Y487740D01*
X849885Y488488D01*
X850293Y489126D01*
X850918Y489555D01*
X851661Y489706D01*
X858939Y489706D01*
X859597Y489589D01*
X860242Y489190D01*
X860681Y488572D01*
X860843Y487831D01*
X860704Y487086D01*
X860286Y486454D01*
X857840Y484008D01*
X857840Y475592D01*
X863792Y469640D01*
X872208Y469640D01*
X878160Y475592D01*
X878160Y484008D01*
X875714Y486454D01*
X875332Y487002D01*
X875157Y487740D01*
X875285Y488488D01*
X875693Y489126D01*
X876318Y489555D01*
X877061Y489706D01*
X881335Y489706D01*
X882022Y489578D01*
X882660Y489169D01*
X883089Y488544D01*
X883240Y487801D01*
X883240Y471128D01*
X884728Y469640D01*
X902072Y469640D01*
X903560Y471128D01*
X903560Y487801D01*
X903688Y488488D01*
X904097Y489126D01*
X904722Y489555D01*
X905465Y489706D01*
X906569Y489706D01*
X907284Y489567D01*
X907916Y489148D01*
X909397Y487667D01*
X909804Y487063D01*
X909955Y486320D01*
X909955Y412054D01*
X910632Y410420D01*
X984449Y336603D01*
X984825Y336068D01*
X985005Y335332D01*
X984884Y334583D01*
X984481Y333941D01*
X983859Y333508D01*
X983117Y333351D01*
X982373Y333496D01*
X979905Y334518D01*
X975895Y334518D01*
X972190Y332983D01*
X969355Y330148D01*
X967820Y326443D01*
X967820Y322433D01*
X969355Y318728D01*
X972190Y315893D01*
X975895Y314358D01*
X979905Y314358D01*
X983610Y315893D01*
X986445Y318728D01*
X987980Y322433D01*
X987980Y326443D01*
X986958Y328911D01*
X986815Y329549D01*
X986930Y330298D01*
X987328Y330943D01*
X987947Y331382D01*
X988687Y331545D01*
X989433Y331406D01*
X990065Y330987D01*
X992444Y328608D01*
X992845Y328018D01*
X993002Y327276D01*
X992857Y326532D01*
X992820Y326443D01*
X992820Y322433D01*
X994355Y318728D01*
X997190Y315893D01*
X1000895Y314358D01*
X1004905Y314358D01*
X1008610Y315893D01*
X1011445Y318728D01*
X1012980Y322433D01*
X1012980Y326443D01*
X1011445Y330148D01*
X1008610Y332983D01*
X1004905Y334518D01*
X1000895Y334518D01*
X1000806Y334481D01*
X1000107Y334336D01*
X999362Y334475D01*
X998730Y334894D01*
X919403Y414221D01*
X918996Y414825D01*
X918845Y415568D01*
X918845Y489834D01*
X918168Y491468D01*
X911717Y497919D01*
X910083Y498596D01*
X905465Y498596D01*
X904778Y498724D01*
X904140Y499133D01*
X903711Y499758D01*
X903560Y500501D01*
X903560Y509408D01*
X897608Y515360D01*
X889192Y515360D01*
X883240Y509408D01*
X883240Y500501D01*
X883112Y499814D01*
X882703Y499176D01*
X882078Y498747D01*
X881335Y498596D01*
X880065Y498596D01*
X879378Y498724D01*
X878740Y499133D01*
X878311Y499758D01*
X878160Y500501D01*
X878160Y509408D01*
X872208Y515360D01*
X863792Y515360D01*
X857840Y509408D01*
X857840Y500501D01*
X857712Y499814D01*
X857303Y499176D01*
X856678Y498747D01*
X855935Y498596D01*
X854665Y498596D01*
X853978Y498724D01*
X853340Y499133D01*
X852911Y499758D01*
X852760Y500501D01*
X852760Y509408D01*
X846808Y515360D01*
X838392Y515360D01*
X832440Y509408D01*
X832440Y500501D01*
X832312Y499814D01*
X831903Y499176D01*
X831278Y498747D01*
X830535Y498596D01*
X829265Y498596D01*
X828578Y498724D01*
X827940Y499133D01*
X827511Y499758D01*
X827360Y500501D01*
X827360Y509408D01*
X821408Y515360D01*
X812992Y515360D01*
X807040Y509408D01*
X807040Y500501D01*
X806912Y499814D01*
X806503Y499176D01*
X805878Y498747D01*
X805135Y498596D01*
X803865Y498596D01*
X803178Y498724D01*
X802540Y499133D01*
X802111Y499758D01*
X801960Y500501D01*
X801960Y509408D01*
X796008Y515360D01*
X787592Y515360D01*
X781640Y509408D01*
X781640Y500501D01*
X781512Y499814D01*
X781103Y499176D01*
X780478Y498747D01*
X779735Y498596D01*
X778465Y498596D01*
X777778Y498724D01*
X777140Y499133D01*
X776711Y499758D01*
X776560Y500501D01*
X776560Y509408D01*
X770608Y515360D01*
X762192Y515360D01*
X756240Y509408D01*
X756240Y500501D01*
X756112Y499814D01*
X755703Y499176D01*
X755078Y498747D01*
X754335Y498596D01*
X753065Y498596D01*
X752378Y498724D01*
X751740Y499133D01*
X751311Y499758D01*
X751160Y500501D01*
X751160Y509408D01*
X745208Y515360D01*
X736792Y515360D01*
X730840Y509408D01*
X730840Y500501D01*
X730712Y499814D01*
X730303Y499176D01*
X729678Y498747D01*
X728935Y498596D01*
X727665Y498596D01*
X726978Y498724D01*
X726340Y499133D01*
X725911Y499758D01*
X725760Y500501D01*
X725760Y504438D01*
X714838Y504438D01*
X714838Y515360D01*
X711392Y515360D01*
X705440Y509408D01*
X705440Y508000D01*
X705312Y507313D01*
X704903Y506675D01*
X704278Y506246D01*
X703535Y506095D01*
X702265Y506095D01*
X701578Y506223D01*
X700940Y506632D01*
X700511Y507257D01*
X700360Y508000D01*
X700360Y509408D01*
X694408Y515360D01*
X685992Y515360D01*
X680040Y509408D01*
X680040Y500992D01*
X683413Y497619D01*
X683808Y497043D01*
X683971Y496302D01*
X683832Y495557D01*
X683413Y494925D01*
X675191Y486703D01*
X675134Y486614D01*
X674515Y486176D01*
X673775Y486013D01*
X673030Y486152D01*
X672398Y486571D01*
X669008Y489960D01*
X660592Y489960D01*
X654640Y484008D01*
X654640Y475592D01*
X660592Y469640D01*
X661656Y469640D01*
X662314Y469523D01*
X662959Y469124D01*
X663398Y468506D01*
X663560Y467765D01*
X663421Y467020D01*
X663003Y466388D01*
X519118Y322503D01*
X518514Y322096D01*
X517771Y321945D01*
X429042Y321945D01*
X428341Y322079D01*
X427706Y322492D01*
X427282Y323121D01*
X427245Y323210D01*
X424410Y326045D01*
X420705Y327580D01*
X416695Y327580D01*
X412990Y326045D01*
X410155Y323210D01*
X408620Y319505D01*
X408620Y315495D01*
X410155Y311790D01*
X412990Y308955D01*
X416695Y307420D01*
G37*
G36*
X640162Y505962D02*
X649560Y505962D01*
X649560Y509408D01*
X643608Y515360D01*
X640162Y515360D01*
X640162Y505962D01*
G37*
G36*
X457392Y495040D02*
X465808Y495040D01*
X471760Y500992D01*
X471760Y509408D01*
X465808Y515360D01*
X457392Y515360D01*
X451440Y509408D01*
X451440Y500992D01*
X457392Y495040D01*
G37*
G36*
X660592Y495040D02*
X669008Y495040D01*
X674960Y500992D01*
X674960Y509408D01*
X669008Y515360D01*
X660592Y515360D01*
X654640Y509408D01*
X654640Y500992D01*
X660592Y495040D01*
G37*
G36*
X533592Y495040D02*
X542008Y495040D01*
X547960Y500992D01*
X547960Y509408D01*
X542008Y515360D01*
X533592Y515360D01*
X527640Y509408D01*
X527640Y500992D01*
X533592Y495040D01*
G37*
G36*
X508192Y495040D02*
X516608Y495040D01*
X522560Y500992D01*
X522560Y509408D01*
X516608Y515360D01*
X508192Y515360D01*
X502240Y509408D01*
X502240Y500992D01*
X508192Y495040D01*
G37*
G36*
X482792Y495040D02*
X491208Y495040D01*
X497160Y500992D01*
X497160Y509408D01*
X491208Y515360D01*
X482792Y515360D01*
X476840Y509408D01*
X476840Y500992D01*
X482792Y495040D01*
G37*
G36*
X716362Y505962D02*
X725760Y505962D01*
X725760Y509408D01*
X719808Y515360D01*
X716362Y515360D01*
X716362Y505962D01*
G37*
G36*
X640162Y495040D02*
X643608Y495040D01*
X649560Y500992D01*
X649560Y504438D01*
X640162Y504438D01*
X640162Y495040D01*
G37*
G36*
X635192Y495040D02*
X638638Y495040D01*
X638638Y504438D01*
X629240Y504438D01*
X629240Y500992D01*
X635192Y495040D01*
G37*
G36*
X302654Y471810D02*
X306946Y471810D01*
X310912Y473453D01*
X313947Y476488D01*
X315590Y480454D01*
X315590Y484746D01*
X313947Y488712D01*
X310912Y491747D01*
X306946Y493390D01*
X302654Y493390D01*
X298688Y491747D01*
X295653Y488712D01*
X294010Y484746D01*
X294010Y480454D01*
X295653Y476488D01*
X298688Y473453D01*
X302654Y471810D01*
G37*
G36*
X1064654Y471810D02*
X1068946Y471810D01*
X1072912Y473453D01*
X1075947Y476488D01*
X1077590Y480454D01*
X1077590Y484746D01*
X1075947Y488712D01*
X1072912Y491747D01*
X1068946Y493390D01*
X1064654Y493390D01*
X1060688Y491747D01*
X1057653Y488712D01*
X1056010Y484746D01*
X1056010Y480454D01*
X1057653Y476488D01*
X1060688Y473453D01*
X1064654Y471810D01*
G37*
G36*
X635192Y469640D02*
X643608Y469640D01*
X649560Y475592D01*
X649560Y484008D01*
X643608Y489960D01*
X635192Y489960D01*
X629240Y484008D01*
X629240Y475592D01*
X635192Y469640D01*
G37*
G36*
X609792Y469640D02*
X618208Y469640D01*
X624160Y475592D01*
X624160Y484008D01*
X618208Y489960D01*
X609792Y489960D01*
X603840Y484008D01*
X603840Y475592D01*
X609792Y469640D01*
G37*
G36*
X558992Y469640D02*
X567408Y469640D01*
X573360Y475592D01*
X573360Y484008D01*
X567408Y489960D01*
X558992Y489960D01*
X553040Y484008D01*
X553040Y475592D01*
X558992Y469640D01*
G37*
G36*
X584392Y469640D02*
X592808Y469640D01*
X598760Y475592D01*
X598760Y484008D01*
X592808Y489960D01*
X584392Y489960D01*
X578440Y484008D01*
X578440Y475592D01*
X584392Y469640D01*
G37*
G36*
X482792Y469640D02*
X491208Y469640D01*
X497160Y475592D01*
X497160Y484008D01*
X491208Y489960D01*
X482792Y489960D01*
X476840Y484008D01*
X476840Y475592D01*
X482792Y469640D01*
G37*
G36*
X508192Y469640D02*
X516608Y469640D01*
X522560Y475592D01*
X522560Y484008D01*
X516608Y489960D01*
X508192Y489960D01*
X502240Y484008D01*
X502240Y475592D01*
X508192Y469640D01*
G37*
G36*
X457392Y469640D02*
X465808Y469640D01*
X471760Y475592D01*
X471760Y484008D01*
X465808Y489960D01*
X457392Y489960D01*
X451440Y484008D01*
X451440Y475592D01*
X457392Y469640D01*
G37*
G36*
X533592Y469640D02*
X542008Y469640D01*
X547960Y475592D01*
X547960Y484008D01*
X542008Y489960D01*
X533592Y489960D01*
X527640Y484008D01*
X527640Y475592D01*
X533592Y469640D01*
G37*
G36*
X302654Y446410D02*
X306946Y446410D01*
X310912Y448053D01*
X313947Y451088D01*
X315590Y455054D01*
X315590Y459346D01*
X313947Y463312D01*
X310912Y466347D01*
X306946Y467990D01*
X302654Y467990D01*
X298688Y466347D01*
X295653Y463312D01*
X294010Y459346D01*
X294010Y455054D01*
X295653Y451088D01*
X298688Y448053D01*
X302654Y446410D01*
G37*
G36*
X1064654Y446410D02*
X1068946Y446410D01*
X1072912Y448053D01*
X1075947Y451088D01*
X1077590Y455054D01*
X1077590Y459346D01*
X1075947Y463312D01*
X1072912Y466347D01*
X1068946Y467990D01*
X1064654Y467990D01*
X1060688Y466347D01*
X1057653Y463312D01*
X1056010Y459346D01*
X1056010Y455054D01*
X1057653Y451088D01*
X1060688Y448053D01*
X1064654Y446410D01*
G37*
G36*
X1064654Y421010D02*
X1068946Y421010D01*
X1072912Y422653D01*
X1075947Y425688D01*
X1077590Y429654D01*
X1077590Y433946D01*
X1075947Y437912D01*
X1072912Y440947D01*
X1068946Y442590D01*
X1064654Y442590D01*
X1060688Y440947D01*
X1057653Y437912D01*
X1056010Y433946D01*
X1056010Y429654D01*
X1057653Y425688D01*
X1060688Y422653D01*
X1064654Y421010D01*
G37*
G36*
X765875Y409180D02*
X769725Y409180D01*
X773283Y410654D01*
X776006Y413377D01*
X776040Y413458D01*
X776400Y414021D01*
X777015Y414465D01*
X777754Y414634D01*
X778501Y414500D01*
X779136Y414087D01*
X779560Y413458D01*
X779594Y413377D01*
X782317Y410654D01*
X785875Y409180D01*
X789725Y409180D01*
X793283Y410654D01*
X796006Y413377D01*
X797480Y416935D01*
X797480Y420785D01*
X796006Y424343D01*
X793283Y427066D01*
X789725Y428540D01*
X785875Y428540D01*
X782317Y427066D01*
X779594Y424343D01*
X779560Y424262D01*
X779200Y423699D01*
X778585Y423255D01*
X777846Y423086D01*
X777099Y423220D01*
X776464Y423633D01*
X776040Y424262D01*
X776006Y424343D01*
X773283Y427066D01*
X769725Y428540D01*
X765875Y428540D01*
X762317Y427066D01*
X759594Y424343D01*
X758120Y420785D01*
X758120Y416935D01*
X759594Y413377D01*
X762317Y410654D01*
X765875Y409180D01*
G37*
G36*
X733120Y419622D02*
X742038Y419622D01*
X742038Y428540D01*
X740875Y428540D01*
X737317Y427066D01*
X734594Y424343D01*
X733120Y420785D01*
X733120Y419622D01*
G37*
G36*
X804608Y409180D02*
X820992Y409180D01*
X822480Y410668D01*
X822480Y427052D01*
X820992Y428540D01*
X804608Y428540D01*
X803120Y427052D01*
X803120Y410668D01*
X804608Y409180D01*
G37*
G36*
X743562Y419622D02*
X752480Y419622D01*
X752480Y420785D01*
X751006Y424343D01*
X748283Y427066D01*
X744725Y428540D01*
X743562Y428540D01*
X743562Y419622D01*
G37*
G36*
X743562Y409180D02*
X744725Y409180D01*
X748283Y410654D01*
X751006Y413377D01*
X752480Y416935D01*
X752480Y418098D01*
X743562Y418098D01*
X743562Y409180D01*
G37*
G36*
X740875Y409180D02*
X742038Y409180D01*
X742038Y418098D01*
X733120Y418098D01*
X733120Y416935D01*
X734594Y413377D01*
X737317Y410654D01*
X740875Y409180D01*
G37*
G36*
X1064654Y395610D02*
X1068946Y395610D01*
X1072912Y397253D01*
X1075947Y400288D01*
X1077590Y404254D01*
X1077590Y408546D01*
X1075947Y412512D01*
X1072912Y415547D01*
X1068946Y417190D01*
X1064654Y417190D01*
X1060688Y415547D01*
X1057653Y412512D01*
X1056010Y408546D01*
X1056010Y404254D01*
X1057653Y400288D01*
X1060688Y397253D01*
X1064654Y395610D01*
G37*
G36*
X824380Y392522D02*
X842738Y392522D01*
X842738Y410880D01*
X839697Y410880D01*
X832669Y407969D01*
X827291Y402591D01*
X824380Y395563D01*
X824380Y392522D01*
G37*
G36*
X692980Y392522D02*
X711338Y392522D01*
X711338Y410880D01*
X708297Y410880D01*
X701269Y407969D01*
X695891Y402591D01*
X692980Y395563D01*
X692980Y392522D01*
G37*
G36*
X712862Y392522D02*
X731220Y392522D01*
X731220Y395563D01*
X728309Y402591D01*
X722931Y407969D01*
X715903Y410880D01*
X712862Y410880D01*
X712862Y392522D01*
G37*
G36*
X844262Y392522D02*
X862620Y392522D01*
X862620Y395563D01*
X859709Y402591D01*
X854331Y407969D01*
X847303Y410880D01*
X844262Y410880D01*
X844262Y392522D01*
G37*
G36*
X1067562Y381762D02*
X1077590Y381762D01*
X1077590Y383146D01*
X1075947Y387112D01*
X1072912Y390147D01*
X1068946Y391790D01*
X1067562Y391790D01*
X1067562Y381762D01*
G37*
G36*
X1056010Y381762D02*
X1066038Y381762D01*
X1066038Y391790D01*
X1064654Y391790D01*
X1060688Y390147D01*
X1057653Y387112D01*
X1056010Y383146D01*
X1056010Y381762D01*
G37*
G36*
X294010Y381762D02*
X304038Y381762D01*
X304038Y391790D01*
X302654Y391790D01*
X298688Y390147D01*
X295653Y387112D01*
X294010Y383146D01*
X294010Y381762D01*
G37*
G36*
X305562Y381762D02*
X315590Y381762D01*
X315590Y383146D01*
X313947Y387112D01*
X310912Y390147D01*
X306946Y391790D01*
X305562Y391790D01*
X305562Y381762D01*
G37*
G36*
X844262Y372640D02*
X847303Y372640D01*
X854331Y375551D01*
X859709Y380929D01*
X862620Y387957D01*
X862620Y390998D01*
X844262Y390998D01*
X844262Y372640D01*
G37*
G36*
X839697Y372640D02*
X842738Y372640D01*
X842738Y390998D01*
X824380Y390998D01*
X824380Y387957D01*
X827291Y380929D01*
X832669Y375551D01*
X839697Y372640D01*
G37*
G36*
X712862Y372640D02*
X715903Y372640D01*
X722931Y375551D01*
X728309Y380929D01*
X731220Y387957D01*
X731220Y390998D01*
X712862Y390998D01*
X712862Y372640D01*
G37*
G36*
X708297Y372640D02*
X711338Y372640D01*
X711338Y390998D01*
X692980Y390998D01*
X692980Y387957D01*
X695891Y380929D01*
X701269Y375551D01*
X708297Y372640D01*
G37*
G36*
X302654Y370210D02*
X304038Y370210D01*
X304038Y380238D01*
X294010Y380238D01*
X294010Y378854D01*
X295653Y374888D01*
X298688Y371853D01*
X302654Y370210D01*
G37*
G36*
X305562Y370210D02*
X306946Y370210D01*
X310912Y371853D01*
X313947Y374888D01*
X315590Y378854D01*
X315590Y380238D01*
X305562Y380238D01*
X305562Y370210D01*
G37*
G36*
X1064654Y370210D02*
X1066038Y370210D01*
X1066038Y380238D01*
X1056010Y380238D01*
X1056010Y378854D01*
X1057653Y374888D01*
X1060688Y371853D01*
X1064654Y370210D01*
G37*
G36*
X1067562Y370210D02*
X1068946Y370210D01*
X1072912Y371853D01*
X1075947Y374888D01*
X1077590Y378854D01*
X1077590Y380238D01*
X1067562Y380238D01*
X1067562Y370210D01*
G37*
G36*
X950895Y314358D02*
X954905Y314358D01*
X958610Y315893D01*
X961445Y318728D01*
X962980Y322433D01*
X962980Y326443D01*
X961445Y330148D01*
X958610Y332983D01*
X954905Y334518D01*
X950895Y334518D01*
X947190Y332983D01*
X944355Y330148D01*
X942820Y326443D01*
X942820Y322433D01*
X944355Y318728D01*
X947190Y315893D01*
X950895Y314358D01*
G37*
G36*
X391695Y307420D02*
X395705Y307420D01*
X399410Y308955D01*
X402245Y311790D01*
X403780Y315495D01*
X403780Y319505D01*
X402245Y323210D01*
X399410Y326045D01*
X395705Y327580D01*
X391695Y327580D01*
X387990Y326045D01*
X385155Y323210D01*
X383620Y319505D01*
X383620Y315495D01*
X385155Y311790D01*
X387990Y308955D01*
X391695Y307420D01*
G37*
G36*
X366695Y307420D02*
X370705Y307420D01*
X374410Y308955D01*
X377245Y311790D01*
X378780Y315495D01*
X378780Y319505D01*
X377245Y323210D01*
X374410Y326045D01*
X370705Y327580D01*
X366695Y327580D01*
X362990Y326045D01*
X360155Y323210D01*
X358620Y319505D01*
X358620Y315495D01*
X360155Y311790D01*
X362990Y308955D01*
X366695Y307420D01*
G37*
G36*
X1023393Y231778D02*
X1032407Y231778D01*
X1040736Y235228D01*
X1047110Y241602D01*
X1050560Y249931D01*
X1050560Y258945D01*
X1047110Y267274D01*
X1040736Y273648D01*
X1032407Y277098D01*
X1023393Y277098D01*
X1015064Y273648D01*
X1008690Y267274D01*
X1005240Y258945D01*
X1005240Y249931D01*
X1008690Y241602D01*
X1015064Y235228D01*
X1023393Y231778D01*
G37*
G36*
X923393Y231778D02*
X932407Y231778D01*
X940736Y235228D01*
X947110Y241602D01*
X950560Y249931D01*
X950560Y258945D01*
X947110Y267274D01*
X940736Y273648D01*
X932407Y277098D01*
X923393Y277098D01*
X915064Y273648D01*
X908690Y267274D01*
X905240Y258945D01*
X905240Y249931D01*
X908690Y241602D01*
X915064Y235228D01*
X923393Y231778D01*
G37*
G36*
X439193Y224840D02*
X448207Y224840D01*
X456536Y228290D01*
X462910Y234664D01*
X466360Y242993D01*
X466360Y252007D01*
X462910Y260336D01*
X456536Y266710D01*
X448207Y270160D01*
X439193Y270160D01*
X430864Y266710D01*
X424490Y260336D01*
X421040Y252007D01*
X421040Y242993D01*
X424490Y234664D01*
X430864Y228290D01*
X439193Y224840D01*
G37*
G36*
X339193Y224840D02*
X348207Y224840D01*
X356536Y228290D01*
X362910Y234664D01*
X366360Y242993D01*
X366360Y252007D01*
X362910Y260336D01*
X356536Y266710D01*
X348207Y270160D01*
X339193Y270160D01*
X330864Y266710D01*
X324490Y260336D01*
X321040Y252007D01*
X321040Y242993D01*
X324490Y234664D01*
X330864Y228290D01*
X339193Y224840D01*
G37*
%LPD*%
D10*
X812800Y418860D03*
D11*
X787800Y418860D03*
X767800Y418860D03*
X742800Y418860D03*
D12*
X843500Y391760D03*
X712100Y391760D03*
D13*
X418700Y317500D03*
X393700Y317500D03*
X368700Y317500D03*
X1002900Y324438D03*
X977900Y324438D03*
X952900Y324438D03*
D14*
X1237250Y736200D03*
X1237250Y686200D03*
X1112250Y686200D03*
X1112250Y736200D03*
X1242228Y571100D03*
X1242228Y521100D03*
X1117228Y521100D03*
X1117228Y571100D03*
D15*
X304800Y863600D03*
X304800Y838200D03*
X304800Y812800D03*
X304800Y787400D03*
X304800Y762000D03*
X304800Y736600D03*
X304800Y711200D03*
X304800Y685800D03*
X304800Y660400D03*
X304800Y635000D03*
X304800Y609600D03*
X304800Y584200D03*
X304800Y558800D03*
X304800Y533400D03*
X304800Y508000D03*
X304800Y482600D03*
X304800Y457200D03*
X304800Y431800D03*
X304800Y406400D03*
X304800Y381000D03*
X1066800Y381000D03*
X1066800Y406400D03*
X1066800Y431800D03*
X1066800Y457200D03*
X1066800Y482600D03*
X1066800Y508000D03*
X1066800Y533400D03*
X1066800Y558800D03*
X1066800Y584200D03*
X1066800Y609600D03*
X1066800Y635000D03*
X1066800Y660400D03*
X1066800Y685800D03*
X1066800Y711200D03*
X1066800Y736600D03*
X1066800Y762000D03*
X1066800Y787400D03*
X1066800Y812800D03*
X1066800Y838200D03*
X1066800Y863600D03*
D16*
X893400Y479800D03*
D17*
X893400Y505200D03*
X868000Y479800D03*
X868000Y505200D03*
X842600Y479800D03*
X842600Y505200D03*
X817200Y479800D03*
X817200Y505200D03*
X791800Y479800D03*
X791800Y505200D03*
X766400Y479800D03*
X766400Y505200D03*
X741000Y479800D03*
X741000Y505200D03*
X715600Y479800D03*
X715600Y505200D03*
X690200Y479800D03*
X690200Y505200D03*
X664800Y479800D03*
X664800Y505200D03*
X639400Y479800D03*
X639400Y505200D03*
X614000Y479800D03*
X614000Y505200D03*
X588600Y479800D03*
X588600Y505200D03*
X563200Y479800D03*
X563200Y505200D03*
X537800Y479800D03*
X537800Y505200D03*
X512400Y479800D03*
X512400Y505200D03*
X487000Y479800D03*
X487000Y505200D03*
X461600Y479800D03*
X461600Y505200D03*
D16*
X893400Y733800D03*
D17*
X893400Y759200D03*
X868000Y733800D03*
X868000Y759200D03*
X842600Y733800D03*
X842600Y759200D03*
X817200Y733800D03*
X817200Y759200D03*
X791800Y733800D03*
X791800Y759200D03*
X766400Y733800D03*
X766400Y759200D03*
X741000Y733800D03*
X741000Y759200D03*
X715600Y733800D03*
X715600Y759200D03*
X690200Y733800D03*
X690200Y759200D03*
X664800Y733800D03*
X664800Y759200D03*
X639400Y733800D03*
X639400Y759200D03*
X614000Y733800D03*
X614000Y759200D03*
X588600Y733800D03*
X588600Y759200D03*
X563200Y733800D03*
X563200Y759200D03*
X537800Y733800D03*
X537800Y759200D03*
X512400Y733800D03*
X512400Y759200D03*
X487000Y733800D03*
X487000Y759200D03*
X461600Y733800D03*
X461600Y759200D03*
D18*
X876300Y393700D03*
X1098550Y381000D03*
X1263650Y520700D03*
X1263650Y685800D03*
X1111250Y838200D03*
X717550Y711200D03*
X323850Y381000D03*
X641350Y520700D03*
X711200Y520700D03*
X642299Y712149D03*
D19*
X741000Y733800D02*
X741000Y632200D01*
X614000Y505200D01*
X614000Y715600D02*
X304800Y406400D01*
X614000Y715600D02*
X614000Y730250D01*
D18*
X1276350Y704850D03*
X1276350Y531979D03*
D19*
X614000Y730250D02*
X614000Y733800D01*
X1276350Y704850D02*
X1276350Y531979D01*
X1276350Y704850D02*
X1076967Y704850D01*
X1070617Y698500D01*
D18*
X666750Y685800D03*
D19*
X658450Y685800D01*
X614000Y730250D01*
D18*
X1035050Y698500D03*
D19*
X1070617Y698500D01*
X520401Y317500D02*
X418700Y317500D01*
X520401Y317500D02*
X679151Y476250D01*
X679151Y484377D01*
X690200Y495426D02*
X690200Y501650D01*
X690200Y505200D01*
X690200Y495426D02*
X679151Y484377D01*
X914400Y412938D02*
X1002900Y324438D01*
X914400Y412938D02*
X914400Y488950D01*
X909199Y494151D01*
X703524Y501650D02*
X690200Y501650D01*
X703524Y501650D02*
X711023Y494151D01*
X909199Y494151D01*
M02*
