G04 EAGLE Gerber RS-274X export*
G75*
%MOMM*%
%FSLAX34Y34*%
%LPD*%
%INTop Copper*%
%IPPOS*%
%AMOC8*
5,1,8,0,0,1.08239X$1,22.5*%
G01*
G04 Define Apertures*
%ADD10R,0.800000X0.800000*%
%ADD11R,1.428000X1.428000*%
%ADD12C,1.428000*%
%ADD13C,3.316000*%
%ADD14C,1.508000*%
%ADD15R,0.609600X0.508000*%
%ADD16C,2.100000*%
%ADD17C,1.650000*%
%ADD18R,1.524000X1.524000*%
%ADD19P,1.64956X8X202.5*%
%ADD20R,0.508000X0.609600*%
%ADD21C,0.254000*%
%ADD22C,0.381000*%
%ADD23C,0.756400*%
G36*
X1278551Y541271D02*
X1270661Y541271D01*
X1270661Y544983D01*
X1270670Y545307D01*
X1270698Y545612D01*
X1270745Y545898D01*
X1270810Y546164D01*
X1270894Y546412D01*
X1270996Y546641D01*
X1271118Y546851D01*
X1271257Y547041D01*
X1271414Y547211D01*
X1271585Y547359D01*
X1271770Y547483D01*
X1271971Y547585D01*
X1272186Y547665D01*
X1272415Y547721D01*
X1272659Y547755D01*
X1272918Y547767D01*
X1273133Y547759D01*
X1273340Y547735D01*
X1273538Y547695D01*
X1273727Y547639D01*
X1273907Y547566D01*
X1274079Y547478D01*
X1274242Y547374D01*
X1274396Y547254D01*
X1274539Y547120D01*
X1274668Y546974D01*
X1274783Y546815D01*
X1274825Y546744D01*
X1274885Y546645D01*
X1274972Y546462D01*
X1275046Y546267D01*
X1275106Y546060D01*
X1275152Y545840D01*
X1276599Y546794D01*
X1278551Y548080D01*
X1278551Y546848D01*
X1275275Y544799D01*
X1275275Y542340D01*
X1278551Y542340D01*
X1278551Y541271D01*
G37*
%LPC*%
G36*
X1274430Y542340D02*
X1274430Y544922D01*
X1274424Y545127D01*
X1274405Y545321D01*
X1274374Y545502D01*
X1274331Y545672D01*
X1274276Y545829D01*
X1274208Y545974D01*
X1274127Y546108D01*
X1274035Y546229D01*
X1273931Y546338D01*
X1273818Y546432D01*
X1273694Y546511D01*
X1273561Y546576D01*
X1273418Y546626D01*
X1273265Y546663D01*
X1273102Y546684D01*
X1272929Y546691D01*
X1272762Y546684D01*
X1272605Y546662D01*
X1272458Y546626D01*
X1272322Y546575D01*
X1272196Y546509D01*
X1272080Y546428D01*
X1271974Y546333D01*
X1271879Y546224D01*
X1271794Y546100D01*
X1271721Y545964D01*
X1271608Y545653D01*
X1271540Y545291D01*
X1271518Y544877D01*
X1271518Y542340D01*
X1274430Y542340D01*
G37*
%LPD*%
G36*
X1274788Y549193D02*
X1274291Y549205D01*
X1273823Y549239D01*
X1273385Y549297D01*
X1272977Y549377D01*
X1272598Y549480D01*
X1272249Y549606D01*
X1271930Y549755D01*
X1271641Y549927D01*
X1271384Y550120D01*
X1271161Y550333D01*
X1270972Y550565D01*
X1270818Y550816D01*
X1270698Y551087D01*
X1270612Y551377D01*
X1270561Y551687D01*
X1270543Y552016D01*
X1270550Y552234D01*
X1270568Y552442D01*
X1270600Y552639D01*
X1270644Y552826D01*
X1270700Y553003D01*
X1270769Y553170D01*
X1270851Y553326D01*
X1270945Y553472D01*
X1271171Y553733D01*
X1271447Y553952D01*
X1271774Y554130D01*
X1272151Y554267D01*
X1272324Y553304D01*
X1272098Y553219D01*
X1271903Y553111D01*
X1271737Y552982D01*
X1271602Y552831D01*
X1271496Y552657D01*
X1271421Y552462D01*
X1271376Y552244D01*
X1271361Y552005D01*
X1271374Y551795D01*
X1271411Y551598D01*
X1271474Y551413D01*
X1271562Y551240D01*
X1271675Y551079D01*
X1271813Y550930D01*
X1271976Y550793D01*
X1272165Y550669D01*
X1272377Y550558D01*
X1272611Y550462D01*
X1272868Y550381D01*
X1273148Y550314D01*
X1273450Y550262D01*
X1273775Y550225D01*
X1274122Y550203D01*
X1274491Y550196D01*
X1274252Y550347D01*
X1274043Y550526D01*
X1273864Y550733D01*
X1273716Y550969D01*
X1273599Y551227D01*
X1273516Y551503D01*
X1273466Y551798D01*
X1273450Y552111D01*
X1273460Y552377D01*
X1273492Y552629D01*
X1273546Y552867D01*
X1273621Y553090D01*
X1273717Y553300D01*
X1273834Y553495D01*
X1273973Y553677D01*
X1274133Y553844D01*
X1274311Y553995D01*
X1274504Y554125D01*
X1274712Y554235D01*
X1274934Y554325D01*
X1275171Y554395D01*
X1275422Y554445D01*
X1275689Y554475D01*
X1275970Y554485D01*
X1276274Y554475D01*
X1276561Y554443D01*
X1276832Y554390D01*
X1277087Y554316D01*
X1277325Y554221D01*
X1277547Y554104D01*
X1277752Y553967D01*
X1277941Y553808D01*
X1278110Y553630D01*
X1278257Y553437D01*
X1278381Y553227D01*
X1278483Y553001D01*
X1278562Y552760D01*
X1278618Y552502D01*
X1278652Y552228D01*
X1278663Y551937D01*
X1278648Y551614D01*
X1278601Y551310D01*
X1278524Y551026D01*
X1278416Y550761D01*
X1278276Y550516D01*
X1278106Y550291D01*
X1277904Y550085D01*
X1277672Y549899D01*
X1277410Y549734D01*
X1277120Y549590D01*
X1276802Y549469D01*
X1276456Y549370D01*
X1276081Y549293D01*
X1275678Y549238D01*
X1275247Y549205D01*
X1274788Y549193D01*
G37*
%LPC*%
G36*
X1275774Y550297D02*
X1275997Y550304D01*
X1276210Y550325D01*
X1276412Y550360D01*
X1276604Y550409D01*
X1276786Y550473D01*
X1276957Y550550D01*
X1277118Y550642D01*
X1277269Y550747D01*
X1277405Y550864D01*
X1277524Y550989D01*
X1277624Y551121D01*
X1277706Y551262D01*
X1277769Y551411D01*
X1277815Y551567D01*
X1277842Y551731D01*
X1277851Y551904D01*
X1277844Y552081D01*
X1277821Y552248D01*
X1277782Y552406D01*
X1277729Y552553D01*
X1277660Y552691D01*
X1277576Y552819D01*
X1277476Y552938D01*
X1277361Y553046D01*
X1277233Y553143D01*
X1277093Y553228D01*
X1276942Y553299D01*
X1276780Y553357D01*
X1276606Y553402D01*
X1276420Y553435D01*
X1276223Y553454D01*
X1276015Y553461D01*
X1275806Y553454D01*
X1275611Y553434D01*
X1275427Y553402D01*
X1275256Y553356D01*
X1275097Y553297D01*
X1274950Y553224D01*
X1274815Y553139D01*
X1274693Y553041D01*
X1274584Y552931D01*
X1274490Y552810D01*
X1274410Y552679D01*
X1274344Y552538D01*
X1274294Y552387D01*
X1274257Y552225D01*
X1274235Y552053D01*
X1274228Y551870D01*
X1274235Y551698D01*
X1274254Y551534D01*
X1274286Y551379D01*
X1274331Y551233D01*
X1274460Y550965D01*
X1274640Y550731D01*
X1274748Y550629D01*
X1274865Y550541D01*
X1274992Y550466D01*
X1275129Y550405D01*
X1275276Y550358D01*
X1275432Y550324D01*
X1275598Y550303D01*
X1275774Y550297D01*
G37*
%LPD*%
D10*
X1137800Y838200D03*
X1122800Y838200D03*
X1220350Y838200D03*
X1205350Y838200D03*
X1180028Y838200D03*
X1165028Y838200D03*
D11*
X812800Y418860D03*
D12*
X787800Y418860D03*
X767800Y418860D03*
X742800Y418860D03*
D13*
X843500Y391760D03*
X712100Y391760D03*
D14*
X418700Y317500D03*
X393700Y317500D03*
X368700Y317500D03*
X1002900Y324438D03*
X977900Y324438D03*
X952900Y324438D03*
D15*
X1124712Y814260D03*
X1135888Y814260D03*
X1206881Y814222D03*
X1218057Y814222D03*
X1166725Y814640D03*
X1177901Y814640D03*
D16*
X1237250Y736200D03*
X1237250Y686200D03*
X1112250Y686200D03*
X1112250Y736200D03*
X1242228Y571100D03*
X1242228Y521100D03*
X1117228Y521100D03*
X1117228Y571100D03*
D17*
X304800Y863600D03*
X304800Y838200D03*
X304800Y812800D03*
X304800Y787400D03*
X304800Y762000D03*
X304800Y736600D03*
X304800Y711200D03*
X304800Y685800D03*
X304800Y660400D03*
X304800Y635000D03*
X304800Y609600D03*
X304800Y584200D03*
X304800Y558800D03*
X304800Y533400D03*
X304800Y508000D03*
X304800Y482600D03*
X304800Y457200D03*
X304800Y431800D03*
X304800Y406400D03*
X304800Y381000D03*
X1066800Y381000D03*
X1066800Y406400D03*
X1066800Y431800D03*
X1066800Y457200D03*
X1066800Y482600D03*
X1066800Y508000D03*
X1066800Y533400D03*
X1066800Y558800D03*
X1066800Y584200D03*
X1066800Y609600D03*
X1066800Y635000D03*
X1066800Y660400D03*
X1066800Y685800D03*
X1066800Y711200D03*
X1066800Y736600D03*
X1066800Y762000D03*
X1066800Y787400D03*
X1066800Y812800D03*
X1066800Y838200D03*
X1066800Y863600D03*
D18*
X893400Y479800D03*
D19*
X893400Y505200D03*
X868000Y479800D03*
X868000Y505200D03*
X842600Y479800D03*
X842600Y505200D03*
X817200Y479800D03*
X817200Y505200D03*
X791800Y479800D03*
X791800Y505200D03*
X766400Y479800D03*
X766400Y505200D03*
X741000Y479800D03*
X741000Y505200D03*
X715600Y479800D03*
X715600Y505200D03*
X690200Y479800D03*
X690200Y505200D03*
X664800Y479800D03*
X664800Y505200D03*
X639400Y479800D03*
X639400Y505200D03*
X614000Y479800D03*
X614000Y505200D03*
X588600Y479800D03*
X588600Y505200D03*
X563200Y479800D03*
X563200Y505200D03*
X537800Y479800D03*
X537800Y505200D03*
X512400Y479800D03*
X512400Y505200D03*
X487000Y479800D03*
X487000Y505200D03*
X461600Y479800D03*
X461600Y505200D03*
D18*
X893400Y733800D03*
D19*
X893400Y759200D03*
X868000Y733800D03*
X868000Y759200D03*
X842600Y733800D03*
X842600Y759200D03*
X817200Y733800D03*
X817200Y759200D03*
X791800Y733800D03*
X791800Y759200D03*
X766400Y733800D03*
X766400Y759200D03*
X741000Y733800D03*
X741000Y759200D03*
X715600Y733800D03*
X715600Y759200D03*
X690200Y733800D03*
X690200Y759200D03*
X664800Y733800D03*
X664800Y759200D03*
X639400Y733800D03*
X639400Y759200D03*
X614000Y733800D03*
X614000Y759200D03*
X588600Y733800D03*
X588600Y759200D03*
X563200Y733800D03*
X563200Y759200D03*
X537800Y733800D03*
X537800Y759200D03*
X512400Y733800D03*
X512400Y759200D03*
X487000Y733800D03*
X487000Y759200D03*
X461600Y733800D03*
X461600Y759200D03*
D20*
X1263650Y551688D03*
X1263650Y540512D03*
X1263650Y716788D03*
X1263650Y705612D03*
D21*
X1122800Y838200D02*
X1135500Y850900D01*
X1155700Y850900D01*
X1165028Y841572D01*
X1165028Y838200D01*
X1177728Y850900D01*
X1200150Y850900D01*
X1205350Y845700D01*
X1205350Y838200D01*
D22*
X739200Y418860D02*
X712100Y391760D01*
X739200Y418860D02*
X742800Y418860D01*
X712100Y391760D02*
X843500Y391760D01*
D23*
X876300Y393700D03*
D22*
X845440Y393700D02*
X843500Y391760D01*
X845440Y393700D02*
X876300Y393700D01*
D23*
X1098550Y381000D03*
X1263650Y520700D03*
X1263650Y685800D03*
X1111250Y838200D03*
X717550Y711200D03*
X323850Y381000D03*
D22*
X1066800Y381000D02*
X1098550Y381000D01*
X1117228Y521100D02*
X1242228Y521100D01*
X1263250Y521100D01*
X1263650Y520700D01*
X1237250Y686200D02*
X1112250Y686200D01*
X1237250Y686200D02*
X1263250Y686200D01*
X1263650Y685800D01*
X1122800Y838200D02*
X1111250Y838200D01*
X641350Y731850D02*
X639400Y733800D01*
X715600Y733800D02*
X717550Y731850D01*
X717550Y711200D01*
D23*
X641350Y520700D03*
X711200Y520700D03*
D22*
X711200Y509600D02*
X715600Y505200D01*
X711200Y509600D02*
X711200Y520700D01*
X639400Y518750D02*
X639400Y505200D01*
X639400Y518750D02*
X641350Y520700D01*
X323850Y381000D02*
X304800Y381000D01*
D23*
X642299Y712149D03*
D22*
X641350Y713098D02*
X641350Y731850D01*
X641350Y713098D02*
X642299Y712149D01*
D21*
X994664Y529336D02*
X1066800Y457200D01*
X742264Y529336D02*
X537800Y733800D01*
X742264Y529336D02*
X994664Y529336D01*
X994664Y554736D02*
X1066800Y482600D01*
X994664Y554736D02*
X767664Y554736D01*
X588600Y733800D01*
X1060450Y508000D02*
X1066800Y508000D01*
X757250Y539750D02*
X563200Y733800D01*
X757250Y539750D02*
X996950Y539750D01*
X1055756Y478025D02*
X1062225Y471556D01*
X1077844Y471556D02*
X1079500Y469900D01*
X1077844Y471556D02*
X1062225Y471556D01*
X1055756Y480944D02*
X996950Y539750D01*
X1055756Y480944D02*
X1055756Y478025D01*
X1079500Y469900D02*
X1079500Y495300D01*
X1066800Y508000D01*
X1085850Y446156D02*
X1036825Y446156D01*
X1085850Y446156D02*
X1085850Y514350D01*
X1066800Y533400D01*
X1036825Y446156D02*
X964059Y518922D01*
X727278Y518922D02*
X512400Y733800D01*
X727278Y518922D02*
X964059Y518922D01*
D22*
X817200Y479800D02*
X817200Y423260D01*
X812800Y418860D01*
X791800Y418860D02*
X791800Y479800D01*
X791800Y418860D02*
X787800Y418860D01*
X766400Y418860D02*
X766400Y479800D01*
X766400Y418860D02*
X767800Y418860D01*
D23*
X1276350Y704850D03*
X1276350Y531979D03*
D22*
X1275588Y705612D02*
X1263650Y705612D01*
X1275588Y705612D02*
X1276350Y704850D01*
D23*
X666750Y685800D03*
D22*
X1022350Y685800D01*
D23*
X1035050Y698500D03*
D22*
X1022350Y685800D01*
X1264285Y539877D02*
X1264285Y535865D01*
X1264285Y539877D02*
X1263650Y540512D01*
X1268171Y531979D02*
X1276350Y531979D01*
X1268171Y531979D02*
X1264285Y535865D01*
D21*
X533400Y457200D02*
X393700Y317500D01*
X533400Y457200D02*
X654050Y457200D01*
X664800Y467950D01*
X664800Y479800D01*
X690200Y499700D02*
X690200Y505200D01*
X690200Y479800D02*
X695325Y474675D01*
X425450Y307166D02*
X372684Y307166D01*
X425450Y307166D02*
X527816Y307166D01*
X372684Y307166D02*
X368700Y311150D01*
X368700Y317500D01*
X527816Y307166D02*
X602450Y381800D01*
X695325Y474675D01*
D22*
X659812Y324438D02*
X952900Y324438D01*
X659812Y324438D02*
X602450Y381800D01*
D21*
X821514Y490214D02*
X827614Y484114D01*
X827614Y474724D02*
X977900Y324438D01*
X650072Y479800D02*
X639400Y479800D01*
X827614Y484114D02*
X827614Y474724D01*
X660486Y490214D02*
X650072Y479800D01*
X660486Y490214D02*
X821514Y490214D01*
X1137800Y816172D02*
X1137800Y838200D01*
X1137800Y816172D02*
X1135888Y814260D01*
X1220350Y816515D02*
X1220350Y838200D01*
X1220350Y816515D02*
X1218057Y814222D01*
X1180028Y816767D02*
X1180028Y838200D01*
X1180028Y816767D02*
X1177901Y814640D01*
X1237250Y736200D02*
X1112250Y736200D01*
X1237250Y736200D02*
X1256662Y716788D01*
X1263650Y716788D01*
X1112250Y736200D02*
X1099150Y749300D01*
X1037850Y759200D02*
X893400Y759200D01*
X1037850Y759200D02*
X1047750Y749300D01*
X1099150Y749300D01*
X1117228Y571100D02*
X1123950Y571100D01*
X1242228Y571100D01*
X1261640Y551688D01*
X1263650Y551688D01*
X882986Y744214D02*
X868000Y759200D01*
X882986Y744214D02*
X902177Y744214D01*
X922491Y723900D01*
X1092200Y723900D01*
X1098550Y717550D01*
X1098550Y596500D01*
X1123950Y571100D01*
X1124712Y814260D02*
X1090740Y814260D01*
X1079500Y825500D01*
X858100Y825500D01*
X791800Y759200D01*
X1071375Y776356D02*
X1076069Y781050D01*
X1173709Y781050D01*
X859756Y776356D02*
X842600Y759200D01*
X859756Y776356D02*
X1071375Y776356D01*
X1173709Y781050D02*
X1206881Y814222D01*
X1158535Y800100D02*
X858100Y800100D01*
X817200Y759200D01*
X1166725Y814475D02*
X1166725Y814640D01*
X1166725Y808290D02*
X1158535Y800100D01*
X1166725Y808290D02*
X1166725Y814640D01*
M02*
