G04 EAGLE Gerber RS-274X export*
G75*
%MOMM*%
%FSLAX34Y34*%
%LPD*%
%INSilkscreen Top*%
%IPPOS*%
%AMOC8*
5,1,8,0,0,1.08239X$1,22.5*%
G01*
G04 Define Apertures*
%ADD10C,0.127000*%
%ADD11C,0.101600*%
%ADD12R,0.406400X0.711200*%
%ADD13C,0.254000*%
%ADD14C,0.152400*%
%ADD15R,0.711200X0.406400*%
G36*
X1127665Y838592D02*
X1132935Y841227D01*
X1132935Y835173D01*
X1127665Y837808D01*
X1127665Y838592D01*
G37*
G36*
X1169893Y838592D02*
X1175163Y841227D01*
X1175163Y835173D01*
X1169893Y837808D01*
X1169893Y838592D01*
G37*
G36*
X1210215Y838592D02*
X1215485Y841227D01*
X1215485Y835173D01*
X1210215Y837808D01*
X1210215Y838592D01*
G37*
G36*
X1176541Y285750D02*
X1174112Y285750D01*
X1181166Y303036D01*
X1183828Y303036D01*
X1190772Y285750D01*
X1188379Y285750D01*
X1186404Y290804D01*
X1178528Y290804D01*
X1176541Y285750D01*
G37*
%LPC*%
G36*
X1185705Y292632D02*
X1183484Y298337D01*
X1183141Y299239D01*
X1182797Y300251D01*
X1182466Y301269D01*
X1182356Y300926D01*
X1181975Y299763D01*
X1181448Y298313D01*
X1179240Y292632D01*
X1185705Y292632D01*
G37*
%LPD*%
G36*
X1126929Y312420D02*
X1113311Y312420D01*
X1113311Y329706D01*
X1126426Y329706D01*
X1126426Y327792D01*
X1115654Y327792D01*
X1115654Y322247D01*
X1125690Y322247D01*
X1125690Y320357D01*
X1115654Y320357D01*
X1115654Y314334D01*
X1126929Y314334D01*
X1126929Y312420D01*
G37*
G36*
X1214685Y312175D02*
X1214322Y312182D01*
X1213971Y312202D01*
X1213630Y312236D01*
X1213300Y312284D01*
X1212982Y312346D01*
X1212674Y312421D01*
X1212377Y312510D01*
X1212092Y312613D01*
X1211817Y312730D01*
X1211553Y312860D01*
X1211300Y313004D01*
X1211058Y313161D01*
X1210827Y313333D01*
X1210608Y313518D01*
X1210399Y313717D01*
X1210201Y313929D01*
X1210014Y314155D01*
X1209840Y314394D01*
X1209677Y314647D01*
X1209527Y314913D01*
X1209389Y315192D01*
X1209262Y315485D01*
X1209148Y315790D01*
X1209046Y316110D01*
X1208956Y316442D01*
X1208878Y316788D01*
X1208811Y317147D01*
X1208757Y317520D01*
X1208715Y317906D01*
X1208685Y318305D01*
X1208667Y318717D01*
X1208661Y319143D01*
X1208667Y319548D01*
X1208685Y319941D01*
X1208715Y320322D01*
X1208757Y320691D01*
X1208811Y321048D01*
X1208878Y321393D01*
X1208956Y321726D01*
X1209046Y322047D01*
X1209148Y322357D01*
X1209262Y322654D01*
X1209389Y322939D01*
X1209527Y323212D01*
X1209677Y323473D01*
X1209840Y323723D01*
X1210014Y323960D01*
X1210201Y324185D01*
X1210398Y324398D01*
X1210606Y324596D01*
X1210824Y324781D01*
X1211053Y324953D01*
X1211292Y325110D01*
X1211541Y325254D01*
X1211800Y325384D01*
X1212070Y325501D01*
X1212350Y325604D01*
X1212640Y325693D01*
X1212941Y325768D01*
X1213252Y325830D01*
X1213573Y325878D01*
X1213905Y325912D01*
X1214247Y325933D01*
X1214599Y325939D01*
X1214959Y325933D01*
X1215307Y325912D01*
X1215645Y325877D01*
X1215970Y325829D01*
X1216285Y325767D01*
X1216588Y325691D01*
X1216879Y325602D01*
X1217159Y325499D01*
X1217428Y325381D01*
X1217685Y325251D01*
X1217930Y325106D01*
X1218165Y324947D01*
X1218388Y324775D01*
X1218599Y324589D01*
X1218799Y324389D01*
X1218988Y324176D01*
X1219165Y323949D01*
X1219331Y323707D01*
X1219485Y323453D01*
X1219628Y323184D01*
X1219759Y322901D01*
X1219879Y322605D01*
X1219988Y322295D01*
X1220085Y321971D01*
X1220171Y321634D01*
X1220245Y321283D01*
X1220308Y320917D01*
X1220359Y320539D01*
X1220428Y319739D01*
X1220451Y318885D01*
X1220451Y318591D01*
X1210980Y318591D01*
X1210994Y318037D01*
X1211039Y317515D01*
X1211113Y317026D01*
X1211216Y316570D01*
X1211349Y316146D01*
X1211511Y315755D01*
X1211703Y315396D01*
X1211924Y315070D01*
X1212174Y314779D01*
X1212451Y314528D01*
X1212755Y314315D01*
X1213087Y314141D01*
X1213445Y314005D01*
X1213831Y313908D01*
X1214244Y313850D01*
X1214685Y313831D01*
X1215035Y313840D01*
X1215367Y313867D01*
X1215681Y313912D01*
X1215977Y313975D01*
X1216256Y314056D01*
X1216517Y314155D01*
X1216760Y314272D01*
X1216985Y314407D01*
X1217192Y314556D01*
X1217383Y314715D01*
X1217555Y314883D01*
X1217710Y315061D01*
X1217848Y315248D01*
X1217968Y315445D01*
X1218071Y315651D01*
X1218157Y315867D01*
X1220095Y315315D01*
X1219934Y314935D01*
X1219750Y314579D01*
X1219542Y314248D01*
X1219311Y313941D01*
X1219055Y313659D01*
X1218776Y313401D01*
X1218474Y313168D01*
X1218147Y312960D01*
X1217797Y312776D01*
X1217424Y312616D01*
X1217026Y312481D01*
X1216605Y312371D01*
X1216161Y312285D01*
X1215692Y312224D01*
X1215200Y312187D01*
X1214685Y312175D01*
G37*
%LPC*%
G36*
X1218169Y320284D02*
X1218112Y320791D01*
X1218033Y321262D01*
X1217932Y321698D01*
X1217810Y322098D01*
X1217666Y322463D01*
X1217499Y322792D01*
X1217311Y323086D01*
X1217102Y323345D01*
X1216869Y323570D01*
X1216612Y323766D01*
X1216330Y323932D01*
X1216025Y324067D01*
X1215695Y324172D01*
X1215342Y324248D01*
X1214964Y324293D01*
X1214562Y324308D01*
X1214171Y324291D01*
X1213800Y324241D01*
X1213451Y324157D01*
X1213122Y324039D01*
X1212814Y323888D01*
X1212527Y323704D01*
X1212261Y323486D01*
X1212016Y323234D01*
X1211795Y322953D01*
X1211601Y322647D01*
X1211434Y322316D01*
X1211294Y321960D01*
X1211181Y321579D01*
X1211095Y321172D01*
X1211036Y320741D01*
X1211004Y320284D01*
X1218169Y320284D01*
G37*
%LPD*%
G36*
X1186746Y312175D02*
X1185977Y312192D01*
X1185250Y312243D01*
X1184564Y312329D01*
X1183919Y312449D01*
X1183316Y312604D01*
X1182755Y312792D01*
X1182235Y313015D01*
X1181756Y313273D01*
X1181319Y313564D01*
X1180924Y313890D01*
X1180570Y314251D01*
X1180257Y314645D01*
X1179986Y315074D01*
X1179757Y315537D01*
X1179569Y316035D01*
X1179422Y316567D01*
X1181692Y317021D01*
X1181804Y316644D01*
X1181943Y316293D01*
X1182110Y315968D01*
X1182305Y315670D01*
X1182528Y315396D01*
X1182777Y315149D01*
X1183055Y314928D01*
X1183360Y314733D01*
X1183694Y314561D01*
X1184056Y314413D01*
X1184447Y314288D01*
X1184866Y314185D01*
X1185314Y314105D01*
X1185792Y314048D01*
X1186297Y314014D01*
X1186832Y314003D01*
X1187383Y314015D01*
X1187902Y314051D01*
X1188389Y314112D01*
X1188843Y314197D01*
X1189264Y314307D01*
X1189653Y314441D01*
X1190010Y314599D01*
X1190335Y314782D01*
X1190624Y314988D01*
X1190874Y315217D01*
X1191086Y315469D01*
X1191259Y315743D01*
X1191394Y316041D01*
X1191491Y316361D01*
X1191548Y316704D01*
X1191568Y317070D01*
X1191562Y317276D01*
X1191543Y317473D01*
X1191513Y317660D01*
X1191471Y317836D01*
X1191350Y318160D01*
X1191181Y318444D01*
X1190968Y318696D01*
X1190716Y318925D01*
X1190425Y319131D01*
X1190095Y319315D01*
X1189729Y319480D01*
X1189329Y319631D01*
X1188895Y319768D01*
X1188427Y319891D01*
X1186280Y320394D01*
X1185317Y320621D01*
X1184478Y320848D01*
X1183762Y321075D01*
X1183170Y321302D01*
X1182667Y321536D01*
X1182221Y321782D01*
X1181830Y322042D01*
X1181495Y322314D01*
X1181207Y322605D01*
X1180954Y322920D01*
X1180738Y323258D01*
X1180557Y323621D01*
X1180415Y324009D01*
X1180313Y324424D01*
X1180252Y324867D01*
X1180232Y325338D01*
X1180239Y325612D01*
X1180258Y325877D01*
X1180292Y326135D01*
X1180338Y326385D01*
X1180398Y326627D01*
X1180471Y326860D01*
X1180657Y327304D01*
X1180896Y327716D01*
X1181188Y328096D01*
X1181533Y328445D01*
X1181931Y328761D01*
X1182379Y329043D01*
X1182872Y329287D01*
X1183412Y329494D01*
X1183997Y329663D01*
X1184628Y329794D01*
X1185304Y329888D01*
X1186027Y329945D01*
X1186795Y329963D01*
X1187510Y329949D01*
X1188181Y329907D01*
X1188809Y329837D01*
X1189393Y329738D01*
X1189934Y329611D01*
X1190432Y329456D01*
X1190886Y329273D01*
X1191298Y329062D01*
X1191673Y328816D01*
X1192018Y328531D01*
X1192335Y328207D01*
X1192623Y327842D01*
X1192881Y327439D01*
X1193110Y326995D01*
X1193310Y326512D01*
X1193481Y325988D01*
X1191175Y325584D01*
X1191069Y325915D01*
X1190942Y326223D01*
X1190793Y326508D01*
X1190623Y326769D01*
X1190431Y327006D01*
X1190218Y327220D01*
X1189983Y327411D01*
X1189727Y327577D01*
X1189448Y327722D01*
X1189142Y327848D01*
X1188811Y327955D01*
X1188455Y328042D01*
X1188072Y328110D01*
X1187664Y328158D01*
X1187230Y328187D01*
X1186771Y328197D01*
X1186268Y328186D01*
X1185795Y328154D01*
X1185354Y328100D01*
X1184943Y328025D01*
X1184563Y327928D01*
X1184213Y327810D01*
X1183894Y327671D01*
X1183606Y327510D01*
X1183350Y327327D01*
X1183128Y327124D01*
X1182940Y326900D01*
X1182787Y326654D01*
X1182667Y326387D01*
X1182582Y326100D01*
X1182531Y325791D01*
X1182514Y325461D01*
X1182520Y325266D01*
X1182540Y325079D01*
X1182573Y324902D01*
X1182620Y324733D01*
X1182679Y324572D01*
X1182752Y324420D01*
X1182937Y324142D01*
X1183172Y323891D01*
X1183454Y323661D01*
X1183782Y323450D01*
X1184158Y323259D01*
X1184655Y323068D01*
X1185351Y322856D01*
X1186244Y322623D01*
X1187335Y322369D01*
X1188924Y321995D01*
X1189698Y321787D01*
X1190439Y321541D01*
X1191140Y321255D01*
X1191795Y320922D01*
X1192100Y320734D01*
X1192385Y320526D01*
X1192649Y320298D01*
X1192893Y320051D01*
X1193113Y319782D01*
X1193308Y319489D01*
X1193478Y319174D01*
X1193622Y318836D01*
X1193738Y318471D01*
X1193820Y318076D01*
X1193870Y317649D01*
X1193886Y317192D01*
X1193879Y316897D01*
X1193857Y316611D01*
X1193820Y316333D01*
X1193769Y316064D01*
X1193704Y315803D01*
X1193623Y315550D01*
X1193528Y315306D01*
X1193419Y315070D01*
X1193294Y314843D01*
X1193155Y314624D01*
X1193002Y314413D01*
X1192834Y314211D01*
X1192454Y313832D01*
X1192015Y313487D01*
X1191524Y313180D01*
X1190984Y312913D01*
X1190397Y312687D01*
X1189763Y312503D01*
X1189080Y312359D01*
X1188350Y312257D01*
X1187572Y312195D01*
X1186746Y312175D01*
G37*
G36*
X1202217Y285750D02*
X1199874Y285750D01*
X1199874Y303036D01*
X1202217Y303036D01*
X1202217Y294374D01*
X1210547Y303036D01*
X1213307Y303036D01*
X1205946Y295528D01*
X1214289Y285750D01*
X1211381Y285750D01*
X1204474Y294092D01*
X1202217Y292375D01*
X1202217Y285750D01*
G37*
G36*
X1151482Y312420D02*
X1149273Y312420D01*
X1149273Y330626D01*
X1151482Y330626D01*
X1151482Y325890D01*
X1151471Y325130D01*
X1151439Y324345D01*
X1151383Y323424D01*
X1151420Y323424D01*
X1151603Y323739D01*
X1151794Y324031D01*
X1151994Y324302D01*
X1152204Y324552D01*
X1152422Y324779D01*
X1152650Y324985D01*
X1152886Y325169D01*
X1153132Y325332D01*
X1153390Y325474D01*
X1153665Y325598D01*
X1153957Y325702D01*
X1154265Y325788D01*
X1154590Y325854D01*
X1154932Y325901D01*
X1155290Y325930D01*
X1155665Y325939D01*
X1156187Y325923D01*
X1156674Y325872D01*
X1157125Y325788D01*
X1157540Y325671D01*
X1157921Y325520D01*
X1158265Y325336D01*
X1158575Y325118D01*
X1158849Y324866D01*
X1159089Y324575D01*
X1159297Y324238D01*
X1159473Y323856D01*
X1159617Y323429D01*
X1159729Y322956D01*
X1159809Y322438D01*
X1159857Y321874D01*
X1159873Y321265D01*
X1159873Y312420D01*
X1157652Y312420D01*
X1157652Y320836D01*
X1157636Y321490D01*
X1157588Y322055D01*
X1157507Y322530D01*
X1157395Y322915D01*
X1157245Y323233D01*
X1157054Y323506D01*
X1156822Y323733D01*
X1156548Y323915D01*
X1156225Y324055D01*
X1155846Y324154D01*
X1155410Y324214D01*
X1154917Y324234D01*
X1154537Y324217D01*
X1154176Y324167D01*
X1153835Y324082D01*
X1153513Y323964D01*
X1153211Y323812D01*
X1152928Y323627D01*
X1152664Y323408D01*
X1152420Y323155D01*
X1152200Y322873D01*
X1152009Y322568D01*
X1151848Y322240D01*
X1151716Y321888D01*
X1151614Y321513D01*
X1151540Y321114D01*
X1151496Y320692D01*
X1151482Y320247D01*
X1151482Y312420D01*
G37*
G36*
X1245044Y312420D02*
X1242836Y312420D01*
X1242836Y330626D01*
X1245044Y330626D01*
X1245044Y325890D01*
X1245033Y325130D01*
X1245001Y324345D01*
X1244946Y323424D01*
X1244983Y323424D01*
X1245165Y323739D01*
X1245357Y324031D01*
X1245557Y324302D01*
X1245766Y324552D01*
X1245985Y324779D01*
X1246212Y324985D01*
X1246449Y325169D01*
X1246694Y325332D01*
X1246952Y325474D01*
X1247227Y325598D01*
X1247519Y325702D01*
X1247827Y325788D01*
X1248152Y325854D01*
X1248494Y325901D01*
X1248852Y325930D01*
X1249227Y325939D01*
X1249750Y325923D01*
X1250236Y325872D01*
X1250687Y325788D01*
X1251103Y325671D01*
X1251483Y325520D01*
X1251828Y325336D01*
X1252137Y325118D01*
X1252411Y324866D01*
X1252651Y324575D01*
X1252859Y324238D01*
X1253035Y323856D01*
X1253179Y323429D01*
X1253291Y322956D01*
X1253371Y322438D01*
X1253419Y321874D01*
X1253435Y321265D01*
X1253435Y312420D01*
X1251215Y312420D01*
X1251215Y320836D01*
X1251199Y321490D01*
X1251150Y322055D01*
X1251070Y322530D01*
X1250957Y322915D01*
X1250808Y323233D01*
X1250617Y323506D01*
X1250385Y323733D01*
X1250111Y323915D01*
X1249788Y324055D01*
X1249408Y324154D01*
X1248972Y324214D01*
X1248479Y324234D01*
X1248099Y324217D01*
X1247739Y324167D01*
X1247398Y324082D01*
X1247076Y323964D01*
X1246774Y323812D01*
X1246491Y323627D01*
X1246227Y323408D01*
X1245983Y323155D01*
X1245763Y322873D01*
X1245572Y322568D01*
X1245411Y322240D01*
X1245279Y321888D01*
X1245176Y321513D01*
X1245103Y321114D01*
X1245059Y320692D01*
X1245044Y320247D01*
X1245044Y312420D01*
G37*
G36*
X1198932Y312420D02*
X1196724Y312420D01*
X1196724Y330626D01*
X1198932Y330626D01*
X1198932Y319253D01*
X1204760Y325694D01*
X1207348Y325694D01*
X1201963Y319989D01*
X1207631Y312420D01*
X1205042Y312420D01*
X1200552Y318480D01*
X1198932Y317143D01*
X1198932Y312420D01*
G37*
G36*
X1130343Y280536D02*
X1129908Y280545D01*
X1129509Y280570D01*
X1129147Y280612D01*
X1128822Y280671D01*
X1128822Y282327D01*
X1129313Y282272D01*
X1129852Y282254D01*
X1130107Y282265D01*
X1130354Y282301D01*
X1130595Y282360D01*
X1130829Y282443D01*
X1131057Y282550D01*
X1131277Y282680D01*
X1131492Y282834D01*
X1131699Y283011D01*
X1131899Y283212D01*
X1132093Y283437D01*
X1132281Y283686D01*
X1132461Y283958D01*
X1132635Y284254D01*
X1132802Y284574D01*
X1132962Y284917D01*
X1133116Y285284D01*
X1133324Y285811D01*
X1128061Y299024D01*
X1130417Y299024D01*
X1133214Y291688D01*
X1133361Y291277D01*
X1133913Y289676D01*
X1134272Y288615D01*
X1134416Y288155D01*
X1135275Y290571D01*
X1138182Y299024D01*
X1140513Y299024D01*
X1135410Y285750D01*
X1135006Y284757D01*
X1134616Y283899D01*
X1134239Y283177D01*
X1133876Y282591D01*
X1133511Y282106D01*
X1133127Y281686D01*
X1132723Y281333D01*
X1132514Y281181D01*
X1132300Y281045D01*
X1132080Y280926D01*
X1131853Y280822D01*
X1131619Y280735D01*
X1131378Y280663D01*
X1131130Y280608D01*
X1130875Y280568D01*
X1130613Y280544D01*
X1130343Y280536D01*
G37*
G36*
X1141753Y312175D02*
X1141410Y312182D01*
X1141077Y312202D01*
X1140755Y312237D01*
X1140443Y312285D01*
X1140141Y312347D01*
X1139850Y312422D01*
X1139569Y312512D01*
X1139298Y312615D01*
X1139037Y312732D01*
X1138787Y312862D01*
X1138547Y313007D01*
X1138318Y313165D01*
X1138098Y313337D01*
X1137889Y313522D01*
X1137691Y313722D01*
X1137502Y313935D01*
X1137325Y314161D01*
X1137159Y314400D01*
X1137004Y314652D01*
X1136861Y314916D01*
X1136729Y315193D01*
X1136609Y315482D01*
X1136500Y315784D01*
X1136403Y316099D01*
X1136242Y316766D01*
X1136128Y317483D01*
X1136059Y318251D01*
X1136036Y319069D01*
X1136059Y319882D01*
X1136128Y320645D01*
X1136243Y321358D01*
X1136404Y322021D01*
X1136502Y322334D01*
X1136611Y322635D01*
X1136732Y322924D01*
X1136864Y323199D01*
X1137008Y323463D01*
X1137163Y323714D01*
X1137330Y323953D01*
X1137508Y324179D01*
X1137697Y324392D01*
X1137896Y324592D01*
X1138105Y324777D01*
X1138324Y324949D01*
X1138553Y325107D01*
X1138792Y325252D01*
X1139041Y325382D01*
X1139299Y325499D01*
X1139568Y325602D01*
X1139847Y325692D01*
X1140136Y325767D01*
X1140434Y325829D01*
X1140743Y325878D01*
X1141061Y325912D01*
X1141390Y325933D01*
X1141728Y325939D01*
X1142227Y325923D01*
X1142703Y325873D01*
X1143158Y325791D01*
X1143592Y325676D01*
X1144003Y325527D01*
X1144393Y325346D01*
X1144762Y325132D01*
X1145108Y324884D01*
X1145429Y324608D01*
X1145717Y324307D01*
X1145975Y323981D01*
X1146202Y323630D01*
X1146397Y323254D01*
X1146561Y322853D01*
X1146694Y322427D01*
X1146795Y321977D01*
X1144526Y321805D01*
X1144474Y322074D01*
X1144407Y322329D01*
X1144323Y322569D01*
X1144222Y322796D01*
X1144105Y323008D01*
X1143971Y323206D01*
X1143821Y323390D01*
X1143655Y323559D01*
X1143471Y323712D01*
X1143268Y323844D01*
X1143047Y323956D01*
X1142808Y324047D01*
X1142550Y324118D01*
X1142274Y324169D01*
X1141980Y324199D01*
X1141667Y324210D01*
X1141244Y324191D01*
X1140851Y324137D01*
X1140488Y324046D01*
X1140155Y323918D01*
X1139853Y323754D01*
X1139581Y323554D01*
X1139339Y323317D01*
X1139128Y323044D01*
X1138944Y322728D01*
X1138784Y322362D01*
X1138649Y321946D01*
X1138539Y321480D01*
X1138453Y320964D01*
X1138392Y320399D01*
X1138355Y319784D01*
X1138342Y319118D01*
X1138356Y318477D01*
X1138395Y317879D01*
X1138460Y317324D01*
X1138551Y316812D01*
X1138668Y316343D01*
X1138812Y315916D01*
X1138981Y315533D01*
X1139177Y315193D01*
X1139398Y314894D01*
X1139647Y314634D01*
X1139921Y314415D01*
X1140223Y314236D01*
X1140550Y314096D01*
X1140904Y313996D01*
X1141285Y313937D01*
X1141692Y313917D01*
X1141980Y313927D01*
X1142256Y313957D01*
X1142521Y314006D01*
X1142773Y314076D01*
X1143013Y314166D01*
X1143241Y314276D01*
X1143457Y314405D01*
X1143661Y314555D01*
X1143849Y314725D01*
X1144018Y314917D01*
X1144169Y315130D01*
X1144300Y315364D01*
X1144413Y315620D01*
X1144506Y315898D01*
X1144580Y316197D01*
X1144636Y316518D01*
X1146869Y316370D01*
X1146787Y315904D01*
X1146670Y315462D01*
X1146519Y315044D01*
X1146332Y314650D01*
X1146111Y314280D01*
X1145854Y313934D01*
X1145563Y313613D01*
X1145237Y313316D01*
X1144882Y313048D01*
X1144504Y312816D01*
X1144103Y312620D01*
X1143679Y312460D01*
X1143232Y312335D01*
X1142762Y312246D01*
X1142269Y312192D01*
X1141753Y312175D01*
G37*
G36*
X1235315Y312175D02*
X1234973Y312182D01*
X1234640Y312202D01*
X1234318Y312237D01*
X1234005Y312285D01*
X1233704Y312347D01*
X1233412Y312422D01*
X1233131Y312512D01*
X1232860Y312615D01*
X1232600Y312732D01*
X1232350Y312862D01*
X1232110Y313007D01*
X1231880Y313165D01*
X1231661Y313337D01*
X1231452Y313522D01*
X1231253Y313722D01*
X1231065Y313935D01*
X1230887Y314161D01*
X1230721Y314400D01*
X1230566Y314652D01*
X1230423Y314916D01*
X1230292Y315193D01*
X1230171Y315482D01*
X1230062Y315784D01*
X1229965Y316099D01*
X1229805Y316766D01*
X1229690Y317483D01*
X1229621Y318251D01*
X1229599Y319069D01*
X1229622Y319882D01*
X1229691Y320645D01*
X1229806Y321358D01*
X1229967Y322021D01*
X1230064Y322334D01*
X1230174Y322635D01*
X1230294Y322924D01*
X1230427Y323199D01*
X1230570Y323463D01*
X1230726Y323714D01*
X1230892Y323953D01*
X1231071Y324179D01*
X1231260Y324392D01*
X1231459Y324592D01*
X1231668Y324777D01*
X1231887Y324949D01*
X1232115Y325107D01*
X1232354Y325252D01*
X1232603Y325382D01*
X1232862Y325499D01*
X1233131Y325602D01*
X1233409Y325692D01*
X1233698Y325767D01*
X1233997Y325829D01*
X1234305Y325878D01*
X1234624Y325912D01*
X1234952Y325933D01*
X1235291Y325939D01*
X1235789Y325923D01*
X1236266Y325873D01*
X1236721Y325791D01*
X1237154Y325676D01*
X1237566Y325527D01*
X1237956Y325346D01*
X1238324Y325132D01*
X1238671Y324884D01*
X1238991Y324608D01*
X1239280Y324307D01*
X1239538Y323981D01*
X1239764Y323630D01*
X1239959Y323254D01*
X1240123Y322853D01*
X1240256Y322427D01*
X1240358Y321977D01*
X1238088Y321805D01*
X1238037Y322074D01*
X1237969Y322329D01*
X1237885Y322569D01*
X1237784Y322796D01*
X1237667Y323008D01*
X1237534Y323206D01*
X1237384Y323390D01*
X1237217Y323559D01*
X1237033Y323712D01*
X1236831Y323844D01*
X1236610Y323956D01*
X1236371Y324047D01*
X1236113Y324118D01*
X1235837Y324169D01*
X1235542Y324199D01*
X1235230Y324210D01*
X1234806Y324191D01*
X1234413Y324137D01*
X1234050Y324046D01*
X1233718Y323918D01*
X1233415Y323754D01*
X1233143Y323554D01*
X1232902Y323317D01*
X1232690Y323044D01*
X1232506Y322728D01*
X1232347Y322362D01*
X1232212Y321946D01*
X1232101Y321480D01*
X1232015Y320964D01*
X1231954Y320399D01*
X1231917Y319784D01*
X1231905Y319118D01*
X1231918Y318477D01*
X1231957Y317879D01*
X1232022Y317324D01*
X1232114Y316812D01*
X1232231Y316343D01*
X1232374Y315916D01*
X1232544Y315533D01*
X1232739Y315193D01*
X1232961Y314894D01*
X1233209Y314634D01*
X1233484Y314415D01*
X1233785Y314236D01*
X1234113Y314096D01*
X1234467Y313996D01*
X1234847Y313937D01*
X1235254Y313917D01*
X1235543Y313927D01*
X1235819Y313957D01*
X1236083Y314006D01*
X1236335Y314076D01*
X1236575Y314166D01*
X1236803Y314276D01*
X1237019Y314405D01*
X1237223Y314555D01*
X1237412Y314725D01*
X1237581Y314917D01*
X1237731Y315130D01*
X1237863Y315364D01*
X1237975Y315620D01*
X1238069Y315898D01*
X1238143Y316197D01*
X1238198Y316518D01*
X1240431Y316370D01*
X1240349Y315904D01*
X1240233Y315462D01*
X1240081Y315044D01*
X1239895Y314650D01*
X1239673Y314280D01*
X1239417Y313934D01*
X1239126Y313613D01*
X1238800Y313316D01*
X1238445Y313048D01*
X1238067Y312816D01*
X1237666Y312620D01*
X1237242Y312460D01*
X1236795Y312335D01*
X1236325Y312246D01*
X1235832Y312192D01*
X1235315Y312175D01*
G37*
G36*
X1238501Y280548D02*
X1236366Y280548D01*
X1236923Y281197D01*
X1237442Y281854D01*
X1237922Y282519D01*
X1238363Y283194D01*
X1238765Y283877D01*
X1239129Y284568D01*
X1239453Y285268D01*
X1239740Y285977D01*
X1239990Y286699D01*
X1240207Y287439D01*
X1240390Y288196D01*
X1240540Y288972D01*
X1240657Y289765D01*
X1240740Y290576D01*
X1240790Y291405D01*
X1240807Y292252D01*
X1240790Y293099D01*
X1240740Y293928D01*
X1240656Y294740D01*
X1240539Y295534D01*
X1240388Y296310D01*
X1240203Y297069D01*
X1239985Y297810D01*
X1239734Y298533D01*
X1239446Y299243D01*
X1239121Y299944D01*
X1238757Y300636D01*
X1238355Y301318D01*
X1237915Y301991D01*
X1237437Y302655D01*
X1236920Y303310D01*
X1236366Y303956D01*
X1238501Y303956D01*
X1239061Y303325D01*
X1239584Y302684D01*
X1240069Y302033D01*
X1240516Y301372D01*
X1240925Y300700D01*
X1241295Y300019D01*
X1241628Y299327D01*
X1241923Y298625D01*
X1242182Y297908D01*
X1242406Y297168D01*
X1242596Y296407D01*
X1242751Y295624D01*
X1242872Y294820D01*
X1242959Y293994D01*
X1243010Y293146D01*
X1243028Y292277D01*
X1243028Y292228D01*
X1243010Y291352D01*
X1242958Y290500D01*
X1242871Y289670D01*
X1242750Y288863D01*
X1242594Y288078D01*
X1242403Y287316D01*
X1242177Y286577D01*
X1241917Y285860D01*
X1241621Y285160D01*
X1241287Y284470D01*
X1240916Y283791D01*
X1240508Y283122D01*
X1240062Y282463D01*
X1239579Y281814D01*
X1239059Y281176D01*
X1238501Y280548D01*
G37*
G36*
X1132564Y312224D02*
X1132243Y312235D01*
X1131943Y312271D01*
X1131663Y312329D01*
X1131404Y312412D01*
X1131166Y312517D01*
X1130949Y312646D01*
X1130752Y312799D01*
X1130576Y312975D01*
X1130421Y313175D01*
X1130286Y313398D01*
X1130173Y313644D01*
X1130079Y313914D01*
X1130007Y314208D01*
X1129955Y314525D01*
X1129924Y314865D01*
X1129914Y315229D01*
X1129914Y324087D01*
X1128380Y324087D01*
X1128380Y325694D01*
X1130000Y325694D01*
X1130650Y328663D01*
X1132122Y328663D01*
X1132122Y325694D01*
X1134576Y325694D01*
X1134576Y324087D01*
X1132122Y324087D01*
X1132122Y315708D01*
X1132142Y315265D01*
X1132200Y314894D01*
X1132244Y314735D01*
X1132298Y314593D01*
X1132362Y314470D01*
X1132435Y314364D01*
X1132520Y314274D01*
X1132620Y314195D01*
X1132734Y314129D01*
X1132863Y314075D01*
X1133006Y314032D01*
X1133163Y314002D01*
X1133335Y313984D01*
X1133521Y313978D01*
X1133766Y313989D01*
X1134060Y314021D01*
X1134797Y314150D01*
X1134797Y312518D01*
X1134248Y312389D01*
X1133692Y312297D01*
X1133131Y312242D01*
X1132564Y312224D01*
G37*
G36*
X1226126Y312224D02*
X1225805Y312235D01*
X1225505Y312271D01*
X1225226Y312329D01*
X1224967Y312412D01*
X1224729Y312517D01*
X1224511Y312646D01*
X1224315Y312799D01*
X1224139Y312975D01*
X1223984Y313175D01*
X1223849Y313398D01*
X1223735Y313644D01*
X1223642Y313914D01*
X1223569Y314208D01*
X1223518Y314525D01*
X1223487Y314865D01*
X1223476Y315229D01*
X1223476Y324087D01*
X1221943Y324087D01*
X1221943Y325694D01*
X1223562Y325694D01*
X1224212Y328663D01*
X1225685Y328663D01*
X1225685Y325694D01*
X1228138Y325694D01*
X1228138Y324087D01*
X1225685Y324087D01*
X1225685Y315708D01*
X1225704Y315265D01*
X1225763Y314894D01*
X1225807Y314735D01*
X1225861Y314593D01*
X1225924Y314470D01*
X1225997Y314364D01*
X1226083Y314274D01*
X1226183Y314195D01*
X1226297Y314129D01*
X1226425Y314075D01*
X1226568Y314032D01*
X1226725Y314002D01*
X1226897Y313984D01*
X1227083Y313978D01*
X1227328Y313989D01*
X1227623Y314021D01*
X1228359Y314150D01*
X1228359Y312518D01*
X1227810Y312389D01*
X1227255Y312297D01*
X1226694Y312242D01*
X1226126Y312224D01*
G37*
G36*
X1234965Y289970D02*
X1222758Y289970D01*
X1222758Y291786D01*
X1234965Y291786D01*
X1234965Y289970D01*
G37*
G36*
X1234965Y296251D02*
X1222758Y296251D01*
X1222758Y298067D01*
X1234965Y298067D01*
X1234965Y296251D01*
G37*
G36*
X1171780Y285750D02*
X1169388Y285750D01*
X1169388Y288437D01*
X1171780Y288437D01*
X1171780Y285750D01*
G37*
G36*
X1195499Y285750D02*
X1193107Y285750D01*
X1193107Y288437D01*
X1195499Y288437D01*
X1195499Y285750D01*
G37*
G36*
X1163978Y312420D02*
X1161549Y312420D01*
X1168603Y329706D01*
X1171265Y329706D01*
X1178209Y312420D01*
X1175817Y312420D01*
X1173842Y317474D01*
X1165966Y317474D01*
X1163978Y312420D01*
G37*
%LPC*%
G36*
X1173142Y319302D02*
X1170922Y325007D01*
X1170578Y325909D01*
X1170235Y326921D01*
X1169904Y327939D01*
X1169793Y327596D01*
X1169413Y326433D01*
X1168885Y324983D01*
X1166677Y319302D01*
X1173142Y319302D01*
G37*
%LPD*%
G36*
X1157284Y285505D02*
X1156630Y285522D01*
X1155999Y285572D01*
X1155390Y285656D01*
X1154805Y285775D01*
X1154242Y285926D01*
X1153702Y286112D01*
X1153184Y286331D01*
X1152690Y286584D01*
X1152221Y286869D01*
X1151781Y287184D01*
X1151369Y287529D01*
X1150986Y287905D01*
X1150632Y288310D01*
X1150306Y288745D01*
X1150008Y289211D01*
X1149740Y289706D01*
X1149501Y290228D01*
X1149294Y290770D01*
X1149119Y291334D01*
X1148976Y291919D01*
X1148864Y292526D01*
X1148785Y293153D01*
X1148737Y293802D01*
X1148721Y294473D01*
X1148730Y294984D01*
X1148757Y295481D01*
X1148801Y295964D01*
X1148863Y296433D01*
X1148943Y296888D01*
X1149040Y297328D01*
X1149156Y297755D01*
X1149289Y298167D01*
X1149439Y298565D01*
X1149608Y298949D01*
X1149794Y299319D01*
X1149998Y299675D01*
X1150220Y300016D01*
X1150459Y300344D01*
X1150716Y300657D01*
X1150991Y300956D01*
X1151281Y301239D01*
X1151586Y301504D01*
X1151904Y301751D01*
X1152237Y301979D01*
X1152583Y302189D01*
X1152943Y302380D01*
X1153317Y302554D01*
X1153705Y302709D01*
X1154107Y302846D01*
X1154523Y302965D01*
X1154952Y303065D01*
X1155396Y303147D01*
X1155853Y303211D01*
X1156325Y303257D01*
X1156810Y303284D01*
X1157309Y303293D01*
X1157957Y303277D01*
X1158584Y303228D01*
X1159189Y303146D01*
X1159772Y303031D01*
X1160333Y302884D01*
X1160872Y302703D01*
X1161389Y302490D01*
X1161885Y302244D01*
X1162355Y301967D01*
X1162797Y301661D01*
X1163210Y301324D01*
X1163595Y300958D01*
X1163951Y300562D01*
X1164278Y300136D01*
X1164577Y299681D01*
X1164848Y299196D01*
X1165088Y298685D01*
X1165296Y298151D01*
X1165472Y297594D01*
X1165616Y297015D01*
X1165728Y296413D01*
X1165808Y295789D01*
X1165856Y295142D01*
X1165872Y294473D01*
X1165856Y293805D01*
X1165807Y293159D01*
X1165726Y292534D01*
X1165613Y291930D01*
X1165467Y291347D01*
X1165289Y290785D01*
X1165078Y290245D01*
X1164835Y289725D01*
X1164562Y289230D01*
X1164261Y288766D01*
X1163931Y288330D01*
X1163573Y287925D01*
X1163187Y287548D01*
X1162773Y287201D01*
X1162331Y286884D01*
X1161860Y286596D01*
X1161365Y286341D01*
X1160847Y286119D01*
X1160308Y285931D01*
X1159747Y285778D01*
X1159164Y285658D01*
X1158559Y285573D01*
X1157933Y285522D01*
X1157284Y285505D01*
G37*
%LPC*%
G36*
X1157284Y287406D02*
X1157653Y287413D01*
X1158011Y287435D01*
X1158358Y287471D01*
X1158694Y287522D01*
X1159019Y287586D01*
X1159334Y287666D01*
X1159637Y287760D01*
X1159930Y287868D01*
X1160211Y287990D01*
X1160482Y288127D01*
X1160742Y288279D01*
X1160991Y288445D01*
X1161229Y288625D01*
X1161457Y288820D01*
X1161673Y289029D01*
X1161879Y289253D01*
X1162073Y289489D01*
X1162254Y289738D01*
X1162423Y289999D01*
X1162579Y290271D01*
X1162723Y290556D01*
X1162854Y290852D01*
X1162973Y291160D01*
X1163079Y291481D01*
X1163173Y291813D01*
X1163255Y292157D01*
X1163323Y292513D01*
X1163380Y292881D01*
X1163423Y293261D01*
X1163455Y293653D01*
X1163473Y294057D01*
X1163480Y294473D01*
X1163473Y294870D01*
X1163455Y295258D01*
X1163423Y295634D01*
X1163379Y295999D01*
X1163322Y296354D01*
X1163253Y296698D01*
X1163171Y297030D01*
X1163076Y297353D01*
X1162969Y297664D01*
X1162850Y297964D01*
X1162717Y298254D01*
X1162572Y298533D01*
X1162415Y298800D01*
X1162245Y299058D01*
X1162062Y299304D01*
X1161866Y299539D01*
X1161660Y299762D01*
X1161442Y299971D01*
X1161215Y300165D01*
X1160977Y300344D01*
X1160728Y300510D01*
X1160469Y300661D01*
X1160200Y300797D01*
X1159920Y300919D01*
X1159630Y301027D01*
X1159330Y301121D01*
X1159019Y301200D01*
X1158698Y301265D01*
X1158366Y301315D01*
X1158024Y301351D01*
X1157672Y301372D01*
X1157309Y301380D01*
X1156943Y301372D01*
X1156588Y301351D01*
X1156243Y301316D01*
X1155909Y301266D01*
X1155585Y301202D01*
X1155272Y301124D01*
X1154969Y301032D01*
X1154677Y300926D01*
X1154396Y300805D01*
X1154125Y300670D01*
X1153865Y300521D01*
X1153615Y300358D01*
X1153375Y300181D01*
X1153147Y299989D01*
X1152928Y299784D01*
X1152721Y299564D01*
X1152525Y299331D01*
X1152341Y299087D01*
X1152170Y298832D01*
X1152012Y298565D01*
X1151867Y298286D01*
X1151734Y297997D01*
X1151614Y297696D01*
X1151506Y297383D01*
X1151411Y297059D01*
X1151329Y296724D01*
X1151259Y296377D01*
X1151202Y296019D01*
X1151158Y295650D01*
X1151127Y295269D01*
X1151108Y294876D01*
X1151101Y294473D01*
X1151108Y294071D01*
X1151127Y293681D01*
X1151159Y293301D01*
X1151204Y292931D01*
X1151261Y292572D01*
X1151332Y292223D01*
X1151415Y291885D01*
X1151511Y291557D01*
X1151619Y291240D01*
X1151741Y290934D01*
X1151875Y290637D01*
X1152023Y290352D01*
X1152182Y290076D01*
X1152355Y289812D01*
X1152541Y289558D01*
X1152739Y289314D01*
X1152949Y289083D01*
X1153168Y288867D01*
X1153398Y288666D01*
X1153637Y288479D01*
X1153887Y288308D01*
X1154146Y288151D01*
X1154415Y288010D01*
X1154694Y287883D01*
X1154983Y287771D01*
X1155282Y287674D01*
X1155591Y287592D01*
X1155910Y287525D01*
X1156239Y287473D01*
X1156577Y287436D01*
X1156926Y287414D01*
X1157284Y287406D01*
G37*
%LPD*%
G36*
X1120328Y285750D02*
X1113311Y285750D01*
X1113311Y303036D01*
X1119592Y303036D01*
X1120329Y303019D01*
X1121018Y302970D01*
X1121660Y302888D01*
X1122254Y302773D01*
X1122801Y302626D01*
X1123300Y302446D01*
X1123752Y302233D01*
X1124156Y301987D01*
X1124513Y301708D01*
X1124822Y301397D01*
X1125083Y301053D01*
X1125297Y300676D01*
X1125463Y300266D01*
X1125582Y299823D01*
X1125653Y299348D01*
X1125671Y299098D01*
X1125677Y298840D01*
X1125664Y298464D01*
X1125624Y298104D01*
X1125556Y297759D01*
X1125463Y297429D01*
X1125342Y297115D01*
X1125194Y296816D01*
X1125020Y296532D01*
X1124818Y296264D01*
X1124593Y296014D01*
X1124453Y295886D01*
X1124345Y295785D01*
X1124074Y295578D01*
X1123782Y295393D01*
X1123467Y295229D01*
X1123130Y295086D01*
X1122771Y294965D01*
X1122389Y294865D01*
X1122890Y294790D01*
X1123361Y294687D01*
X1123802Y294556D01*
X1124214Y294397D01*
X1124597Y294211D01*
X1124950Y293997D01*
X1125273Y293755D01*
X1125409Y293630D01*
X1125567Y293485D01*
X1125828Y293192D01*
X1126055Y292880D01*
X1126247Y292550D01*
X1126404Y292201D01*
X1126526Y291834D01*
X1126613Y291448D01*
X1126666Y291044D01*
X1126683Y290620D01*
X1126677Y290336D01*
X1126657Y290060D01*
X1126624Y289792D01*
X1126578Y289531D01*
X1126519Y289279D01*
X1126447Y289035D01*
X1126263Y288570D01*
X1126027Y288138D01*
X1125738Y287737D01*
X1125396Y287369D01*
X1125003Y287032D01*
X1124562Y286732D01*
X1124080Y286471D01*
X1123557Y286251D01*
X1122994Y286071D01*
X1122389Y285930D01*
X1121743Y285830D01*
X1121056Y285770D01*
X1120328Y285750D01*
G37*
%LPC*%
G36*
X1120206Y287627D02*
X1120724Y287639D01*
X1121206Y287677D01*
X1121652Y287739D01*
X1122061Y287826D01*
X1122434Y287939D01*
X1122770Y288076D01*
X1123070Y288238D01*
X1123334Y288424D01*
X1123564Y288636D01*
X1123763Y288872D01*
X1123932Y289133D01*
X1124070Y289418D01*
X1124177Y289728D01*
X1124254Y290062D01*
X1124300Y290421D01*
X1124315Y290804D01*
X1124299Y291174D01*
X1124248Y291520D01*
X1124165Y291843D01*
X1124047Y292141D01*
X1123896Y292415D01*
X1123712Y292666D01*
X1123494Y292893D01*
X1123242Y293096D01*
X1122957Y293274D01*
X1122638Y293430D01*
X1122286Y293561D01*
X1121900Y293668D01*
X1121481Y293752D01*
X1121028Y293811D01*
X1120542Y293847D01*
X1120022Y293859D01*
X1115654Y293859D01*
X1115654Y287627D01*
X1120206Y287627D01*
G37*
G36*
X1119592Y295687D02*
X1120047Y295698D01*
X1120471Y295731D01*
X1120866Y295786D01*
X1121232Y295863D01*
X1121567Y295963D01*
X1121873Y296084D01*
X1122149Y296227D01*
X1122396Y296393D01*
X1122613Y296581D01*
X1122801Y296792D01*
X1122960Y297028D01*
X1123090Y297287D01*
X1123192Y297569D01*
X1123264Y297875D01*
X1123307Y298205D01*
X1123322Y298558D01*
X1123307Y298895D01*
X1123262Y299207D01*
X1123187Y299495D01*
X1123083Y299757D01*
X1122948Y299995D01*
X1122784Y300207D01*
X1122589Y300395D01*
X1122365Y300558D01*
X1122112Y300698D01*
X1121833Y300821D01*
X1121526Y300924D01*
X1121193Y301008D01*
X1120833Y301074D01*
X1120446Y301121D01*
X1120033Y301149D01*
X1119592Y301159D01*
X1115654Y301159D01*
X1115654Y295687D01*
X1119592Y295687D01*
G37*
%LPD*%
G36*
X431850Y182372D02*
X430781Y182372D01*
X430781Y190262D01*
X434493Y190262D01*
X434817Y190253D01*
X435122Y190225D01*
X435408Y190178D01*
X435674Y190113D01*
X435922Y190029D01*
X436151Y189927D01*
X436361Y189806D01*
X436551Y189666D01*
X436721Y189510D01*
X436869Y189339D01*
X436993Y189153D01*
X437095Y188953D01*
X437175Y188738D01*
X437231Y188508D01*
X437265Y188264D01*
X437277Y188006D01*
X437269Y187790D01*
X437245Y187583D01*
X437205Y187386D01*
X437149Y187196D01*
X437076Y187016D01*
X436988Y186844D01*
X436884Y186681D01*
X436764Y186527D01*
X436630Y186384D01*
X436484Y186255D01*
X436325Y186140D01*
X436254Y186098D01*
X436155Y186039D01*
X435972Y185951D01*
X435777Y185877D01*
X435570Y185817D01*
X435350Y185771D01*
X436304Y184324D01*
X437590Y182372D01*
X436358Y182372D01*
X434309Y185648D01*
X431850Y185648D01*
X431850Y182372D01*
G37*
%LPC*%
G36*
X434432Y186494D02*
X434637Y186500D01*
X434831Y186518D01*
X435012Y186549D01*
X435182Y186592D01*
X435339Y186648D01*
X435484Y186716D01*
X435618Y186796D01*
X435739Y186888D01*
X435848Y186992D01*
X435942Y187106D01*
X436021Y187229D01*
X436086Y187362D01*
X436136Y187505D01*
X436173Y187659D01*
X436194Y187822D01*
X436201Y187994D01*
X436194Y188161D01*
X436172Y188318D01*
X436136Y188465D01*
X436085Y188601D01*
X436019Y188727D01*
X435938Y188843D01*
X435843Y188949D01*
X435734Y189044D01*
X435610Y189129D01*
X435474Y189202D01*
X435163Y189315D01*
X434801Y189383D01*
X434387Y189406D01*
X431850Y189406D01*
X431850Y186494D01*
X434432Y186494D01*
G37*
%LPD*%
G36*
X443939Y182372D02*
X438995Y182372D01*
X438995Y183229D01*
X441005Y183229D01*
X441005Y189299D01*
X439224Y188028D01*
X439224Y188980D01*
X441089Y190262D01*
X442019Y190262D01*
X442019Y183229D01*
X443939Y183229D01*
X443939Y182372D01*
G37*
G36*
X1016050Y189310D02*
X1014981Y189310D01*
X1014981Y197200D01*
X1018693Y197200D01*
X1019017Y197191D01*
X1019322Y197163D01*
X1019608Y197116D01*
X1019874Y197051D01*
X1020122Y196967D01*
X1020351Y196865D01*
X1020561Y196744D01*
X1020751Y196604D01*
X1020921Y196448D01*
X1021069Y196277D01*
X1021193Y196091D01*
X1021295Y195891D01*
X1021375Y195676D01*
X1021431Y195446D01*
X1021465Y195202D01*
X1021477Y194944D01*
X1021469Y194728D01*
X1021445Y194521D01*
X1021405Y194324D01*
X1021349Y194134D01*
X1021276Y193954D01*
X1021188Y193782D01*
X1021084Y193619D01*
X1020964Y193465D01*
X1020830Y193322D01*
X1020684Y193193D01*
X1020525Y193078D01*
X1020454Y193036D01*
X1020355Y192977D01*
X1020172Y192889D01*
X1019977Y192815D01*
X1019770Y192755D01*
X1019550Y192709D01*
X1020504Y191262D01*
X1021790Y189310D01*
X1020558Y189310D01*
X1018509Y192586D01*
X1016050Y192586D01*
X1016050Y189310D01*
G37*
%LPC*%
G36*
X1018632Y193432D02*
X1018837Y193438D01*
X1019031Y193456D01*
X1019212Y193487D01*
X1019382Y193530D01*
X1019539Y193586D01*
X1019684Y193654D01*
X1019818Y193734D01*
X1019939Y193826D01*
X1020048Y193930D01*
X1020142Y194044D01*
X1020221Y194167D01*
X1020286Y194300D01*
X1020336Y194443D01*
X1020373Y194597D01*
X1020394Y194760D01*
X1020401Y194932D01*
X1020394Y195099D01*
X1020372Y195256D01*
X1020336Y195403D01*
X1020285Y195539D01*
X1020219Y195665D01*
X1020138Y195781D01*
X1020043Y195887D01*
X1019934Y195982D01*
X1019810Y196067D01*
X1019674Y196140D01*
X1019363Y196253D01*
X1019001Y196321D01*
X1018587Y196344D01*
X1016050Y196344D01*
X1016050Y193432D01*
X1018632Y193432D01*
G37*
%LPD*%
G36*
X1028123Y189310D02*
X1022898Y189310D01*
X1022898Y190021D01*
X1023049Y190339D01*
X1023215Y190638D01*
X1023397Y190917D01*
X1023595Y191178D01*
X1024017Y191655D01*
X1024460Y192085D01*
X1024912Y192476D01*
X1025359Y192838D01*
X1025783Y193185D01*
X1026163Y193532D01*
X1026487Y193888D01*
X1026623Y194072D01*
X1026742Y194260D01*
X1026839Y194457D01*
X1026908Y194666D01*
X1026950Y194888D01*
X1026963Y195123D01*
X1026940Y195429D01*
X1026868Y195700D01*
X1026749Y195933D01*
X1026583Y196131D01*
X1026374Y196288D01*
X1026128Y196400D01*
X1025845Y196467D01*
X1025524Y196489D01*
X1025216Y196467D01*
X1024937Y196402D01*
X1024686Y196292D01*
X1024463Y196139D01*
X1024276Y195946D01*
X1024132Y195718D01*
X1024031Y195455D01*
X1023973Y195156D01*
X1022943Y195252D01*
X1022980Y195482D01*
X1023035Y195701D01*
X1023108Y195907D01*
X1023200Y196101D01*
X1023309Y196284D01*
X1023437Y196454D01*
X1023582Y196612D01*
X1023746Y196758D01*
X1023925Y196889D01*
X1024117Y197003D01*
X1024321Y197099D01*
X1024537Y197178D01*
X1024765Y197239D01*
X1025006Y197283D01*
X1025259Y197309D01*
X1025524Y197318D01*
X1025814Y197309D01*
X1026086Y197283D01*
X1026341Y197239D01*
X1026579Y197177D01*
X1026800Y197098D01*
X1027003Y197001D01*
X1027189Y196887D01*
X1027358Y196755D01*
X1027509Y196607D01*
X1027639Y196444D01*
X1027749Y196267D01*
X1027839Y196074D01*
X1027909Y195867D01*
X1027959Y195645D01*
X1027989Y195408D01*
X1027999Y195156D01*
X1027986Y194927D01*
X1027947Y194699D01*
X1027881Y194471D01*
X1027789Y194244D01*
X1027672Y194017D01*
X1027528Y193790D01*
X1027359Y193563D01*
X1027165Y193336D01*
X1026911Y193078D01*
X1026562Y192758D01*
X1025580Y191931D01*
X1025002Y191430D01*
X1024555Y190982D01*
X1024378Y190772D01*
X1024228Y190566D01*
X1024104Y190365D01*
X1024007Y190167D01*
X1028123Y190167D01*
X1028123Y189310D01*
G37*
G36*
X1121410Y820281D02*
X1113520Y820281D01*
X1113520Y823994D01*
X1113529Y824317D01*
X1113557Y824622D01*
X1113604Y824908D01*
X1113669Y825174D01*
X1113753Y825422D01*
X1113855Y825651D01*
X1113976Y825861D01*
X1114116Y826052D01*
X1114272Y826222D01*
X1114443Y826369D01*
X1114629Y826493D01*
X1114829Y826595D01*
X1115044Y826675D01*
X1115274Y826731D01*
X1115518Y826765D01*
X1115776Y826777D01*
X1115992Y826769D01*
X1116199Y826745D01*
X1116396Y826705D01*
X1116586Y826649D01*
X1116766Y826577D01*
X1116938Y826489D01*
X1117101Y826384D01*
X1117255Y826264D01*
X1117398Y826130D01*
X1117527Y825984D01*
X1117642Y825825D01*
X1117684Y825754D01*
X1117743Y825655D01*
X1117831Y825472D01*
X1117905Y825277D01*
X1117965Y825070D01*
X1118011Y824850D01*
X1119458Y825804D01*
X1121410Y827090D01*
X1121410Y825858D01*
X1118134Y823809D01*
X1118134Y821350D01*
X1121410Y821350D01*
X1121410Y820281D01*
G37*
%LPC*%
G36*
X1117288Y821350D02*
X1117288Y823932D01*
X1117282Y824137D01*
X1117264Y824331D01*
X1117233Y824512D01*
X1117190Y824682D01*
X1117134Y824839D01*
X1117066Y824985D01*
X1116986Y825118D01*
X1116894Y825240D01*
X1116790Y825348D01*
X1116676Y825442D01*
X1116553Y825521D01*
X1116420Y825586D01*
X1116277Y825637D01*
X1116123Y825673D01*
X1115961Y825694D01*
X1115788Y825702D01*
X1115621Y825694D01*
X1115464Y825672D01*
X1115317Y825636D01*
X1115181Y825585D01*
X1115055Y825519D01*
X1114939Y825439D01*
X1114833Y825344D01*
X1114738Y825234D01*
X1114653Y825111D01*
X1114580Y824974D01*
X1114467Y824663D01*
X1114399Y824301D01*
X1114376Y823887D01*
X1114376Y821350D01*
X1117288Y821350D01*
G37*
%LPD*%
G36*
X1119383Y828058D02*
X1119288Y829100D01*
X1119616Y829171D01*
X1119900Y829283D01*
X1120141Y829436D01*
X1120338Y829630D01*
X1120491Y829866D01*
X1120600Y830142D01*
X1120666Y830460D01*
X1120688Y830819D01*
X1120664Y831179D01*
X1120594Y831499D01*
X1120477Y831777D01*
X1120312Y832014D01*
X1120213Y832116D01*
X1120102Y832204D01*
X1119980Y832279D01*
X1119846Y832340D01*
X1119701Y832387D01*
X1119545Y832421D01*
X1119377Y832442D01*
X1119198Y832448D01*
X1119041Y832441D01*
X1118894Y832417D01*
X1118755Y832379D01*
X1118625Y832325D01*
X1118504Y832255D01*
X1118391Y832170D01*
X1118288Y832069D01*
X1118193Y831953D01*
X1118108Y831822D01*
X1118035Y831678D01*
X1117973Y831519D01*
X1117922Y831347D01*
X1117854Y830962D01*
X1117832Y830522D01*
X1117832Y829951D01*
X1116958Y829951D01*
X1116958Y830500D01*
X1116935Y830891D01*
X1116868Y831235D01*
X1116755Y831533D01*
X1116597Y831785D01*
X1116399Y831985D01*
X1116287Y832063D01*
X1116166Y832127D01*
X1116037Y832177D01*
X1115899Y832213D01*
X1115753Y832234D01*
X1115597Y832241D01*
X1115297Y832218D01*
X1115031Y832148D01*
X1114798Y832032D01*
X1114598Y831869D01*
X1114437Y831660D01*
X1114323Y831406D01*
X1114254Y831107D01*
X1114231Y830763D01*
X1114252Y830446D01*
X1114316Y830160D01*
X1114423Y829907D01*
X1114572Y829685D01*
X1114761Y829501D01*
X1114984Y829359D01*
X1115242Y829261D01*
X1115536Y829206D01*
X1115457Y828192D01*
X1115222Y828230D01*
X1114999Y828285D01*
X1114791Y828358D01*
X1114595Y828449D01*
X1114413Y828559D01*
X1114243Y828686D01*
X1114088Y828832D01*
X1113945Y828996D01*
X1113818Y829175D01*
X1113708Y829367D01*
X1113614Y829570D01*
X1113538Y829786D01*
X1113478Y830015D01*
X1113436Y830256D01*
X1113411Y830509D01*
X1113402Y830774D01*
X1113411Y831063D01*
X1113437Y831335D01*
X1113480Y831590D01*
X1113540Y831829D01*
X1113618Y832051D01*
X1113712Y832257D01*
X1113824Y832446D01*
X1113954Y832619D01*
X1114098Y832773D01*
X1114257Y832907D01*
X1114428Y833020D01*
X1114614Y833113D01*
X1114813Y833185D01*
X1115025Y833236D01*
X1115251Y833267D01*
X1115491Y833277D01*
X1115675Y833271D01*
X1115851Y833251D01*
X1116018Y833218D01*
X1116176Y833172D01*
X1116325Y833112D01*
X1116466Y833039D01*
X1116720Y832854D01*
X1116938Y832619D01*
X1117117Y832336D01*
X1117258Y832004D01*
X1117361Y831625D01*
X1117384Y831625D01*
X1117414Y831840D01*
X1117456Y832043D01*
X1117512Y832234D01*
X1117580Y832412D01*
X1117660Y832578D01*
X1117753Y832732D01*
X1117859Y832874D01*
X1117977Y833003D01*
X1118106Y833118D01*
X1118243Y833218D01*
X1118387Y833303D01*
X1118540Y833372D01*
X1118701Y833426D01*
X1118870Y833465D01*
X1119047Y833488D01*
X1119232Y833496D01*
X1119497Y833485D01*
X1119747Y833452D01*
X1119981Y833398D01*
X1120200Y833322D01*
X1120404Y833224D01*
X1120592Y833105D01*
X1120765Y832964D01*
X1120923Y832801D01*
X1121063Y832618D01*
X1121185Y832417D01*
X1121288Y832197D01*
X1121372Y831958D01*
X1121438Y831701D01*
X1121485Y831426D01*
X1121513Y831132D01*
X1121522Y830819D01*
X1121514Y830527D01*
X1121488Y830250D01*
X1121446Y829988D01*
X1121387Y829742D01*
X1121311Y829510D01*
X1121218Y829294D01*
X1121108Y829093D01*
X1120982Y828906D01*
X1120838Y828737D01*
X1120679Y828586D01*
X1120503Y828452D01*
X1120312Y828337D01*
X1120104Y828240D01*
X1119880Y828161D01*
X1119639Y828101D01*
X1119383Y828058D01*
G37*
G36*
X1205589Y819302D02*
X1204520Y819302D01*
X1204520Y827193D01*
X1208233Y827193D01*
X1208556Y827183D01*
X1208861Y827156D01*
X1209147Y827109D01*
X1209413Y827044D01*
X1209661Y826960D01*
X1209890Y826857D01*
X1210100Y826736D01*
X1210291Y826596D01*
X1210461Y826440D01*
X1210608Y826269D01*
X1210732Y826083D01*
X1210834Y825883D01*
X1210914Y825668D01*
X1210970Y825439D01*
X1211004Y825195D01*
X1211016Y824936D01*
X1211008Y824721D01*
X1210984Y824514D01*
X1210944Y824316D01*
X1210888Y824127D01*
X1210816Y823946D01*
X1210728Y823775D01*
X1210623Y823612D01*
X1210503Y823458D01*
X1210369Y823315D01*
X1210223Y823186D01*
X1210064Y823070D01*
X1209993Y823028D01*
X1209894Y822969D01*
X1209711Y822881D01*
X1209516Y822808D01*
X1209309Y822748D01*
X1209089Y822702D01*
X1210043Y821255D01*
X1211329Y819302D01*
X1210097Y819302D01*
X1208048Y822578D01*
X1205589Y822578D01*
X1205589Y819302D01*
G37*
%LPC*%
G36*
X1208171Y823424D02*
X1208376Y823430D01*
X1208570Y823449D01*
X1208751Y823480D01*
X1208921Y823523D01*
X1209078Y823578D01*
X1209224Y823646D01*
X1209357Y823726D01*
X1209479Y823819D01*
X1209587Y823922D01*
X1209681Y824036D01*
X1209760Y824159D01*
X1209825Y824293D01*
X1209876Y824436D01*
X1209912Y824589D01*
X1209933Y824752D01*
X1209941Y824925D01*
X1209933Y825092D01*
X1209911Y825249D01*
X1209875Y825395D01*
X1209824Y825532D01*
X1209758Y825658D01*
X1209678Y825774D01*
X1209583Y825879D01*
X1209473Y825975D01*
X1209350Y826059D01*
X1209213Y826133D01*
X1208902Y826246D01*
X1208540Y826313D01*
X1208126Y826336D01*
X1205589Y826336D01*
X1205589Y823424D01*
X1208171Y823424D01*
G37*
%LPD*%
G36*
X1216794Y819302D02*
X1215842Y819302D01*
X1215842Y821089D01*
X1212123Y821089D01*
X1212123Y821873D01*
X1215735Y827193D01*
X1216794Y827193D01*
X1216794Y821884D01*
X1217903Y821884D01*
X1217903Y821089D01*
X1216794Y821089D01*
X1216794Y819302D01*
G37*
%LPC*%
G36*
X1215842Y821884D02*
X1215842Y826056D01*
X1215685Y825759D01*
X1215467Y825390D01*
X1213445Y822410D01*
X1213143Y821996D01*
X1213053Y821884D01*
X1215842Y821884D01*
G37*
%LPD*%
G36*
X1165434Y819720D02*
X1164364Y819720D01*
X1164364Y827610D01*
X1168077Y827610D01*
X1168401Y827601D01*
X1168705Y827573D01*
X1168991Y827526D01*
X1169258Y827461D01*
X1169506Y827377D01*
X1169734Y827275D01*
X1169944Y827154D01*
X1170135Y827014D01*
X1170305Y826857D01*
X1170452Y826686D01*
X1170577Y826501D01*
X1170679Y826301D01*
X1170758Y826086D01*
X1170815Y825856D01*
X1170849Y825612D01*
X1170860Y825353D01*
X1170852Y825138D01*
X1170828Y824931D01*
X1170788Y824733D01*
X1170732Y824544D01*
X1170660Y824364D01*
X1170572Y824192D01*
X1170468Y824029D01*
X1170348Y823875D01*
X1170213Y823732D01*
X1170067Y823603D01*
X1169909Y823488D01*
X1169838Y823446D01*
X1169738Y823386D01*
X1169555Y823299D01*
X1169360Y823225D01*
X1169153Y823165D01*
X1168934Y823119D01*
X1169887Y821672D01*
X1171174Y819720D01*
X1169942Y819720D01*
X1167892Y822996D01*
X1165434Y822996D01*
X1165434Y819720D01*
G37*
%LPC*%
G36*
X1168015Y823841D02*
X1168221Y823848D01*
X1168414Y823866D01*
X1168596Y823897D01*
X1168765Y823940D01*
X1168922Y823996D01*
X1169068Y824063D01*
X1169201Y824144D01*
X1169323Y824236D01*
X1169431Y824340D01*
X1169525Y824453D01*
X1169604Y824577D01*
X1169669Y824710D01*
X1169720Y824853D01*
X1169756Y825006D01*
X1169778Y825169D01*
X1169785Y825342D01*
X1169778Y825509D01*
X1169756Y825666D01*
X1169719Y825813D01*
X1169668Y825949D01*
X1169602Y826075D01*
X1169522Y826191D01*
X1169427Y826297D01*
X1169317Y826392D01*
X1169194Y826477D01*
X1169058Y826550D01*
X1168747Y826663D01*
X1168384Y826731D01*
X1167970Y826753D01*
X1165434Y826753D01*
X1165434Y823841D01*
X1168015Y823841D01*
G37*
%LPD*%
G36*
X1174801Y819608D02*
X1174532Y819615D01*
X1174276Y819638D01*
X1174034Y819676D01*
X1173805Y819728D01*
X1173589Y819796D01*
X1173386Y819879D01*
X1173197Y819977D01*
X1173021Y820089D01*
X1172859Y820217D01*
X1172713Y820357D01*
X1172582Y820511D01*
X1172468Y820679D01*
X1172368Y820860D01*
X1172284Y821054D01*
X1172216Y821262D01*
X1172164Y821484D01*
X1173183Y821601D01*
X1173278Y821327D01*
X1173405Y821089D01*
X1173563Y820888D01*
X1173753Y820724D01*
X1173973Y820596D01*
X1174226Y820504D01*
X1174509Y820449D01*
X1174824Y820431D01*
X1175021Y820439D01*
X1175208Y820462D01*
X1175383Y820500D01*
X1175548Y820554D01*
X1175701Y820622D01*
X1175843Y820707D01*
X1175975Y820806D01*
X1176095Y820921D01*
X1176203Y821049D01*
X1176296Y821189D01*
X1176375Y821340D01*
X1176439Y821503D01*
X1176490Y821677D01*
X1176525Y821862D01*
X1176547Y822059D01*
X1176554Y822268D01*
X1176547Y822450D01*
X1176525Y822622D01*
X1176489Y822786D01*
X1176439Y822941D01*
X1176374Y823087D01*
X1176294Y823224D01*
X1176200Y823353D01*
X1176092Y823472D01*
X1175972Y823579D01*
X1175841Y823673D01*
X1175700Y823752D01*
X1175550Y823816D01*
X1175389Y823866D01*
X1175218Y823902D01*
X1175037Y823924D01*
X1174846Y823931D01*
X1174645Y823923D01*
X1174451Y823899D01*
X1174264Y823859D01*
X1174085Y823802D01*
X1173908Y823727D01*
X1173732Y823629D01*
X1173555Y823508D01*
X1173379Y823365D01*
X1172393Y823365D01*
X1172657Y827610D01*
X1177142Y827610D01*
X1177142Y826753D01*
X1173575Y826753D01*
X1173424Y824250D01*
X1173593Y824368D01*
X1173771Y824471D01*
X1173960Y824557D01*
X1174159Y824628D01*
X1174367Y824683D01*
X1174586Y824723D01*
X1174815Y824746D01*
X1175053Y824754D01*
X1175337Y824744D01*
X1175606Y824712D01*
X1175860Y824658D01*
X1176100Y824583D01*
X1176324Y824487D01*
X1176534Y824370D01*
X1176729Y824231D01*
X1176910Y824071D01*
X1177072Y823894D01*
X1177212Y823704D01*
X1177331Y823500D01*
X1177428Y823284D01*
X1177504Y823055D01*
X1177558Y822813D01*
X1177590Y822558D01*
X1177601Y822290D01*
X1177590Y821986D01*
X1177555Y821699D01*
X1177497Y821428D01*
X1177416Y821174D01*
X1177311Y820937D01*
X1177184Y820716D01*
X1177033Y820512D01*
X1176859Y820325D01*
X1176665Y820157D01*
X1176452Y820011D01*
X1176222Y819888D01*
X1175974Y819787D01*
X1175708Y819709D01*
X1175423Y819653D01*
X1175121Y819619D01*
X1174801Y819608D01*
G37*
G36*
X1166998Y774700D02*
X1165001Y774700D01*
X1161366Y787041D01*
X1163109Y787041D01*
X1165325Y779202D01*
X1165704Y777709D01*
X1166052Y776171D01*
X1166538Y778273D01*
X1166794Y779248D01*
X1167284Y781035D01*
X1168969Y787041D01*
X1170572Y787041D01*
X1172717Y779360D01*
X1173155Y777621D01*
X1173488Y776171D01*
X1173567Y776478D01*
X1173952Y778120D01*
X1174642Y780668D01*
X1176414Y787041D01*
X1178156Y787041D01*
X1174522Y774700D01*
X1172525Y774700D01*
X1170388Y782539D01*
X1170129Y783566D01*
X1169775Y785175D01*
X1169389Y783476D01*
X1168713Y780940D01*
X1166998Y774700D01*
G37*
G36*
X1155393Y774525D02*
X1154844Y774537D01*
X1154325Y774574D01*
X1153835Y774635D01*
X1153375Y774721D01*
X1152945Y774831D01*
X1152544Y774966D01*
X1152172Y775125D01*
X1151831Y775309D01*
X1151519Y775517D01*
X1151237Y775750D01*
X1150984Y776007D01*
X1150761Y776289D01*
X1150567Y776595D01*
X1150403Y776925D01*
X1150269Y777281D01*
X1150165Y777660D01*
X1151785Y777984D01*
X1151865Y777716D01*
X1151964Y777465D01*
X1152084Y777233D01*
X1152223Y777020D01*
X1152382Y776825D01*
X1152560Y776649D01*
X1152758Y776491D01*
X1152976Y776351D01*
X1153214Y776229D01*
X1153473Y776123D01*
X1153752Y776033D01*
X1154051Y775960D01*
X1154371Y775903D01*
X1154712Y775862D01*
X1155073Y775838D01*
X1155455Y775830D01*
X1155848Y775839D01*
X1156219Y775865D01*
X1156566Y775908D01*
X1156890Y775969D01*
X1157191Y776047D01*
X1157469Y776143D01*
X1157724Y776256D01*
X1157955Y776386D01*
X1158162Y776533D01*
X1158340Y776697D01*
X1158492Y776876D01*
X1158615Y777072D01*
X1158712Y777285D01*
X1158780Y777513D01*
X1158822Y777758D01*
X1158836Y778019D01*
X1158818Y778307D01*
X1158767Y778567D01*
X1158680Y778798D01*
X1158560Y779000D01*
X1158408Y779181D01*
X1158228Y779344D01*
X1158020Y779491D01*
X1157784Y779622D01*
X1157523Y779740D01*
X1157237Y779848D01*
X1156927Y779946D01*
X1156593Y780034D01*
X1155061Y780393D01*
X1154373Y780555D01*
X1153774Y780717D01*
X1153263Y780879D01*
X1152840Y781041D01*
X1152481Y781208D01*
X1152163Y781384D01*
X1151884Y781569D01*
X1151645Y781764D01*
X1151439Y781972D01*
X1151258Y782196D01*
X1151104Y782438D01*
X1150975Y782697D01*
X1150873Y782974D01*
X1150801Y783270D01*
X1150757Y783587D01*
X1150743Y783923D01*
X1150762Y784308D01*
X1150818Y784670D01*
X1150913Y785009D01*
X1151046Y785326D01*
X1151216Y785620D01*
X1151425Y785892D01*
X1151671Y786140D01*
X1151956Y786366D01*
X1152275Y786568D01*
X1152628Y786742D01*
X1153013Y786889D01*
X1153430Y787010D01*
X1153881Y787104D01*
X1154364Y787171D01*
X1154880Y787211D01*
X1155428Y787225D01*
X1155938Y787215D01*
X1156418Y787184D01*
X1156866Y787134D01*
X1157283Y787064D01*
X1157669Y786973D01*
X1158025Y786863D01*
X1158349Y786732D01*
X1158643Y786581D01*
X1158910Y786406D01*
X1159157Y786202D01*
X1159383Y785971D01*
X1159589Y785711D01*
X1159773Y785422D01*
X1159937Y785105D01*
X1160080Y784760D01*
X1160202Y784387D01*
X1158555Y784098D01*
X1158480Y784335D01*
X1158389Y784555D01*
X1158283Y784758D01*
X1158161Y784944D01*
X1158024Y785114D01*
X1157872Y785266D01*
X1157705Y785402D01*
X1157522Y785521D01*
X1157322Y785625D01*
X1157104Y785715D01*
X1156868Y785791D01*
X1156613Y785853D01*
X1156340Y785901D01*
X1156049Y785936D01*
X1155739Y785957D01*
X1155411Y785963D01*
X1155052Y785956D01*
X1154715Y785933D01*
X1154399Y785895D01*
X1154106Y785841D01*
X1153834Y785772D01*
X1153585Y785688D01*
X1153357Y785588D01*
X1153151Y785473D01*
X1152969Y785343D01*
X1152810Y785198D01*
X1152676Y785037D01*
X1152567Y784862D01*
X1152481Y784672D01*
X1152420Y784466D01*
X1152384Y784246D01*
X1152372Y784010D01*
X1152391Y783738D01*
X1152447Y783490D01*
X1152542Y783267D01*
X1152674Y783069D01*
X1152842Y782890D01*
X1153043Y782725D01*
X1153277Y782574D01*
X1153545Y782438D01*
X1153901Y782302D01*
X1154397Y782150D01*
X1155035Y781984D01*
X1155814Y781803D01*
X1156948Y781536D01*
X1157501Y781387D01*
X1158030Y781212D01*
X1158530Y781007D01*
X1158998Y780770D01*
X1159216Y780636D01*
X1159419Y780487D01*
X1159608Y780325D01*
X1159781Y780148D01*
X1159939Y779956D01*
X1160078Y779747D01*
X1160199Y779522D01*
X1160303Y779281D01*
X1160385Y779020D01*
X1160444Y778738D01*
X1160479Y778433D01*
X1160491Y778107D01*
X1160470Y777692D01*
X1160407Y777301D01*
X1160303Y776935D01*
X1160157Y776592D01*
X1159969Y776273D01*
X1159740Y775979D01*
X1159468Y775708D01*
X1159155Y775462D01*
X1158804Y775242D01*
X1158419Y775052D01*
X1158000Y774891D01*
X1157547Y774759D01*
X1157060Y774657D01*
X1156538Y774583D01*
X1155983Y774540D01*
X1155393Y774525D01*
G37*
G36*
X1187325Y774700D02*
X1179591Y774700D01*
X1179591Y776040D01*
X1182736Y776040D01*
X1182736Y785534D01*
X1179950Y783546D01*
X1179950Y785035D01*
X1182867Y787041D01*
X1184321Y787041D01*
X1184321Y776040D01*
X1187325Y776040D01*
X1187325Y774700D01*
G37*
G36*
X1146576Y609600D02*
X1144579Y609600D01*
X1140944Y621941D01*
X1142687Y621941D01*
X1144903Y614102D01*
X1145282Y612609D01*
X1145630Y611071D01*
X1146116Y613173D01*
X1146372Y614148D01*
X1146862Y615935D01*
X1148547Y621941D01*
X1150150Y621941D01*
X1152295Y614260D01*
X1152733Y612521D01*
X1153066Y611071D01*
X1153145Y611378D01*
X1153530Y613020D01*
X1154220Y615568D01*
X1155992Y621941D01*
X1157734Y621941D01*
X1154100Y609600D01*
X1152103Y609600D01*
X1149966Y617439D01*
X1149707Y618466D01*
X1149353Y620075D01*
X1148967Y618376D01*
X1148291Y615840D01*
X1146576Y609600D01*
G37*
G36*
X1134971Y609425D02*
X1134422Y609437D01*
X1133903Y609474D01*
X1133413Y609535D01*
X1132953Y609621D01*
X1132523Y609731D01*
X1132122Y609866D01*
X1131750Y610025D01*
X1131409Y610209D01*
X1131097Y610417D01*
X1130815Y610650D01*
X1130562Y610907D01*
X1130339Y611189D01*
X1130145Y611495D01*
X1129981Y611825D01*
X1129847Y612181D01*
X1129743Y612560D01*
X1131363Y612884D01*
X1131443Y612616D01*
X1131542Y612365D01*
X1131662Y612133D01*
X1131801Y611920D01*
X1131960Y611725D01*
X1132138Y611549D01*
X1132336Y611391D01*
X1132554Y611251D01*
X1132792Y611129D01*
X1133051Y611023D01*
X1133330Y610933D01*
X1133629Y610860D01*
X1133949Y610803D01*
X1134290Y610762D01*
X1134651Y610738D01*
X1135033Y610730D01*
X1135426Y610739D01*
X1135797Y610765D01*
X1136144Y610808D01*
X1136468Y610869D01*
X1136769Y610947D01*
X1137047Y611043D01*
X1137302Y611156D01*
X1137533Y611286D01*
X1137740Y611433D01*
X1137918Y611597D01*
X1138070Y611776D01*
X1138193Y611972D01*
X1138290Y612185D01*
X1138358Y612413D01*
X1138400Y612658D01*
X1138414Y612919D01*
X1138396Y613207D01*
X1138345Y613467D01*
X1138258Y613698D01*
X1138138Y613900D01*
X1137986Y614081D01*
X1137806Y614244D01*
X1137598Y614391D01*
X1137362Y614522D01*
X1137101Y614640D01*
X1136815Y614748D01*
X1136505Y614846D01*
X1136171Y614934D01*
X1134639Y615293D01*
X1133951Y615455D01*
X1133352Y615617D01*
X1132841Y615779D01*
X1132418Y615941D01*
X1132059Y616108D01*
X1131741Y616284D01*
X1131462Y616469D01*
X1131223Y616664D01*
X1131017Y616872D01*
X1130836Y617096D01*
X1130682Y617338D01*
X1130553Y617597D01*
X1130451Y617874D01*
X1130379Y618170D01*
X1130335Y618487D01*
X1130321Y618823D01*
X1130340Y619208D01*
X1130396Y619570D01*
X1130491Y619909D01*
X1130624Y620226D01*
X1130794Y620520D01*
X1131003Y620792D01*
X1131249Y621040D01*
X1131534Y621266D01*
X1131853Y621468D01*
X1132206Y621642D01*
X1132591Y621789D01*
X1133008Y621910D01*
X1133459Y622004D01*
X1133942Y622071D01*
X1134458Y622111D01*
X1135006Y622125D01*
X1135516Y622115D01*
X1135996Y622084D01*
X1136444Y622034D01*
X1136861Y621964D01*
X1137247Y621873D01*
X1137603Y621763D01*
X1137927Y621632D01*
X1138221Y621481D01*
X1138488Y621306D01*
X1138735Y621102D01*
X1138961Y620871D01*
X1139167Y620611D01*
X1139351Y620322D01*
X1139515Y620005D01*
X1139658Y619660D01*
X1139780Y619287D01*
X1138133Y618998D01*
X1138058Y619235D01*
X1137967Y619455D01*
X1137861Y619658D01*
X1137739Y619844D01*
X1137602Y620014D01*
X1137450Y620166D01*
X1137283Y620302D01*
X1137100Y620421D01*
X1136900Y620525D01*
X1136682Y620615D01*
X1136446Y620691D01*
X1136191Y620753D01*
X1135918Y620801D01*
X1135627Y620836D01*
X1135317Y620857D01*
X1134989Y620863D01*
X1134630Y620856D01*
X1134293Y620833D01*
X1133977Y620795D01*
X1133684Y620741D01*
X1133412Y620672D01*
X1133163Y620588D01*
X1132935Y620488D01*
X1132729Y620373D01*
X1132547Y620243D01*
X1132388Y620098D01*
X1132254Y619937D01*
X1132145Y619762D01*
X1132059Y619572D01*
X1131998Y619366D01*
X1131962Y619146D01*
X1131950Y618910D01*
X1131969Y618638D01*
X1132025Y618390D01*
X1132120Y618167D01*
X1132252Y617969D01*
X1132420Y617790D01*
X1132621Y617625D01*
X1132855Y617474D01*
X1133123Y617338D01*
X1133479Y617202D01*
X1133975Y617050D01*
X1134613Y616884D01*
X1135392Y616703D01*
X1136526Y616436D01*
X1137079Y616287D01*
X1137608Y616112D01*
X1138108Y615907D01*
X1138576Y615670D01*
X1138794Y615536D01*
X1138997Y615387D01*
X1139186Y615225D01*
X1139359Y615048D01*
X1139517Y614856D01*
X1139656Y614647D01*
X1139777Y614422D01*
X1139881Y614181D01*
X1139963Y613920D01*
X1140022Y613638D01*
X1140057Y613333D01*
X1140069Y613007D01*
X1140048Y612592D01*
X1139985Y612201D01*
X1139881Y611835D01*
X1139735Y611492D01*
X1139547Y611173D01*
X1139318Y610879D01*
X1139046Y610608D01*
X1138733Y610362D01*
X1138382Y610142D01*
X1137997Y609952D01*
X1137578Y609791D01*
X1137125Y609659D01*
X1136638Y609557D01*
X1136116Y609483D01*
X1135561Y609440D01*
X1134971Y609425D01*
G37*
G36*
X1166877Y609600D02*
X1158705Y609600D01*
X1158705Y610712D01*
X1158941Y611210D01*
X1159201Y611677D01*
X1159486Y612114D01*
X1159796Y612521D01*
X1160122Y612904D01*
X1160456Y613268D01*
X1160798Y613613D01*
X1161149Y613940D01*
X1161855Y614552D01*
X1162555Y615118D01*
X1163217Y615661D01*
X1163811Y616204D01*
X1164078Y616479D01*
X1164318Y616760D01*
X1164531Y617048D01*
X1164718Y617343D01*
X1164869Y617650D01*
X1164977Y617978D01*
X1165042Y618325D01*
X1165064Y618691D01*
X1165055Y618938D01*
X1165027Y619171D01*
X1164980Y619389D01*
X1164915Y619593D01*
X1164831Y619783D01*
X1164729Y619959D01*
X1164608Y620121D01*
X1164468Y620268D01*
X1164312Y620399D01*
X1164141Y620513D01*
X1163956Y620609D01*
X1163757Y620688D01*
X1163542Y620750D01*
X1163314Y620793D01*
X1163071Y620820D01*
X1162813Y620828D01*
X1162567Y620820D01*
X1162331Y620794D01*
X1162107Y620751D01*
X1161894Y620692D01*
X1161692Y620615D01*
X1161502Y620521D01*
X1161322Y620409D01*
X1161153Y620281D01*
X1160998Y620137D01*
X1160861Y619980D01*
X1160740Y619808D01*
X1160635Y619623D01*
X1160548Y619424D01*
X1160477Y619211D01*
X1160424Y618984D01*
X1160387Y618744D01*
X1158775Y618893D01*
X1158833Y619253D01*
X1158919Y619595D01*
X1159034Y619918D01*
X1159177Y620222D01*
X1159348Y620507D01*
X1159548Y620773D01*
X1159776Y621020D01*
X1160032Y621249D01*
X1160312Y621454D01*
X1160611Y621632D01*
X1160930Y621783D01*
X1161268Y621906D01*
X1161625Y622002D01*
X1162002Y622070D01*
X1162398Y622111D01*
X1162813Y622125D01*
X1163266Y622111D01*
X1163692Y622070D01*
X1164091Y622001D01*
X1164463Y621905D01*
X1164808Y621781D01*
X1165126Y621630D01*
X1165417Y621451D01*
X1165681Y621244D01*
X1165916Y621013D01*
X1166120Y620758D01*
X1166292Y620480D01*
X1166433Y620179D01*
X1166543Y619855D01*
X1166621Y619508D01*
X1166668Y619137D01*
X1166684Y618744D01*
X1166664Y618385D01*
X1166602Y618028D01*
X1166499Y617672D01*
X1166356Y617316D01*
X1166172Y616962D01*
X1165947Y616607D01*
X1165683Y616252D01*
X1165379Y615897D01*
X1164981Y615494D01*
X1164435Y614993D01*
X1163742Y614395D01*
X1162900Y613699D01*
X1162423Y613297D01*
X1161996Y612916D01*
X1161621Y612555D01*
X1161298Y612214D01*
X1161021Y611887D01*
X1160785Y611565D01*
X1160592Y611250D01*
X1160439Y610940D01*
X1166877Y610940D01*
X1166877Y609600D01*
G37*
G36*
X314301Y881321D02*
X312780Y881321D01*
X312780Y883309D01*
X312144Y883352D01*
X311542Y883426D01*
X310974Y883531D01*
X310440Y883667D01*
X309940Y883834D01*
X309474Y884032D01*
X309043Y884260D01*
X308646Y884520D01*
X308282Y884811D01*
X307953Y885133D01*
X307658Y885485D01*
X307397Y885869D01*
X307170Y886283D01*
X306978Y886729D01*
X306819Y887205D01*
X306695Y887713D01*
X308780Y888167D01*
X308868Y887813D01*
X308976Y887482D01*
X309105Y887174D01*
X309254Y886888D01*
X309425Y886625D01*
X309617Y886384D01*
X309829Y886166D01*
X310062Y885971D01*
X310318Y885797D01*
X310598Y885642D01*
X310902Y885507D01*
X311229Y885391D01*
X311581Y885295D01*
X311957Y885219D01*
X312309Y885168D01*
X312356Y885162D01*
X312780Y885124D01*
X312780Y891209D01*
X311778Y891472D01*
X310944Y891722D01*
X310623Y891835D01*
X310278Y891957D01*
X309780Y892178D01*
X309386Y892401D01*
X309032Y892640D01*
X308718Y892895D01*
X308443Y893166D01*
X308206Y893450D01*
X308005Y893744D01*
X307838Y894048D01*
X307707Y894362D01*
X307608Y894697D01*
X307537Y895065D01*
X307494Y895464D01*
X307480Y895896D01*
X307502Y896358D01*
X307566Y896795D01*
X307674Y897205D01*
X307825Y897590D01*
X308019Y897949D01*
X308256Y898282D01*
X308537Y898589D01*
X308860Y898871D01*
X309223Y899124D01*
X309623Y899347D01*
X310058Y899540D01*
X310530Y899703D01*
X311038Y899836D01*
X311583Y899939D01*
X312163Y900012D01*
X312780Y900055D01*
X312780Y901662D01*
X314301Y901662D01*
X314301Y900055D01*
X314858Y900014D01*
X315383Y899948D01*
X315875Y899857D01*
X316335Y899740D01*
X316761Y899598D01*
X317156Y899430D01*
X317517Y899237D01*
X317847Y899018D01*
X318148Y898770D01*
X318426Y898490D01*
X318682Y898177D01*
X318914Y897833D01*
X319123Y897455D01*
X319310Y897045D01*
X319473Y896603D01*
X319613Y896129D01*
X317479Y895724D01*
X317409Y896004D01*
X317324Y896269D01*
X317224Y896517D01*
X317107Y896750D01*
X316975Y896967D01*
X316828Y897167D01*
X316664Y897352D01*
X316485Y897521D01*
X316287Y897674D01*
X316068Y897811D01*
X315827Y897933D01*
X315565Y898038D01*
X315281Y898127D01*
X314976Y898201D01*
X314649Y898259D01*
X314301Y898300D01*
X314301Y892841D01*
X315320Y892589D01*
X316180Y892347D01*
X316881Y892116D01*
X317423Y891896D01*
X317862Y891675D01*
X318253Y891439D01*
X318595Y891190D01*
X318889Y890927D01*
X319143Y890645D01*
X319365Y890338D01*
X319554Y890007D01*
X319711Y889651D01*
X319835Y889267D01*
X319923Y888851D01*
X319976Y888402D01*
X319993Y887921D01*
X319970Y887428D01*
X319901Y886959D01*
X319785Y886515D01*
X319622Y886097D01*
X319414Y885703D01*
X319158Y885334D01*
X318857Y884990D01*
X318509Y884670D01*
X318119Y884381D01*
X317689Y884125D01*
X317221Y883904D01*
X316715Y883717D01*
X316169Y883563D01*
X315585Y883444D01*
X314963Y883359D01*
X314301Y883309D01*
X314301Y881321D01*
G37*
%LPC*%
G36*
X314301Y885112D02*
X314721Y885149D01*
X314847Y885167D01*
X315116Y885205D01*
X315485Y885279D01*
X315830Y885373D01*
X316149Y885485D01*
X316444Y885616D01*
X316713Y885766D01*
X316957Y885934D01*
X317174Y886120D01*
X317362Y886324D01*
X317522Y886544D01*
X317652Y886781D01*
X317753Y887034D01*
X317825Y887305D01*
X317869Y887593D01*
X317883Y887897D01*
X317863Y888278D01*
X317804Y888624D01*
X317704Y888934D01*
X317564Y889210D01*
X317387Y889456D01*
X317175Y889680D01*
X316927Y889882D01*
X316644Y890062D01*
X316272Y890238D01*
X315758Y890429D01*
X315101Y890634D01*
X314301Y890854D01*
X314301Y885112D01*
G37*
G36*
X312780Y893160D02*
X312780Y898325D01*
X312394Y898295D01*
X312032Y898250D01*
X311696Y898188D01*
X311384Y898110D01*
X311098Y898016D01*
X310836Y897906D01*
X310599Y897780D01*
X310388Y897638D01*
X310201Y897479D01*
X310039Y897305D01*
X309902Y897114D01*
X309790Y896908D01*
X309702Y896685D01*
X309640Y896446D01*
X309603Y896191D01*
X309590Y895920D01*
X309609Y895572D01*
X309667Y895252D01*
X309763Y894959D01*
X309897Y894693D01*
X309902Y894686D01*
X310069Y894452D01*
X310279Y894230D01*
X310526Y894029D01*
X310811Y893847D01*
X311162Y893675D01*
X311607Y893503D01*
X312146Y893332D01*
X312780Y893160D01*
G37*
%LPD*%
G36*
X297268Y882818D02*
X296746Y882830D01*
X296241Y882866D01*
X295752Y882927D01*
X295281Y883011D01*
X294826Y883120D01*
X294388Y883253D01*
X293967Y883410D01*
X293563Y883591D01*
X293178Y883795D01*
X292816Y884021D01*
X292476Y884269D01*
X292158Y884539D01*
X291863Y884830D01*
X291589Y885144D01*
X291338Y885479D01*
X291109Y885836D01*
X290905Y886213D01*
X290728Y886607D01*
X290579Y887019D01*
X290456Y887449D01*
X290361Y887897D01*
X290293Y888362D01*
X290252Y888844D01*
X290238Y889345D01*
X290238Y900349D01*
X292582Y900349D01*
X292582Y889541D01*
X292600Y888967D01*
X292657Y888428D01*
X292751Y887925D01*
X292882Y887458D01*
X293051Y887027D01*
X293258Y886631D01*
X293502Y886271D01*
X293784Y885946D01*
X294101Y885659D01*
X294452Y885410D01*
X294836Y885199D01*
X295253Y885026D01*
X295704Y884892D01*
X296188Y884796D01*
X296705Y884739D01*
X297256Y884720D01*
X297822Y884739D01*
X298356Y884799D01*
X298858Y884898D01*
X299327Y885037D01*
X299764Y885215D01*
X300169Y885434D01*
X300541Y885692D01*
X300881Y885989D01*
X301184Y886325D01*
X301447Y886697D01*
X301670Y887106D01*
X301852Y887552D01*
X301993Y888034D01*
X302094Y888553D01*
X302155Y889108D01*
X302175Y889700D01*
X302175Y900349D01*
X304506Y900349D01*
X304506Y889565D01*
X304492Y889050D01*
X304451Y888553D01*
X304381Y888073D01*
X304284Y887612D01*
X304159Y887168D01*
X304006Y886743D01*
X303825Y886336D01*
X303617Y885946D01*
X303383Y885577D01*
X303126Y885231D01*
X302846Y884906D01*
X302543Y884604D01*
X302217Y884325D01*
X301868Y884068D01*
X301497Y883834D01*
X301102Y883622D01*
X300686Y883433D01*
X300253Y883270D01*
X299801Y883132D01*
X299331Y883019D01*
X298842Y882931D01*
X298336Y882868D01*
X297811Y882831D01*
X297268Y882818D01*
G37*
G36*
X333140Y883063D02*
X322308Y883063D01*
X322308Y884940D01*
X326712Y884940D01*
X326712Y898239D01*
X322811Y895454D01*
X322811Y897540D01*
X326896Y900349D01*
X328932Y900349D01*
X328932Y884940D01*
X333140Y884940D01*
X333140Y883063D01*
G37*
G36*
X1276858Y706371D02*
X1268968Y706371D01*
X1268968Y710083D01*
X1268977Y710407D01*
X1269005Y710712D01*
X1269052Y710998D01*
X1269117Y711264D01*
X1269201Y711512D01*
X1269303Y711741D01*
X1269424Y711951D01*
X1269564Y712141D01*
X1269720Y712311D01*
X1269891Y712459D01*
X1270077Y712583D01*
X1270277Y712685D01*
X1270492Y712765D01*
X1270722Y712821D01*
X1270966Y712855D01*
X1271224Y712867D01*
X1271440Y712859D01*
X1271647Y712835D01*
X1271844Y712795D01*
X1272034Y712739D01*
X1272214Y712666D01*
X1272386Y712578D01*
X1272549Y712474D01*
X1272703Y712354D01*
X1272846Y712220D01*
X1272975Y712074D01*
X1273090Y711915D01*
X1273132Y711844D01*
X1273191Y711745D01*
X1273279Y711562D01*
X1273353Y711367D01*
X1273413Y711160D01*
X1273459Y710940D01*
X1274906Y711894D01*
X1276858Y713180D01*
X1276858Y711948D01*
X1273582Y709899D01*
X1273582Y707440D01*
X1276858Y707440D01*
X1276858Y706371D01*
G37*
%LPC*%
G36*
X1272736Y707440D02*
X1272736Y710022D01*
X1272730Y710227D01*
X1272712Y710421D01*
X1272681Y710602D01*
X1272638Y710772D01*
X1272582Y710929D01*
X1272514Y711074D01*
X1272434Y711208D01*
X1272342Y711329D01*
X1272238Y711438D01*
X1272124Y711532D01*
X1272001Y711611D01*
X1271868Y711676D01*
X1271725Y711726D01*
X1271571Y711763D01*
X1271409Y711784D01*
X1271236Y711791D01*
X1271069Y711784D01*
X1270912Y711762D01*
X1270765Y711726D01*
X1270629Y711675D01*
X1270503Y711609D01*
X1270387Y711528D01*
X1270281Y711433D01*
X1270186Y711324D01*
X1270101Y711200D01*
X1270028Y711064D01*
X1269915Y710753D01*
X1269847Y710391D01*
X1269824Y709977D01*
X1269824Y707440D01*
X1272736Y707440D01*
G37*
%LPD*%
G36*
X1269824Y714299D02*
X1268968Y714299D01*
X1268968Y719513D01*
X1269785Y719513D01*
X1270659Y718952D01*
X1271433Y718481D01*
X1272107Y718098D01*
X1272680Y717805D01*
X1273202Y717571D01*
X1273721Y717369D01*
X1274235Y717197D01*
X1274747Y717057D01*
X1275261Y716948D01*
X1275784Y716870D01*
X1276317Y716823D01*
X1276858Y716808D01*
X1276858Y715755D01*
X1276478Y715765D01*
X1276092Y715795D01*
X1275702Y715845D01*
X1275306Y715915D01*
X1274906Y716006D01*
X1274500Y716116D01*
X1274090Y716246D01*
X1273674Y716396D01*
X1273249Y716570D01*
X1272807Y716771D01*
X1272349Y716998D01*
X1271876Y717252D01*
X1270882Y717842D01*
X1269824Y718538D01*
X1269824Y714299D01*
G37*
D10*
X1138300Y833200D02*
X1122300Y833200D01*
X1122300Y843200D02*
X1138300Y843200D01*
X1128300Y840200D02*
X1128300Y836200D01*
D11*
X1124702Y862330D02*
X1124702Y869442D01*
X1126678Y869442D01*
X1126765Y869440D01*
X1126853Y869434D01*
X1126940Y869425D01*
X1127026Y869411D01*
X1127112Y869394D01*
X1127196Y869373D01*
X1127280Y869348D01*
X1127363Y869319D01*
X1127444Y869287D01*
X1127524Y869252D01*
X1127602Y869213D01*
X1127679Y869170D01*
X1127753Y869124D01*
X1127825Y869075D01*
X1127895Y869023D01*
X1127963Y868967D01*
X1128028Y868909D01*
X1128091Y868848D01*
X1128150Y868784D01*
X1128207Y868717D01*
X1128261Y868649D01*
X1128312Y868577D01*
X1128359Y868504D01*
X1128404Y868429D01*
X1128445Y868351D01*
X1128482Y868272D01*
X1128516Y868192D01*
X1128546Y868110D01*
X1128573Y868027D01*
X1128596Y867942D01*
X1128615Y867857D01*
X1128630Y867771D01*
X1128642Y867684D01*
X1128650Y867597D01*
X1128654Y867510D01*
X1128654Y867422D01*
X1128650Y867335D01*
X1128642Y867248D01*
X1128630Y867161D01*
X1128615Y867075D01*
X1128596Y866990D01*
X1128573Y866905D01*
X1128546Y866822D01*
X1128516Y866740D01*
X1128482Y866660D01*
X1128445Y866581D01*
X1128404Y866503D01*
X1128359Y866428D01*
X1128312Y866355D01*
X1128261Y866283D01*
X1128207Y866215D01*
X1128150Y866148D01*
X1128091Y866084D01*
X1128028Y866023D01*
X1127963Y865965D01*
X1127895Y865909D01*
X1127825Y865857D01*
X1127753Y865808D01*
X1127679Y865762D01*
X1127602Y865719D01*
X1127524Y865680D01*
X1127444Y865645D01*
X1127363Y865613D01*
X1127280Y865584D01*
X1127196Y865559D01*
X1127112Y865538D01*
X1127026Y865521D01*
X1126940Y865507D01*
X1126853Y865498D01*
X1126765Y865492D01*
X1126678Y865490D01*
X1126678Y865491D02*
X1124702Y865491D01*
X1127073Y865491D02*
X1128654Y862330D01*
X1132220Y862330D02*
X1135381Y862330D01*
X1132220Y862330D02*
X1132220Y869442D01*
X1135381Y869442D01*
X1134590Y866281D02*
X1132220Y866281D01*
X1138541Y869442D02*
X1138541Y862330D01*
X1138541Y869442D02*
X1140516Y869442D01*
X1140602Y869440D01*
X1140688Y869434D01*
X1140774Y869425D01*
X1140859Y869412D01*
X1140944Y869395D01*
X1141027Y869375D01*
X1141110Y869351D01*
X1141192Y869323D01*
X1141272Y869292D01*
X1141351Y869257D01*
X1141428Y869219D01*
X1141504Y869177D01*
X1141578Y869133D01*
X1141649Y869085D01*
X1141719Y869034D01*
X1141786Y868980D01*
X1141851Y868923D01*
X1141913Y868863D01*
X1141973Y868801D01*
X1142030Y868736D01*
X1142084Y868669D01*
X1142135Y868599D01*
X1142183Y868528D01*
X1142227Y868454D01*
X1142269Y868378D01*
X1142307Y868301D01*
X1142342Y868222D01*
X1142373Y868142D01*
X1142401Y868060D01*
X1142425Y867977D01*
X1142445Y867894D01*
X1142462Y867809D01*
X1142475Y867724D01*
X1142484Y867638D01*
X1142490Y867552D01*
X1142492Y867466D01*
X1142492Y864306D01*
X1142490Y864220D01*
X1142484Y864134D01*
X1142475Y864048D01*
X1142462Y863963D01*
X1142445Y863878D01*
X1142425Y863795D01*
X1142401Y863712D01*
X1142373Y863630D01*
X1142342Y863550D01*
X1142307Y863471D01*
X1142269Y863394D01*
X1142227Y863318D01*
X1142183Y863244D01*
X1142135Y863173D01*
X1142084Y863103D01*
X1142030Y863036D01*
X1141973Y862971D01*
X1141913Y862909D01*
X1141851Y862849D01*
X1141786Y862792D01*
X1141719Y862738D01*
X1141649Y862687D01*
X1141578Y862639D01*
X1141504Y862595D01*
X1141428Y862553D01*
X1141351Y862515D01*
X1141272Y862480D01*
X1141192Y862449D01*
X1141110Y862421D01*
X1141027Y862397D01*
X1140944Y862377D01*
X1140859Y862360D01*
X1140774Y862347D01*
X1140688Y862338D01*
X1140602Y862332D01*
X1140516Y862330D01*
X1138541Y862330D01*
D10*
X1204850Y833200D02*
X1220850Y833200D01*
X1220850Y843200D02*
X1204850Y843200D01*
X1210850Y840200D02*
X1210850Y836200D01*
D11*
X1197001Y821831D02*
X1195815Y821831D01*
X1197001Y821831D02*
X1197001Y817880D01*
X1194630Y817880D01*
X1194552Y817882D01*
X1194475Y817888D01*
X1194398Y817897D01*
X1194322Y817910D01*
X1194246Y817927D01*
X1194171Y817948D01*
X1194098Y817972D01*
X1194025Y818000D01*
X1193954Y818032D01*
X1193885Y818067D01*
X1193818Y818105D01*
X1193752Y818146D01*
X1193689Y818191D01*
X1193628Y818239D01*
X1193569Y818289D01*
X1193513Y818343D01*
X1193459Y818399D01*
X1193409Y818458D01*
X1193361Y818519D01*
X1193316Y818582D01*
X1193275Y818648D01*
X1193237Y818715D01*
X1193202Y818784D01*
X1193170Y818855D01*
X1193142Y818928D01*
X1193118Y819001D01*
X1193097Y819076D01*
X1193080Y819152D01*
X1193067Y819228D01*
X1193058Y819305D01*
X1193052Y819382D01*
X1193050Y819460D01*
X1193049Y819460D02*
X1193049Y823412D01*
X1193050Y823412D02*
X1193052Y823490D01*
X1193058Y823567D01*
X1193067Y823644D01*
X1193080Y823720D01*
X1193097Y823796D01*
X1193118Y823871D01*
X1193142Y823944D01*
X1193170Y824017D01*
X1193202Y824088D01*
X1193237Y824157D01*
X1193275Y824224D01*
X1193316Y824290D01*
X1193361Y824353D01*
X1193409Y824414D01*
X1193459Y824473D01*
X1193513Y824529D01*
X1193569Y824583D01*
X1193628Y824633D01*
X1193689Y824681D01*
X1193752Y824726D01*
X1193818Y824767D01*
X1193885Y824805D01*
X1193954Y824840D01*
X1194025Y824872D01*
X1194098Y824900D01*
X1194171Y824924D01*
X1194246Y824945D01*
X1194322Y824962D01*
X1194398Y824975D01*
X1194475Y824984D01*
X1194552Y824990D01*
X1194630Y824992D01*
X1197001Y824992D01*
X1200913Y824992D02*
X1200913Y817880D01*
X1200913Y824992D02*
X1202888Y824992D01*
X1202975Y824990D01*
X1203063Y824984D01*
X1203150Y824975D01*
X1203236Y824961D01*
X1203322Y824944D01*
X1203406Y824923D01*
X1203490Y824898D01*
X1203573Y824869D01*
X1203654Y824837D01*
X1203734Y824802D01*
X1203812Y824763D01*
X1203889Y824720D01*
X1203963Y824674D01*
X1204035Y824625D01*
X1204105Y824573D01*
X1204173Y824517D01*
X1204238Y824459D01*
X1204301Y824398D01*
X1204360Y824334D01*
X1204417Y824267D01*
X1204471Y824199D01*
X1204522Y824127D01*
X1204569Y824054D01*
X1204614Y823979D01*
X1204655Y823901D01*
X1204692Y823822D01*
X1204726Y823742D01*
X1204756Y823660D01*
X1204783Y823577D01*
X1204806Y823492D01*
X1204825Y823407D01*
X1204840Y823321D01*
X1204852Y823234D01*
X1204860Y823147D01*
X1204864Y823060D01*
X1204864Y822972D01*
X1204860Y822885D01*
X1204852Y822798D01*
X1204840Y822711D01*
X1204825Y822625D01*
X1204806Y822540D01*
X1204783Y822455D01*
X1204756Y822372D01*
X1204726Y822290D01*
X1204692Y822210D01*
X1204655Y822131D01*
X1204614Y822053D01*
X1204569Y821978D01*
X1204522Y821905D01*
X1204471Y821833D01*
X1204417Y821765D01*
X1204360Y821698D01*
X1204301Y821634D01*
X1204238Y821573D01*
X1204173Y821515D01*
X1204105Y821459D01*
X1204035Y821407D01*
X1203963Y821358D01*
X1203889Y821312D01*
X1203812Y821269D01*
X1203734Y821230D01*
X1203654Y821195D01*
X1203573Y821163D01*
X1203490Y821134D01*
X1203406Y821109D01*
X1203322Y821088D01*
X1203236Y821071D01*
X1203150Y821057D01*
X1203063Y821048D01*
X1202975Y821042D01*
X1202888Y821040D01*
X1202888Y821041D02*
X1200913Y821041D01*
X1203283Y821041D02*
X1204864Y817880D01*
X1208430Y817880D02*
X1211591Y817880D01*
X1208430Y817880D02*
X1208430Y824992D01*
X1211591Y824992D01*
X1210800Y821831D02*
X1208430Y821831D01*
X1214770Y817880D02*
X1217931Y817880D01*
X1214770Y817880D02*
X1214770Y824992D01*
X1217931Y824992D01*
X1217140Y821831D02*
X1214770Y821831D01*
X1221091Y824992D02*
X1221091Y817880D01*
X1225042Y817880D02*
X1221091Y824992D01*
X1225042Y824992D02*
X1225042Y817880D01*
D10*
X1180528Y833200D02*
X1164528Y833200D01*
X1164528Y843200D02*
X1180528Y843200D01*
X1170528Y840200D02*
X1170528Y836200D01*
D11*
X1162197Y866281D02*
X1160222Y866281D01*
X1162197Y866282D02*
X1162284Y866280D01*
X1162372Y866274D01*
X1162459Y866265D01*
X1162545Y866251D01*
X1162631Y866234D01*
X1162715Y866213D01*
X1162799Y866188D01*
X1162882Y866159D01*
X1162963Y866127D01*
X1163043Y866092D01*
X1163121Y866053D01*
X1163198Y866010D01*
X1163272Y865964D01*
X1163344Y865915D01*
X1163414Y865863D01*
X1163482Y865807D01*
X1163547Y865749D01*
X1163610Y865688D01*
X1163669Y865624D01*
X1163726Y865557D01*
X1163780Y865489D01*
X1163831Y865417D01*
X1163878Y865344D01*
X1163923Y865269D01*
X1163964Y865191D01*
X1164001Y865112D01*
X1164035Y865032D01*
X1164065Y864950D01*
X1164092Y864867D01*
X1164115Y864782D01*
X1164134Y864697D01*
X1164149Y864611D01*
X1164161Y864524D01*
X1164169Y864437D01*
X1164173Y864350D01*
X1164173Y864262D01*
X1164169Y864175D01*
X1164161Y864088D01*
X1164149Y864001D01*
X1164134Y863915D01*
X1164115Y863830D01*
X1164092Y863745D01*
X1164065Y863662D01*
X1164035Y863580D01*
X1164001Y863500D01*
X1163964Y863421D01*
X1163923Y863343D01*
X1163878Y863268D01*
X1163831Y863195D01*
X1163780Y863123D01*
X1163726Y863055D01*
X1163669Y862988D01*
X1163610Y862924D01*
X1163547Y862863D01*
X1163482Y862805D01*
X1163414Y862749D01*
X1163344Y862697D01*
X1163272Y862648D01*
X1163198Y862602D01*
X1163121Y862559D01*
X1163043Y862520D01*
X1162963Y862485D01*
X1162882Y862453D01*
X1162799Y862424D01*
X1162715Y862399D01*
X1162631Y862378D01*
X1162545Y862361D01*
X1162459Y862347D01*
X1162372Y862338D01*
X1162284Y862332D01*
X1162197Y862330D01*
X1160222Y862330D01*
X1160222Y869442D01*
X1162197Y869442D01*
X1162276Y869440D01*
X1162354Y869434D01*
X1162432Y869424D01*
X1162510Y869411D01*
X1162587Y869393D01*
X1162663Y869372D01*
X1162737Y869347D01*
X1162811Y869318D01*
X1162883Y869286D01*
X1162953Y869250D01*
X1163021Y869210D01*
X1163087Y869167D01*
X1163151Y869121D01*
X1163213Y869072D01*
X1163272Y869020D01*
X1163328Y868965D01*
X1163382Y868907D01*
X1163432Y868847D01*
X1163480Y868784D01*
X1163524Y868719D01*
X1163565Y868652D01*
X1163603Y868583D01*
X1163637Y868512D01*
X1163668Y868439D01*
X1163695Y868365D01*
X1163718Y868290D01*
X1163737Y868214D01*
X1163753Y868136D01*
X1163765Y868058D01*
X1163773Y867980D01*
X1163777Y867901D01*
X1163777Y867823D01*
X1163773Y867744D01*
X1163765Y867666D01*
X1163753Y867588D01*
X1163737Y867510D01*
X1163718Y867434D01*
X1163695Y867359D01*
X1163668Y867285D01*
X1163637Y867212D01*
X1163603Y867141D01*
X1163565Y867072D01*
X1163524Y867005D01*
X1163480Y866940D01*
X1163432Y866877D01*
X1163382Y866817D01*
X1163328Y866759D01*
X1163272Y866704D01*
X1163213Y866652D01*
X1163151Y866603D01*
X1163087Y866557D01*
X1163021Y866514D01*
X1162953Y866474D01*
X1162883Y866438D01*
X1162811Y866406D01*
X1162737Y866377D01*
X1162663Y866352D01*
X1162587Y866331D01*
X1162510Y866313D01*
X1162432Y866300D01*
X1162354Y866290D01*
X1162276Y866284D01*
X1162197Y866282D01*
X1167416Y869442D02*
X1167416Y862330D01*
X1170577Y862330D01*
X1173738Y864306D02*
X1173738Y869442D01*
X1173737Y864306D02*
X1173739Y864219D01*
X1173745Y864131D01*
X1173754Y864044D01*
X1173768Y863958D01*
X1173785Y863872D01*
X1173806Y863788D01*
X1173831Y863704D01*
X1173860Y863621D01*
X1173892Y863540D01*
X1173927Y863460D01*
X1173966Y863382D01*
X1174009Y863305D01*
X1174055Y863231D01*
X1174104Y863159D01*
X1174156Y863089D01*
X1174212Y863021D01*
X1174270Y862956D01*
X1174331Y862893D01*
X1174395Y862834D01*
X1174462Y862777D01*
X1174530Y862723D01*
X1174602Y862672D01*
X1174675Y862625D01*
X1174750Y862580D01*
X1174828Y862539D01*
X1174907Y862502D01*
X1174987Y862468D01*
X1175069Y862438D01*
X1175152Y862411D01*
X1175237Y862388D01*
X1175322Y862369D01*
X1175408Y862354D01*
X1175495Y862342D01*
X1175582Y862334D01*
X1175669Y862330D01*
X1175757Y862330D01*
X1175844Y862334D01*
X1175931Y862342D01*
X1176018Y862354D01*
X1176104Y862369D01*
X1176189Y862388D01*
X1176274Y862411D01*
X1176357Y862438D01*
X1176439Y862468D01*
X1176519Y862502D01*
X1176598Y862539D01*
X1176676Y862580D01*
X1176751Y862625D01*
X1176824Y862672D01*
X1176896Y862723D01*
X1176964Y862777D01*
X1177031Y862834D01*
X1177095Y862893D01*
X1177156Y862956D01*
X1177214Y863021D01*
X1177270Y863089D01*
X1177322Y863159D01*
X1177371Y863231D01*
X1177417Y863305D01*
X1177460Y863382D01*
X1177499Y863460D01*
X1177534Y863540D01*
X1177566Y863621D01*
X1177595Y863704D01*
X1177620Y863788D01*
X1177641Y863872D01*
X1177658Y863958D01*
X1177672Y864044D01*
X1177681Y864131D01*
X1177687Y864219D01*
X1177689Y864306D01*
X1177689Y869442D01*
X1181559Y862330D02*
X1184720Y862330D01*
X1181559Y862330D02*
X1181559Y869442D01*
X1184720Y869442D01*
X1183930Y866281D02*
X1181559Y866281D01*
D10*
X443700Y317500D02*
X443700Y267500D01*
X443700Y227500D02*
X443700Y192500D01*
X343700Y192500D01*
X343700Y227500D01*
X343700Y267500D02*
X343700Y317500D01*
X353700Y317500D01*
X433700Y317500D02*
X443700Y317500D01*
X363700Y247500D02*
X363709Y248236D01*
X363736Y248972D01*
X363781Y249707D01*
X363844Y250441D01*
X363926Y251172D01*
X364025Y251902D01*
X364142Y252629D01*
X364276Y253353D01*
X364429Y254073D01*
X364599Y254789D01*
X364787Y255501D01*
X364992Y256209D01*
X365214Y256910D01*
X365454Y257607D01*
X365710Y258297D01*
X365984Y258981D01*
X366274Y259657D01*
X366580Y260327D01*
X366903Y260988D01*
X367242Y261642D01*
X367597Y262287D01*
X367968Y262923D01*
X368354Y263550D01*
X368756Y264167D01*
X369172Y264774D01*
X369604Y265371D01*
X370050Y265957D01*
X370510Y266532D01*
X370984Y267095D01*
X371471Y267647D01*
X371973Y268186D01*
X372487Y268713D01*
X373014Y269227D01*
X373553Y269729D01*
X374105Y270216D01*
X374668Y270690D01*
X375243Y271150D01*
X375829Y271596D01*
X376426Y272028D01*
X377033Y272444D01*
X377650Y272846D01*
X378277Y273232D01*
X378913Y273603D01*
X379558Y273958D01*
X380212Y274297D01*
X380873Y274620D01*
X381543Y274926D01*
X382219Y275216D01*
X382903Y275490D01*
X383593Y275746D01*
X384290Y275986D01*
X384991Y276208D01*
X385699Y276413D01*
X386411Y276601D01*
X387127Y276771D01*
X387847Y276924D01*
X388571Y277058D01*
X389298Y277175D01*
X390028Y277274D01*
X390759Y277356D01*
X391493Y277419D01*
X392228Y277464D01*
X392964Y277491D01*
X393700Y277500D01*
X394436Y277491D01*
X395172Y277464D01*
X395907Y277419D01*
X396641Y277356D01*
X397372Y277274D01*
X398102Y277175D01*
X398829Y277058D01*
X399553Y276924D01*
X400273Y276771D01*
X400989Y276601D01*
X401701Y276413D01*
X402409Y276208D01*
X403110Y275986D01*
X403807Y275746D01*
X404497Y275490D01*
X405181Y275216D01*
X405857Y274926D01*
X406527Y274620D01*
X407188Y274297D01*
X407842Y273958D01*
X408487Y273603D01*
X409123Y273232D01*
X409750Y272846D01*
X410367Y272444D01*
X410974Y272028D01*
X411571Y271596D01*
X412157Y271150D01*
X412732Y270690D01*
X413295Y270216D01*
X413847Y269729D01*
X414386Y269227D01*
X414913Y268713D01*
X415427Y268186D01*
X415929Y267647D01*
X416416Y267095D01*
X416890Y266532D01*
X417350Y265957D01*
X417796Y265371D01*
X418228Y264774D01*
X418644Y264167D01*
X419046Y263550D01*
X419432Y262923D01*
X419803Y262287D01*
X420158Y261642D01*
X420497Y260988D01*
X420820Y260327D01*
X421126Y259657D01*
X421416Y258981D01*
X421690Y258297D01*
X421946Y257607D01*
X422186Y256910D01*
X422408Y256209D01*
X422613Y255501D01*
X422801Y254789D01*
X422971Y254073D01*
X423124Y253353D01*
X423258Y252629D01*
X423375Y251902D01*
X423474Y251172D01*
X423556Y250441D01*
X423619Y249707D01*
X423664Y248972D01*
X423691Y248236D01*
X423700Y247500D01*
X423691Y246764D01*
X423664Y246028D01*
X423619Y245293D01*
X423556Y244559D01*
X423474Y243828D01*
X423375Y243098D01*
X423258Y242371D01*
X423124Y241647D01*
X422971Y240927D01*
X422801Y240211D01*
X422613Y239499D01*
X422408Y238791D01*
X422186Y238090D01*
X421946Y237393D01*
X421690Y236703D01*
X421416Y236019D01*
X421126Y235343D01*
X420820Y234673D01*
X420497Y234012D01*
X420158Y233358D01*
X419803Y232713D01*
X419432Y232077D01*
X419046Y231450D01*
X418644Y230833D01*
X418228Y230226D01*
X417796Y229629D01*
X417350Y229043D01*
X416890Y228468D01*
X416416Y227905D01*
X415929Y227353D01*
X415427Y226814D01*
X414913Y226287D01*
X414386Y225773D01*
X413847Y225271D01*
X413295Y224784D01*
X412732Y224310D01*
X412157Y223850D01*
X411571Y223404D01*
X410974Y222972D01*
X410367Y222556D01*
X409750Y222154D01*
X409123Y221768D01*
X408487Y221397D01*
X407842Y221042D01*
X407188Y220703D01*
X406527Y220380D01*
X405857Y220074D01*
X405181Y219784D01*
X404497Y219510D01*
X403807Y219254D01*
X403110Y219014D01*
X402409Y218792D01*
X401701Y218587D01*
X400989Y218399D01*
X400273Y218229D01*
X399553Y218076D01*
X398829Y217942D01*
X398102Y217825D01*
X397372Y217726D01*
X396641Y217644D01*
X395907Y217581D01*
X395172Y217536D01*
X394436Y217509D01*
X393700Y217500D01*
X392964Y217509D01*
X392228Y217536D01*
X391493Y217581D01*
X390759Y217644D01*
X390028Y217726D01*
X389298Y217825D01*
X388571Y217942D01*
X387847Y218076D01*
X387127Y218229D01*
X386411Y218399D01*
X385699Y218587D01*
X384991Y218792D01*
X384290Y219014D01*
X383593Y219254D01*
X382903Y219510D01*
X382219Y219784D01*
X381543Y220074D01*
X380873Y220380D01*
X380212Y220703D01*
X379558Y221042D01*
X378913Y221397D01*
X378277Y221768D01*
X377650Y222154D01*
X377033Y222556D01*
X376426Y222972D01*
X375829Y223404D01*
X375243Y223850D01*
X374668Y224310D01*
X374105Y224784D01*
X373553Y225271D01*
X373014Y225773D01*
X372487Y226287D01*
X371973Y226814D01*
X371471Y227353D01*
X370984Y227905D01*
X370510Y228468D01*
X370050Y229043D01*
X369604Y229629D01*
X369172Y230226D01*
X368756Y230833D01*
X368354Y231450D01*
X367968Y232077D01*
X367597Y232713D01*
X367242Y233358D01*
X366903Y234012D01*
X366580Y234673D01*
X366274Y235343D01*
X365984Y236019D01*
X365710Y236703D01*
X365454Y237393D01*
X365214Y238090D01*
X364992Y238791D01*
X364787Y239499D01*
X364599Y240211D01*
X364429Y240927D01*
X364276Y241647D01*
X364142Y242371D01*
X364025Y243098D01*
X363926Y243828D01*
X363844Y244559D01*
X363781Y245293D01*
X363736Y246028D01*
X363709Y246764D01*
X363700Y247500D01*
X1027900Y274438D02*
X1027900Y324438D01*
X1027900Y234438D02*
X1027900Y199438D01*
X927900Y199438D01*
X927900Y234438D01*
X927900Y274438D02*
X927900Y324438D01*
X937900Y324438D01*
X1017900Y324438D02*
X1027900Y324438D01*
X947900Y254438D02*
X947909Y255174D01*
X947936Y255910D01*
X947981Y256645D01*
X948044Y257379D01*
X948126Y258110D01*
X948225Y258840D01*
X948342Y259567D01*
X948476Y260291D01*
X948629Y261011D01*
X948799Y261727D01*
X948987Y262439D01*
X949192Y263147D01*
X949414Y263848D01*
X949654Y264545D01*
X949910Y265235D01*
X950184Y265919D01*
X950474Y266595D01*
X950780Y267265D01*
X951103Y267926D01*
X951442Y268580D01*
X951797Y269225D01*
X952168Y269861D01*
X952554Y270488D01*
X952956Y271105D01*
X953372Y271712D01*
X953804Y272309D01*
X954250Y272895D01*
X954710Y273470D01*
X955184Y274033D01*
X955671Y274585D01*
X956173Y275124D01*
X956687Y275651D01*
X957214Y276165D01*
X957753Y276667D01*
X958305Y277154D01*
X958868Y277628D01*
X959443Y278088D01*
X960029Y278534D01*
X960626Y278966D01*
X961233Y279382D01*
X961850Y279784D01*
X962477Y280170D01*
X963113Y280541D01*
X963758Y280896D01*
X964412Y281235D01*
X965073Y281558D01*
X965743Y281864D01*
X966419Y282154D01*
X967103Y282428D01*
X967793Y282684D01*
X968490Y282924D01*
X969191Y283146D01*
X969899Y283351D01*
X970611Y283539D01*
X971327Y283709D01*
X972047Y283862D01*
X972771Y283996D01*
X973498Y284113D01*
X974228Y284212D01*
X974959Y284294D01*
X975693Y284357D01*
X976428Y284402D01*
X977164Y284429D01*
X977900Y284438D01*
X978636Y284429D01*
X979372Y284402D01*
X980107Y284357D01*
X980841Y284294D01*
X981572Y284212D01*
X982302Y284113D01*
X983029Y283996D01*
X983753Y283862D01*
X984473Y283709D01*
X985189Y283539D01*
X985901Y283351D01*
X986609Y283146D01*
X987310Y282924D01*
X988007Y282684D01*
X988697Y282428D01*
X989381Y282154D01*
X990057Y281864D01*
X990727Y281558D01*
X991388Y281235D01*
X992042Y280896D01*
X992687Y280541D01*
X993323Y280170D01*
X993950Y279784D01*
X994567Y279382D01*
X995174Y278966D01*
X995771Y278534D01*
X996357Y278088D01*
X996932Y277628D01*
X997495Y277154D01*
X998047Y276667D01*
X998586Y276165D01*
X999113Y275651D01*
X999627Y275124D01*
X1000129Y274585D01*
X1000616Y274033D01*
X1001090Y273470D01*
X1001550Y272895D01*
X1001996Y272309D01*
X1002428Y271712D01*
X1002844Y271105D01*
X1003246Y270488D01*
X1003632Y269861D01*
X1004003Y269225D01*
X1004358Y268580D01*
X1004697Y267926D01*
X1005020Y267265D01*
X1005326Y266595D01*
X1005616Y265919D01*
X1005890Y265235D01*
X1006146Y264545D01*
X1006386Y263848D01*
X1006608Y263147D01*
X1006813Y262439D01*
X1007001Y261727D01*
X1007171Y261011D01*
X1007324Y260291D01*
X1007458Y259567D01*
X1007575Y258840D01*
X1007674Y258110D01*
X1007756Y257379D01*
X1007819Y256645D01*
X1007864Y255910D01*
X1007891Y255174D01*
X1007900Y254438D01*
X1007891Y253702D01*
X1007864Y252966D01*
X1007819Y252231D01*
X1007756Y251497D01*
X1007674Y250766D01*
X1007575Y250036D01*
X1007458Y249309D01*
X1007324Y248585D01*
X1007171Y247865D01*
X1007001Y247149D01*
X1006813Y246437D01*
X1006608Y245729D01*
X1006386Y245028D01*
X1006146Y244331D01*
X1005890Y243641D01*
X1005616Y242957D01*
X1005326Y242281D01*
X1005020Y241611D01*
X1004697Y240950D01*
X1004358Y240296D01*
X1004003Y239651D01*
X1003632Y239015D01*
X1003246Y238388D01*
X1002844Y237771D01*
X1002428Y237164D01*
X1001996Y236567D01*
X1001550Y235981D01*
X1001090Y235406D01*
X1000616Y234843D01*
X1000129Y234291D01*
X999627Y233752D01*
X999113Y233225D01*
X998586Y232711D01*
X998047Y232209D01*
X997495Y231722D01*
X996932Y231248D01*
X996357Y230788D01*
X995771Y230342D01*
X995174Y229910D01*
X994567Y229494D01*
X993950Y229092D01*
X993323Y228706D01*
X992687Y228335D01*
X992042Y227980D01*
X991388Y227641D01*
X990727Y227318D01*
X990057Y227012D01*
X989381Y226722D01*
X988697Y226448D01*
X988007Y226192D01*
X987310Y225952D01*
X986609Y225730D01*
X985901Y225525D01*
X985189Y225337D01*
X984473Y225167D01*
X983753Y225014D01*
X983029Y224880D01*
X982302Y224763D01*
X981572Y224664D01*
X980841Y224582D01*
X980107Y224519D01*
X979372Y224474D01*
X978636Y224447D01*
X977900Y224438D01*
X977164Y224447D01*
X976428Y224474D01*
X975693Y224519D01*
X974959Y224582D01*
X974228Y224664D01*
X973498Y224763D01*
X972771Y224880D01*
X972047Y225014D01*
X971327Y225167D01*
X970611Y225337D01*
X969899Y225525D01*
X969191Y225730D01*
X968490Y225952D01*
X967793Y226192D01*
X967103Y226448D01*
X966419Y226722D01*
X965743Y227012D01*
X965073Y227318D01*
X964412Y227641D01*
X963758Y227980D01*
X963113Y228335D01*
X962477Y228706D01*
X961850Y229092D01*
X961233Y229494D01*
X960626Y229910D01*
X960029Y230342D01*
X959443Y230788D01*
X958868Y231248D01*
X958305Y231722D01*
X957753Y232209D01*
X957214Y232711D01*
X956687Y233225D01*
X956173Y233752D01*
X955671Y234291D01*
X955184Y234843D01*
X954710Y235406D01*
X954250Y235981D01*
X953804Y236567D01*
X953372Y237164D01*
X952956Y237771D01*
X952554Y238388D01*
X952168Y239015D01*
X951797Y239651D01*
X951442Y240296D01*
X951103Y240950D01*
X950780Y241611D01*
X950474Y242281D01*
X950184Y242957D01*
X949910Y243641D01*
X949654Y244331D01*
X949414Y245028D01*
X949192Y245729D01*
X948987Y246437D01*
X948799Y247149D01*
X948629Y247865D01*
X948476Y248585D01*
X948342Y249309D01*
X948225Y250036D01*
X948126Y250766D01*
X948044Y251497D01*
X947981Y252231D01*
X947936Y252966D01*
X947909Y253702D01*
X947900Y254438D01*
D12*
X1130300Y814260D03*
X1212469Y814222D03*
X1172313Y814640D03*
D13*
X1234750Y661200D02*
X1234747Y660958D01*
X1234738Y660717D01*
X1234724Y660476D01*
X1234703Y660235D01*
X1234677Y659995D01*
X1234645Y659755D01*
X1234607Y659516D01*
X1234564Y659279D01*
X1234514Y659042D01*
X1234459Y658807D01*
X1234399Y658573D01*
X1234332Y658341D01*
X1234261Y658110D01*
X1234183Y657881D01*
X1234100Y657654D01*
X1234012Y657429D01*
X1233918Y657206D01*
X1233819Y656986D01*
X1233714Y656768D01*
X1233605Y656553D01*
X1233490Y656340D01*
X1233370Y656130D01*
X1233245Y655924D01*
X1233115Y655720D01*
X1232980Y655519D01*
X1232840Y655322D01*
X1232696Y655128D01*
X1232547Y654938D01*
X1232393Y654752D01*
X1232235Y654569D01*
X1232073Y654390D01*
X1231906Y654215D01*
X1231735Y654044D01*
X1231560Y653877D01*
X1231381Y653715D01*
X1231198Y653557D01*
X1231012Y653403D01*
X1230822Y653254D01*
X1230628Y653110D01*
X1230431Y652970D01*
X1230230Y652835D01*
X1230026Y652705D01*
X1229820Y652580D01*
X1229610Y652460D01*
X1229397Y652345D01*
X1229182Y652236D01*
X1228964Y652131D01*
X1228744Y652032D01*
X1228521Y651938D01*
X1228296Y651850D01*
X1228069Y651767D01*
X1227840Y651689D01*
X1227609Y651618D01*
X1227377Y651551D01*
X1227143Y651491D01*
X1226908Y651436D01*
X1226671Y651386D01*
X1226434Y651343D01*
X1226195Y651305D01*
X1225955Y651273D01*
X1225715Y651247D01*
X1225474Y651226D01*
X1225233Y651212D01*
X1224992Y651203D01*
X1224750Y651200D01*
X1124750Y651200D01*
X1124508Y651203D01*
X1124267Y651212D01*
X1124026Y651226D01*
X1123785Y651247D01*
X1123545Y651273D01*
X1123305Y651305D01*
X1123066Y651343D01*
X1122829Y651386D01*
X1122592Y651436D01*
X1122357Y651491D01*
X1122123Y651551D01*
X1121891Y651618D01*
X1121660Y651689D01*
X1121431Y651767D01*
X1121204Y651850D01*
X1120979Y651938D01*
X1120756Y652032D01*
X1120536Y652131D01*
X1120318Y652236D01*
X1120103Y652345D01*
X1119890Y652460D01*
X1119680Y652580D01*
X1119474Y652705D01*
X1119270Y652835D01*
X1119069Y652970D01*
X1118872Y653110D01*
X1118678Y653254D01*
X1118488Y653403D01*
X1118302Y653557D01*
X1118119Y653715D01*
X1117940Y653877D01*
X1117765Y654044D01*
X1117594Y654215D01*
X1117427Y654390D01*
X1117265Y654569D01*
X1117107Y654752D01*
X1116953Y654938D01*
X1116804Y655128D01*
X1116660Y655322D01*
X1116520Y655519D01*
X1116385Y655720D01*
X1116255Y655924D01*
X1116130Y656130D01*
X1116010Y656340D01*
X1115895Y656553D01*
X1115786Y656768D01*
X1115681Y656986D01*
X1115582Y657206D01*
X1115488Y657429D01*
X1115400Y657654D01*
X1115317Y657881D01*
X1115239Y658110D01*
X1115168Y658341D01*
X1115101Y658573D01*
X1115041Y658807D01*
X1114986Y659042D01*
X1114936Y659279D01*
X1114893Y659516D01*
X1114855Y659755D01*
X1114823Y659995D01*
X1114797Y660235D01*
X1114776Y660476D01*
X1114762Y660717D01*
X1114753Y660958D01*
X1114750Y661200D01*
X1114750Y761200D02*
X1114753Y761442D01*
X1114762Y761683D01*
X1114776Y761924D01*
X1114797Y762165D01*
X1114823Y762405D01*
X1114855Y762645D01*
X1114893Y762884D01*
X1114936Y763121D01*
X1114986Y763358D01*
X1115041Y763593D01*
X1115101Y763827D01*
X1115168Y764059D01*
X1115239Y764290D01*
X1115317Y764519D01*
X1115400Y764746D01*
X1115488Y764971D01*
X1115582Y765194D01*
X1115681Y765414D01*
X1115786Y765632D01*
X1115895Y765847D01*
X1116010Y766060D01*
X1116130Y766270D01*
X1116255Y766476D01*
X1116385Y766680D01*
X1116520Y766881D01*
X1116660Y767078D01*
X1116804Y767272D01*
X1116953Y767462D01*
X1117107Y767648D01*
X1117265Y767831D01*
X1117427Y768010D01*
X1117594Y768185D01*
X1117765Y768356D01*
X1117940Y768523D01*
X1118119Y768685D01*
X1118302Y768843D01*
X1118488Y768997D01*
X1118678Y769146D01*
X1118872Y769290D01*
X1119069Y769430D01*
X1119270Y769565D01*
X1119474Y769695D01*
X1119680Y769820D01*
X1119890Y769940D01*
X1120103Y770055D01*
X1120318Y770164D01*
X1120536Y770269D01*
X1120756Y770368D01*
X1120979Y770462D01*
X1121204Y770550D01*
X1121431Y770633D01*
X1121660Y770711D01*
X1121891Y770782D01*
X1122123Y770849D01*
X1122357Y770909D01*
X1122592Y770964D01*
X1122829Y771014D01*
X1123066Y771057D01*
X1123305Y771095D01*
X1123545Y771127D01*
X1123785Y771153D01*
X1124026Y771174D01*
X1124267Y771188D01*
X1124508Y771197D01*
X1124750Y771200D01*
X1224750Y771200D01*
X1224992Y771197D01*
X1225233Y771188D01*
X1225474Y771174D01*
X1225715Y771153D01*
X1225955Y771127D01*
X1226195Y771095D01*
X1226434Y771057D01*
X1226671Y771014D01*
X1226908Y770964D01*
X1227143Y770909D01*
X1227377Y770849D01*
X1227609Y770782D01*
X1227840Y770711D01*
X1228069Y770633D01*
X1228296Y770550D01*
X1228521Y770462D01*
X1228744Y770368D01*
X1228964Y770269D01*
X1229182Y770164D01*
X1229397Y770055D01*
X1229610Y769940D01*
X1229820Y769820D01*
X1230026Y769695D01*
X1230230Y769565D01*
X1230431Y769430D01*
X1230628Y769290D01*
X1230822Y769146D01*
X1231012Y768997D01*
X1231198Y768843D01*
X1231381Y768685D01*
X1231560Y768523D01*
X1231735Y768356D01*
X1231906Y768185D01*
X1232073Y768010D01*
X1232235Y767831D01*
X1232393Y767648D01*
X1232547Y767462D01*
X1232696Y767272D01*
X1232840Y767078D01*
X1232980Y766881D01*
X1233115Y766680D01*
X1233245Y766476D01*
X1233370Y766270D01*
X1233490Y766060D01*
X1233605Y765847D01*
X1233714Y765632D01*
X1233819Y765414D01*
X1233918Y765194D01*
X1234012Y764971D01*
X1234100Y764746D01*
X1234183Y764519D01*
X1234261Y764290D01*
X1234332Y764059D01*
X1234399Y763827D01*
X1234459Y763593D01*
X1234514Y763358D01*
X1234564Y763121D01*
X1234607Y762884D01*
X1234645Y762645D01*
X1234677Y762405D01*
X1234703Y762165D01*
X1234724Y761924D01*
X1234738Y761683D01*
X1234747Y761442D01*
X1234750Y761200D01*
X1139395Y711200D02*
X1139406Y712068D01*
X1139438Y712935D01*
X1139491Y713801D01*
X1139565Y714665D01*
X1139661Y715528D01*
X1139778Y716388D01*
X1139916Y717244D01*
X1140074Y718097D01*
X1140254Y718946D01*
X1140455Y719791D01*
X1140676Y720630D01*
X1140917Y721463D01*
X1141179Y722290D01*
X1141462Y723111D01*
X1141764Y723924D01*
X1142086Y724730D01*
X1142428Y725527D01*
X1142789Y726316D01*
X1143170Y727096D01*
X1143570Y727866D01*
X1143988Y728626D01*
X1144425Y729376D01*
X1144880Y730115D01*
X1145353Y730842D01*
X1145844Y731558D01*
X1146353Y732261D01*
X1146878Y732952D01*
X1147420Y733629D01*
X1147979Y734293D01*
X1148554Y734943D01*
X1149144Y735579D01*
X1149750Y736200D01*
X1150371Y736806D01*
X1151007Y737396D01*
X1151657Y737971D01*
X1152321Y738530D01*
X1152998Y739072D01*
X1153689Y739597D01*
X1154392Y740106D01*
X1155108Y740597D01*
X1155835Y741070D01*
X1156574Y741525D01*
X1157324Y741962D01*
X1158084Y742380D01*
X1158854Y742780D01*
X1159634Y743161D01*
X1160423Y743522D01*
X1161220Y743864D01*
X1162026Y744186D01*
X1162839Y744488D01*
X1163660Y744771D01*
X1164487Y745033D01*
X1165320Y745274D01*
X1166159Y745495D01*
X1167004Y745696D01*
X1167853Y745876D01*
X1168706Y746034D01*
X1169562Y746172D01*
X1170422Y746289D01*
X1171285Y746385D01*
X1172149Y746459D01*
X1173015Y746512D01*
X1173882Y746544D01*
X1174750Y746555D01*
X1175618Y746544D01*
X1176485Y746512D01*
X1177351Y746459D01*
X1178215Y746385D01*
X1179078Y746289D01*
X1179938Y746172D01*
X1180794Y746034D01*
X1181647Y745876D01*
X1182496Y745696D01*
X1183341Y745495D01*
X1184180Y745274D01*
X1185013Y745033D01*
X1185840Y744771D01*
X1186661Y744488D01*
X1187474Y744186D01*
X1188280Y743864D01*
X1189077Y743522D01*
X1189866Y743161D01*
X1190646Y742780D01*
X1191416Y742380D01*
X1192176Y741962D01*
X1192926Y741525D01*
X1193665Y741070D01*
X1194392Y740597D01*
X1195108Y740106D01*
X1195811Y739597D01*
X1196502Y739072D01*
X1197179Y738530D01*
X1197843Y737971D01*
X1198493Y737396D01*
X1199129Y736806D01*
X1199750Y736200D01*
X1200356Y735579D01*
X1200946Y734943D01*
X1201521Y734293D01*
X1202080Y733629D01*
X1202622Y732952D01*
X1203147Y732261D01*
X1203656Y731558D01*
X1204147Y730842D01*
X1204620Y730115D01*
X1205075Y729376D01*
X1205512Y728626D01*
X1205930Y727866D01*
X1206330Y727096D01*
X1206711Y726316D01*
X1207072Y725527D01*
X1207414Y724730D01*
X1207736Y723924D01*
X1208038Y723111D01*
X1208321Y722290D01*
X1208583Y721463D01*
X1208824Y720630D01*
X1209045Y719791D01*
X1209246Y718946D01*
X1209426Y718097D01*
X1209584Y717244D01*
X1209722Y716388D01*
X1209839Y715528D01*
X1209935Y714665D01*
X1210009Y713801D01*
X1210062Y712935D01*
X1210094Y712068D01*
X1210105Y711200D01*
X1210094Y710332D01*
X1210062Y709465D01*
X1210009Y708599D01*
X1209935Y707735D01*
X1209839Y706872D01*
X1209722Y706012D01*
X1209584Y705156D01*
X1209426Y704303D01*
X1209246Y703454D01*
X1209045Y702609D01*
X1208824Y701770D01*
X1208583Y700937D01*
X1208321Y700110D01*
X1208038Y699289D01*
X1207736Y698476D01*
X1207414Y697670D01*
X1207072Y696873D01*
X1206711Y696084D01*
X1206330Y695304D01*
X1205930Y694534D01*
X1205512Y693774D01*
X1205075Y693024D01*
X1204620Y692285D01*
X1204147Y691558D01*
X1203656Y690842D01*
X1203147Y690139D01*
X1202622Y689448D01*
X1202080Y688771D01*
X1201521Y688107D01*
X1200946Y687457D01*
X1200356Y686821D01*
X1199750Y686200D01*
X1199129Y685594D01*
X1198493Y685004D01*
X1197843Y684429D01*
X1197179Y683870D01*
X1196502Y683328D01*
X1195811Y682803D01*
X1195108Y682294D01*
X1194392Y681803D01*
X1193665Y681330D01*
X1192926Y680875D01*
X1192176Y680438D01*
X1191416Y680020D01*
X1190646Y679620D01*
X1189866Y679239D01*
X1189077Y678878D01*
X1188280Y678536D01*
X1187474Y678214D01*
X1186661Y677912D01*
X1185840Y677629D01*
X1185013Y677367D01*
X1184180Y677126D01*
X1183341Y676905D01*
X1182496Y676704D01*
X1181647Y676524D01*
X1180794Y676366D01*
X1179938Y676228D01*
X1179078Y676111D01*
X1178215Y676015D01*
X1177351Y675941D01*
X1176485Y675888D01*
X1175618Y675856D01*
X1174750Y675845D01*
X1173882Y675856D01*
X1173015Y675888D01*
X1172149Y675941D01*
X1171285Y676015D01*
X1170422Y676111D01*
X1169562Y676228D01*
X1168706Y676366D01*
X1167853Y676524D01*
X1167004Y676704D01*
X1166159Y676905D01*
X1165320Y677126D01*
X1164487Y677367D01*
X1163660Y677629D01*
X1162839Y677912D01*
X1162026Y678214D01*
X1161220Y678536D01*
X1160423Y678878D01*
X1159634Y679239D01*
X1158854Y679620D01*
X1158084Y680020D01*
X1157324Y680438D01*
X1156574Y680875D01*
X1155835Y681330D01*
X1155108Y681803D01*
X1154392Y682294D01*
X1153689Y682803D01*
X1152998Y683328D01*
X1152321Y683870D01*
X1151657Y684429D01*
X1151007Y685004D01*
X1150371Y685594D01*
X1149750Y686200D01*
X1149144Y686821D01*
X1148554Y687457D01*
X1147979Y688107D01*
X1147420Y688771D01*
X1146878Y689448D01*
X1146353Y690139D01*
X1145844Y690842D01*
X1145353Y691558D01*
X1144880Y692285D01*
X1144425Y693024D01*
X1143988Y693774D01*
X1143570Y694534D01*
X1143170Y695304D01*
X1142789Y696084D01*
X1142428Y696873D01*
X1142086Y697670D01*
X1141764Y698476D01*
X1141462Y699289D01*
X1141179Y700110D01*
X1140917Y700937D01*
X1140676Y701770D01*
X1140455Y702609D01*
X1140254Y703454D01*
X1140074Y704303D01*
X1139916Y705156D01*
X1139778Y706012D01*
X1139661Y706872D01*
X1139565Y707735D01*
X1139491Y708599D01*
X1139438Y709465D01*
X1139406Y710332D01*
X1139395Y711200D01*
X1154750Y731200D02*
X1194750Y731200D01*
X1194750Y691200D01*
X1154750Y691200D01*
X1154750Y731200D01*
X1114750Y748700D02*
X1114750Y761200D01*
X1114750Y723700D02*
X1114750Y698700D01*
X1114750Y673700D02*
X1114750Y661200D01*
X1234750Y748700D02*
X1234750Y761200D01*
X1234750Y723700D02*
X1234750Y698700D01*
X1234750Y673700D02*
X1234750Y661200D01*
X1239728Y496100D02*
X1239725Y495858D01*
X1239716Y495617D01*
X1239702Y495376D01*
X1239681Y495135D01*
X1239655Y494895D01*
X1239623Y494655D01*
X1239585Y494416D01*
X1239542Y494179D01*
X1239492Y493942D01*
X1239437Y493707D01*
X1239377Y493473D01*
X1239310Y493241D01*
X1239239Y493010D01*
X1239161Y492781D01*
X1239078Y492554D01*
X1238990Y492329D01*
X1238896Y492106D01*
X1238797Y491886D01*
X1238692Y491668D01*
X1238583Y491453D01*
X1238468Y491240D01*
X1238348Y491030D01*
X1238223Y490824D01*
X1238093Y490620D01*
X1237958Y490419D01*
X1237818Y490222D01*
X1237674Y490028D01*
X1237525Y489838D01*
X1237371Y489652D01*
X1237213Y489469D01*
X1237051Y489290D01*
X1236884Y489115D01*
X1236713Y488944D01*
X1236538Y488777D01*
X1236359Y488615D01*
X1236176Y488457D01*
X1235990Y488303D01*
X1235800Y488154D01*
X1235606Y488010D01*
X1235409Y487870D01*
X1235208Y487735D01*
X1235004Y487605D01*
X1234798Y487480D01*
X1234588Y487360D01*
X1234375Y487245D01*
X1234160Y487136D01*
X1233942Y487031D01*
X1233722Y486932D01*
X1233499Y486838D01*
X1233274Y486750D01*
X1233047Y486667D01*
X1232818Y486589D01*
X1232587Y486518D01*
X1232355Y486451D01*
X1232121Y486391D01*
X1231886Y486336D01*
X1231649Y486286D01*
X1231412Y486243D01*
X1231173Y486205D01*
X1230933Y486173D01*
X1230693Y486147D01*
X1230452Y486126D01*
X1230211Y486112D01*
X1229970Y486103D01*
X1229728Y486100D01*
X1129728Y486100D01*
X1129486Y486103D01*
X1129245Y486112D01*
X1129004Y486126D01*
X1128763Y486147D01*
X1128523Y486173D01*
X1128283Y486205D01*
X1128044Y486243D01*
X1127807Y486286D01*
X1127570Y486336D01*
X1127335Y486391D01*
X1127101Y486451D01*
X1126869Y486518D01*
X1126638Y486589D01*
X1126409Y486667D01*
X1126182Y486750D01*
X1125957Y486838D01*
X1125734Y486932D01*
X1125514Y487031D01*
X1125296Y487136D01*
X1125081Y487245D01*
X1124868Y487360D01*
X1124658Y487480D01*
X1124452Y487605D01*
X1124248Y487735D01*
X1124047Y487870D01*
X1123850Y488010D01*
X1123656Y488154D01*
X1123466Y488303D01*
X1123280Y488457D01*
X1123097Y488615D01*
X1122918Y488777D01*
X1122743Y488944D01*
X1122572Y489115D01*
X1122405Y489290D01*
X1122243Y489469D01*
X1122085Y489652D01*
X1121931Y489838D01*
X1121782Y490028D01*
X1121638Y490222D01*
X1121498Y490419D01*
X1121363Y490620D01*
X1121233Y490824D01*
X1121108Y491030D01*
X1120988Y491240D01*
X1120873Y491453D01*
X1120764Y491668D01*
X1120659Y491886D01*
X1120560Y492106D01*
X1120466Y492329D01*
X1120378Y492554D01*
X1120295Y492781D01*
X1120217Y493010D01*
X1120146Y493241D01*
X1120079Y493473D01*
X1120019Y493707D01*
X1119964Y493942D01*
X1119914Y494179D01*
X1119871Y494416D01*
X1119833Y494655D01*
X1119801Y494895D01*
X1119775Y495135D01*
X1119754Y495376D01*
X1119740Y495617D01*
X1119731Y495858D01*
X1119728Y496100D01*
X1119728Y596100D02*
X1119731Y596342D01*
X1119740Y596583D01*
X1119754Y596824D01*
X1119775Y597065D01*
X1119801Y597305D01*
X1119833Y597545D01*
X1119871Y597784D01*
X1119914Y598021D01*
X1119964Y598258D01*
X1120019Y598493D01*
X1120079Y598727D01*
X1120146Y598959D01*
X1120217Y599190D01*
X1120295Y599419D01*
X1120378Y599646D01*
X1120466Y599871D01*
X1120560Y600094D01*
X1120659Y600314D01*
X1120764Y600532D01*
X1120873Y600747D01*
X1120988Y600960D01*
X1121108Y601170D01*
X1121233Y601376D01*
X1121363Y601580D01*
X1121498Y601781D01*
X1121638Y601978D01*
X1121782Y602172D01*
X1121931Y602362D01*
X1122085Y602548D01*
X1122243Y602731D01*
X1122405Y602910D01*
X1122572Y603085D01*
X1122743Y603256D01*
X1122918Y603423D01*
X1123097Y603585D01*
X1123280Y603743D01*
X1123466Y603897D01*
X1123656Y604046D01*
X1123850Y604190D01*
X1124047Y604330D01*
X1124248Y604465D01*
X1124452Y604595D01*
X1124658Y604720D01*
X1124868Y604840D01*
X1125081Y604955D01*
X1125296Y605064D01*
X1125514Y605169D01*
X1125734Y605268D01*
X1125957Y605362D01*
X1126182Y605450D01*
X1126409Y605533D01*
X1126638Y605611D01*
X1126869Y605682D01*
X1127101Y605749D01*
X1127335Y605809D01*
X1127570Y605864D01*
X1127807Y605914D01*
X1128044Y605957D01*
X1128283Y605995D01*
X1128523Y606027D01*
X1128763Y606053D01*
X1129004Y606074D01*
X1129245Y606088D01*
X1129486Y606097D01*
X1129728Y606100D01*
X1229728Y606100D01*
X1229970Y606097D01*
X1230211Y606088D01*
X1230452Y606074D01*
X1230693Y606053D01*
X1230933Y606027D01*
X1231173Y605995D01*
X1231412Y605957D01*
X1231649Y605914D01*
X1231886Y605864D01*
X1232121Y605809D01*
X1232355Y605749D01*
X1232587Y605682D01*
X1232818Y605611D01*
X1233047Y605533D01*
X1233274Y605450D01*
X1233499Y605362D01*
X1233722Y605268D01*
X1233942Y605169D01*
X1234160Y605064D01*
X1234375Y604955D01*
X1234588Y604840D01*
X1234798Y604720D01*
X1235004Y604595D01*
X1235208Y604465D01*
X1235409Y604330D01*
X1235606Y604190D01*
X1235800Y604046D01*
X1235990Y603897D01*
X1236176Y603743D01*
X1236359Y603585D01*
X1236538Y603423D01*
X1236713Y603256D01*
X1236884Y603085D01*
X1237051Y602910D01*
X1237213Y602731D01*
X1237371Y602548D01*
X1237525Y602362D01*
X1237674Y602172D01*
X1237818Y601978D01*
X1237958Y601781D01*
X1238093Y601580D01*
X1238223Y601376D01*
X1238348Y601170D01*
X1238468Y600960D01*
X1238583Y600747D01*
X1238692Y600532D01*
X1238797Y600314D01*
X1238896Y600094D01*
X1238990Y599871D01*
X1239078Y599646D01*
X1239161Y599419D01*
X1239239Y599190D01*
X1239310Y598959D01*
X1239377Y598727D01*
X1239437Y598493D01*
X1239492Y598258D01*
X1239542Y598021D01*
X1239585Y597784D01*
X1239623Y597545D01*
X1239655Y597305D01*
X1239681Y597065D01*
X1239702Y596824D01*
X1239716Y596583D01*
X1239725Y596342D01*
X1239728Y596100D01*
X1144373Y546100D02*
X1144384Y546968D01*
X1144416Y547835D01*
X1144469Y548701D01*
X1144543Y549565D01*
X1144639Y550428D01*
X1144756Y551288D01*
X1144894Y552144D01*
X1145052Y552997D01*
X1145232Y553846D01*
X1145433Y554691D01*
X1145654Y555530D01*
X1145895Y556363D01*
X1146157Y557190D01*
X1146440Y558011D01*
X1146742Y558824D01*
X1147064Y559630D01*
X1147406Y560427D01*
X1147767Y561216D01*
X1148148Y561996D01*
X1148548Y562766D01*
X1148966Y563526D01*
X1149403Y564276D01*
X1149858Y565015D01*
X1150331Y565742D01*
X1150822Y566458D01*
X1151331Y567161D01*
X1151856Y567852D01*
X1152398Y568529D01*
X1152957Y569193D01*
X1153532Y569843D01*
X1154122Y570479D01*
X1154728Y571100D01*
X1155349Y571706D01*
X1155985Y572296D01*
X1156635Y572871D01*
X1157299Y573430D01*
X1157976Y573972D01*
X1158667Y574497D01*
X1159370Y575006D01*
X1160086Y575497D01*
X1160813Y575970D01*
X1161552Y576425D01*
X1162302Y576862D01*
X1163062Y577280D01*
X1163832Y577680D01*
X1164612Y578061D01*
X1165401Y578422D01*
X1166198Y578764D01*
X1167004Y579086D01*
X1167817Y579388D01*
X1168638Y579671D01*
X1169465Y579933D01*
X1170298Y580174D01*
X1171137Y580395D01*
X1171982Y580596D01*
X1172831Y580776D01*
X1173684Y580934D01*
X1174540Y581072D01*
X1175400Y581189D01*
X1176263Y581285D01*
X1177127Y581359D01*
X1177993Y581412D01*
X1178860Y581444D01*
X1179728Y581455D01*
X1180596Y581444D01*
X1181463Y581412D01*
X1182329Y581359D01*
X1183193Y581285D01*
X1184056Y581189D01*
X1184916Y581072D01*
X1185772Y580934D01*
X1186625Y580776D01*
X1187474Y580596D01*
X1188319Y580395D01*
X1189158Y580174D01*
X1189991Y579933D01*
X1190818Y579671D01*
X1191639Y579388D01*
X1192452Y579086D01*
X1193258Y578764D01*
X1194055Y578422D01*
X1194844Y578061D01*
X1195624Y577680D01*
X1196394Y577280D01*
X1197154Y576862D01*
X1197904Y576425D01*
X1198643Y575970D01*
X1199370Y575497D01*
X1200086Y575006D01*
X1200789Y574497D01*
X1201480Y573972D01*
X1202157Y573430D01*
X1202821Y572871D01*
X1203471Y572296D01*
X1204107Y571706D01*
X1204728Y571100D01*
X1205334Y570479D01*
X1205924Y569843D01*
X1206499Y569193D01*
X1207058Y568529D01*
X1207600Y567852D01*
X1208125Y567161D01*
X1208634Y566458D01*
X1209125Y565742D01*
X1209598Y565015D01*
X1210053Y564276D01*
X1210490Y563526D01*
X1210908Y562766D01*
X1211308Y561996D01*
X1211689Y561216D01*
X1212050Y560427D01*
X1212392Y559630D01*
X1212714Y558824D01*
X1213016Y558011D01*
X1213299Y557190D01*
X1213561Y556363D01*
X1213802Y555530D01*
X1214023Y554691D01*
X1214224Y553846D01*
X1214404Y552997D01*
X1214562Y552144D01*
X1214700Y551288D01*
X1214817Y550428D01*
X1214913Y549565D01*
X1214987Y548701D01*
X1215040Y547835D01*
X1215072Y546968D01*
X1215083Y546100D01*
X1215072Y545232D01*
X1215040Y544365D01*
X1214987Y543499D01*
X1214913Y542635D01*
X1214817Y541772D01*
X1214700Y540912D01*
X1214562Y540056D01*
X1214404Y539203D01*
X1214224Y538354D01*
X1214023Y537509D01*
X1213802Y536670D01*
X1213561Y535837D01*
X1213299Y535010D01*
X1213016Y534189D01*
X1212714Y533376D01*
X1212392Y532570D01*
X1212050Y531773D01*
X1211689Y530984D01*
X1211308Y530204D01*
X1210908Y529434D01*
X1210490Y528674D01*
X1210053Y527924D01*
X1209598Y527185D01*
X1209125Y526458D01*
X1208634Y525742D01*
X1208125Y525039D01*
X1207600Y524348D01*
X1207058Y523671D01*
X1206499Y523007D01*
X1205924Y522357D01*
X1205334Y521721D01*
X1204728Y521100D01*
X1204107Y520494D01*
X1203471Y519904D01*
X1202821Y519329D01*
X1202157Y518770D01*
X1201480Y518228D01*
X1200789Y517703D01*
X1200086Y517194D01*
X1199370Y516703D01*
X1198643Y516230D01*
X1197904Y515775D01*
X1197154Y515338D01*
X1196394Y514920D01*
X1195624Y514520D01*
X1194844Y514139D01*
X1194055Y513778D01*
X1193258Y513436D01*
X1192452Y513114D01*
X1191639Y512812D01*
X1190818Y512529D01*
X1189991Y512267D01*
X1189158Y512026D01*
X1188319Y511805D01*
X1187474Y511604D01*
X1186625Y511424D01*
X1185772Y511266D01*
X1184916Y511128D01*
X1184056Y511011D01*
X1183193Y510915D01*
X1182329Y510841D01*
X1181463Y510788D01*
X1180596Y510756D01*
X1179728Y510745D01*
X1178860Y510756D01*
X1177993Y510788D01*
X1177127Y510841D01*
X1176263Y510915D01*
X1175400Y511011D01*
X1174540Y511128D01*
X1173684Y511266D01*
X1172831Y511424D01*
X1171982Y511604D01*
X1171137Y511805D01*
X1170298Y512026D01*
X1169465Y512267D01*
X1168638Y512529D01*
X1167817Y512812D01*
X1167004Y513114D01*
X1166198Y513436D01*
X1165401Y513778D01*
X1164612Y514139D01*
X1163832Y514520D01*
X1163062Y514920D01*
X1162302Y515338D01*
X1161552Y515775D01*
X1160813Y516230D01*
X1160086Y516703D01*
X1159370Y517194D01*
X1158667Y517703D01*
X1157976Y518228D01*
X1157299Y518770D01*
X1156635Y519329D01*
X1155985Y519904D01*
X1155349Y520494D01*
X1154728Y521100D01*
X1154122Y521721D01*
X1153532Y522357D01*
X1152957Y523007D01*
X1152398Y523671D01*
X1151856Y524348D01*
X1151331Y525039D01*
X1150822Y525742D01*
X1150331Y526458D01*
X1149858Y527185D01*
X1149403Y527924D01*
X1148966Y528674D01*
X1148548Y529434D01*
X1148148Y530204D01*
X1147767Y530984D01*
X1147406Y531773D01*
X1147064Y532570D01*
X1146742Y533376D01*
X1146440Y534189D01*
X1146157Y535010D01*
X1145895Y535837D01*
X1145654Y536670D01*
X1145433Y537509D01*
X1145232Y538354D01*
X1145052Y539203D01*
X1144894Y540056D01*
X1144756Y540912D01*
X1144639Y541772D01*
X1144543Y542635D01*
X1144469Y543499D01*
X1144416Y544365D01*
X1144384Y545232D01*
X1144373Y546100D01*
X1159728Y566100D02*
X1199728Y566100D01*
X1199728Y526100D01*
X1159728Y526100D01*
X1159728Y566100D01*
X1119728Y583600D02*
X1119728Y596100D01*
X1119728Y558600D02*
X1119728Y533600D01*
X1119728Y508600D02*
X1119728Y496100D01*
X1239728Y583600D02*
X1239728Y596100D01*
X1239728Y558600D02*
X1239728Y533600D01*
X1239728Y508600D02*
X1239728Y496100D01*
D14*
X1083300Y880100D02*
X288300Y880100D01*
X1083300Y880100D02*
X1083300Y364500D01*
X288300Y364500D02*
X288300Y880100D01*
X288300Y364500D02*
X1083300Y364500D01*
D15*
X1263650Y546100D03*
X1263650Y711200D03*
M02*
