G04 EAGLE Gerber RS-274X export*
G75*
%MOMM*%
%FSLAX34Y34*%
%LPD*%
%INSoldermask Top*%
%IPPOS*%
%AMOC8*
5,1,8,0,0,1.08239X$1,22.5*%
G01*
G04 Define Apertures*
%ADD10R,1.003200X1.003200*%
%ADD11R,1.631200X1.631200*%
%ADD12C,1.631200*%
%ADD13C,3.519200*%
%ADD14C,1.711200*%
%ADD15C,2.703200*%
%ADD16R,0.812800X0.711200*%
%ADD17C,2.303200*%
%ADD18C,1.853200*%
%ADD19R,1.727200X1.727200*%
%ADD20P,1.8695X8X202.5*%
%ADD21R,0.711200X0.812800*%
%ADD22C,0.959600*%
D10*
X1137800Y838200D03*
X1122800Y838200D03*
X1220350Y838200D03*
X1205350Y838200D03*
X1180028Y838200D03*
X1165028Y838200D03*
D11*
X812800Y418860D03*
D12*
X787800Y418860D03*
X767800Y418860D03*
X742800Y418860D03*
D13*
X843500Y391760D03*
X712100Y391760D03*
D14*
X418700Y317500D03*
X393700Y317500D03*
X368700Y317500D03*
D15*
X443700Y247500D03*
X343700Y247500D03*
D14*
X1002900Y324438D03*
X977900Y324438D03*
X952900Y324438D03*
D15*
X1027900Y254438D03*
X927900Y254438D03*
D16*
X1124712Y814260D03*
X1135888Y814260D03*
X1206881Y814222D03*
X1218057Y814222D03*
X1166725Y814640D03*
X1177901Y814640D03*
D17*
X1237250Y736200D03*
X1237250Y686200D03*
X1112250Y686200D03*
X1112250Y736200D03*
X1242228Y571100D03*
X1242228Y521100D03*
X1117228Y521100D03*
X1117228Y571100D03*
D18*
X304800Y863600D03*
X304800Y838200D03*
X304800Y812800D03*
X304800Y787400D03*
X304800Y762000D03*
X304800Y736600D03*
X304800Y711200D03*
X304800Y685800D03*
X304800Y660400D03*
X304800Y635000D03*
X304800Y609600D03*
X304800Y584200D03*
X304800Y558800D03*
X304800Y533400D03*
X304800Y508000D03*
X304800Y482600D03*
X304800Y457200D03*
X304800Y431800D03*
X304800Y406400D03*
X304800Y381000D03*
X1066800Y381000D03*
X1066800Y406400D03*
X1066800Y431800D03*
X1066800Y457200D03*
X1066800Y482600D03*
X1066800Y508000D03*
X1066800Y533400D03*
X1066800Y558800D03*
X1066800Y584200D03*
X1066800Y609600D03*
X1066800Y635000D03*
X1066800Y660400D03*
X1066800Y685800D03*
X1066800Y711200D03*
X1066800Y736600D03*
X1066800Y762000D03*
X1066800Y787400D03*
X1066800Y812800D03*
X1066800Y838200D03*
X1066800Y863600D03*
D19*
X893400Y479800D03*
D20*
X893400Y505200D03*
X868000Y479800D03*
X868000Y505200D03*
X842600Y479800D03*
X842600Y505200D03*
X817200Y479800D03*
X817200Y505200D03*
X791800Y479800D03*
X791800Y505200D03*
X766400Y479800D03*
X766400Y505200D03*
X741000Y479800D03*
X741000Y505200D03*
X715600Y479800D03*
X715600Y505200D03*
X690200Y479800D03*
X690200Y505200D03*
X664800Y479800D03*
X664800Y505200D03*
X639400Y479800D03*
X639400Y505200D03*
X614000Y479800D03*
X614000Y505200D03*
X588600Y479800D03*
X588600Y505200D03*
X563200Y479800D03*
X563200Y505200D03*
X537800Y479800D03*
X537800Y505200D03*
X512400Y479800D03*
X512400Y505200D03*
X487000Y479800D03*
X487000Y505200D03*
X461600Y479800D03*
X461600Y505200D03*
D19*
X893400Y733800D03*
D20*
X893400Y759200D03*
X868000Y733800D03*
X868000Y759200D03*
X842600Y733800D03*
X842600Y759200D03*
X817200Y733800D03*
X817200Y759200D03*
X791800Y733800D03*
X791800Y759200D03*
X766400Y733800D03*
X766400Y759200D03*
X741000Y733800D03*
X741000Y759200D03*
X715600Y733800D03*
X715600Y759200D03*
X690200Y733800D03*
X690200Y759200D03*
X664800Y733800D03*
X664800Y759200D03*
X639400Y733800D03*
X639400Y759200D03*
X614000Y733800D03*
X614000Y759200D03*
X588600Y733800D03*
X588600Y759200D03*
X563200Y733800D03*
X563200Y759200D03*
X537800Y733800D03*
X537800Y759200D03*
X512400Y733800D03*
X512400Y759200D03*
X487000Y733800D03*
X487000Y759200D03*
X461600Y733800D03*
X461600Y759200D03*
D21*
X1263650Y551688D03*
X1263650Y540512D03*
X1263650Y716788D03*
X1263650Y705612D03*
D22*
X876300Y393700D03*
X1098550Y381000D03*
X1263650Y520700D03*
X1263650Y685800D03*
X1111250Y838200D03*
X717550Y711200D03*
X323850Y381000D03*
X641350Y520700D03*
X711200Y520700D03*
X642299Y712149D03*
X1276350Y704850D03*
X1276350Y531979D03*
X666750Y685800D03*
X1035050Y698500D03*
M02*
