M48
;GenerationSoftware,Autodesk,EAGLE,9.7.0*%
;CreationDate,2025-05-06T21:25:09Z*%
FMAT,2
ICI,OFF
METRIC,TZ,000.000
T8C0.350
T7C0.889
T6C0.920
T5C1.000
T4C1.100
T3C1.400
T2C2.300
T1C2.500
%
G90
M71
T1
X44370Y24750
X34370Y24750
X102790Y25444
X92790Y25444
T2
X84350Y39176
X71210Y39176
T3
X123725Y68620
X111225Y68620
X111225Y73620
X124223Y57110
X124223Y52110
X111723Y52110
X111723Y57110
X123725Y73620
T4
X106680Y53340
X106680Y55880
X106680Y58420
X106680Y60960
X106680Y50800
X106680Y48260
X106680Y45720
X106680Y43180
X106680Y63500
X106680Y66040
X106680Y40640
X106680Y38100
X30480Y38100
X30480Y40640
X30480Y43180
X30480Y45720
X106680Y68580
X106680Y71120
X106680Y81280
X106680Y73660
X106680Y76200
X106680Y78740
X106680Y83820
X106680Y86360
X30480Y86360
X30480Y83820
X30480Y81280
X30480Y78740
X30480Y76200
X30480Y73660
X30480Y71120
X30480Y68580
X30480Y66040
X30480Y63500
X30480Y60960
X30480Y58420
X30480Y55880
X30480Y53340
X30480Y50800
X30480Y48260
T5
X95290Y32444
X97790Y32444
X100290Y32444
X36870Y31750
X39370Y31750
X41870Y31750
T6
X74280Y41886
X76780Y41886
X78780Y41886
X81280Y41886
T7
X46160Y75920
X53780Y50520
X46160Y73380
X48700Y75920
X48700Y73380
X51240Y75920
X51240Y73380
X53780Y75920
X53780Y73380
X56320Y75920
X56320Y73380
X58860Y75920
X58860Y73380
X61400Y75920
X89340Y47980
X89340Y50520
X86800Y47980
X86800Y50520
X84260Y47980
X84260Y50520
X81720Y47980
X81720Y50520
X79180Y47980
X79180Y50520
X76640Y47980
X76640Y50520
X74100Y47980
X74100Y50520
X71560Y47980
X71560Y50520
X69020Y47980
X69020Y50520
X66480Y47980
X66480Y50520
X63940Y47980
X63940Y50520
X61400Y47980
X61400Y50520
X58860Y47980
X58860Y50520
X56320Y47980
X56320Y50520
X53780Y47980
X61400Y73380
X51240Y47980
X51240Y50520
X48700Y47980
X48700Y50520
X46160Y47980
X46160Y50520
X89340Y73380
X89340Y75920
X86800Y73380
X86800Y75920
X84260Y73380
X84260Y75920
X81720Y73380
X81720Y75920
X79180Y73380
X79180Y75920
X76640Y73380
X76640Y75920
X74100Y73380
X74100Y75920
X71560Y73380
X71560Y75920
X69020Y73380
X69020Y75920
X66480Y73380
X66480Y75920
X63940Y73380
X63940Y75920
T8
X66675Y68580
X109855Y38100
X126365Y52070
X103505Y69850
X126365Y68580
X111125Y83820
X71755Y71120
X32385Y38100
X64135Y52070
X71120Y52070
X64230Y71215
X127635Y70485
X127635Y53198
X87630Y39370
M30